STARTFONT 2.1
COMMENT
COMMENT Converted from OpenType font "sf.ttf" by "otf2bdf 3.0".
COMMENT
FONT -FreeType-SF Distant Galaxy-Medium-R-Normal--66-480-100-100-P-389-ISO10646-1
SIZE 48 100 100
FONTBOUNDINGBOX 86 67 -9 -11
STARTPROPERTIES 19
FOUNDRY "FreeType"
FAMILY_NAME "SF Distant Galaxy"
WEIGHT_NAME "Medium"
SLANT "R"
SETWIDTH_NAME "Normal"
ADD_STYLE_NAME ""
PIXEL_SIZE 66
POINT_SIZE 480
RESOLUTION_X 100
RESOLUTION_Y 100
SPACING "P"
AVERAGE_WIDTH 389
CHARSET_REGISTRY "ISO10646"
CHARSET_ENCODING "1"
FONT_ASCENT 55
FONT_DESCENT 11
COPYRIGHT "Created by ShyWedge, 1999.  (http://welcome.to/ShyFonts)"
_OTF_FONTFILE "sf.ttf"
_OTF_PSNAME "SFDistantGalaxy"
ENDPROPERTIES
CHARS 187
STARTCHAR 0020
ENCODING 32
SWIDTH 375 0
DWIDTH 25 0
BBX 0 0 0 0
BITMAP
ENDCHAR
STARTCHAR 0021
ENCODING 33
SWIDTH 195 0
DWIDTH 13 0
BBX 11 44 1 0
BITMAP
FFC0
FFC0
FFC0
FFC0
FFC0
FFC0
FFC0
FFC0
FFC0
FFC0
FFC0
FFC0
FFC0
FFC0
FFC0
FFC0
FFC0
FFC0
FFC0
FFC0
FFC0
FFC0
FFC0
FFC0
FFC0
FFC0
FFC0
FFC0
FFC0
FFC0
0000
0000
0000
1F00
3F80
7FC0
FFE0
FFE0
FFE0
FFE0
FFE0
7FC0
3F80
1F00
ENDCHAR
STARTCHAR 0022
ENCODING 34
SWIDTH 405 0
DWIDTH 27 0
BBX 25 16 1 27
BITMAP
1F007C00
3F80FE00
7FC1FF00
FFE3FF80
FFE3FF80
FFE3FF80
FFE3FF80
FFE3FF80
7FE1FF80
3FC0FF00
1FC07F00
07801E00
07801E00
07001C00
0E003800
0C003000
ENDCHAR
STARTCHAR 0023
ENCODING 35
SWIDTH 660 0
DWIDTH 44 0
BBX 41 37 1 7
BITMAP
000FF81FF000
000FF01FE000
000FF01FE000
000FF01FE000
000FF01FE000
001FF03FE000
001FE03FC000
0FFFFFFFFF80
0FFFFFFFFF80
0FFFFFFFFF80
0FFFFFFFFF80
0FFFFFFFFF00
1FFFFFFFFF00
1FFFFFFFFF00
1FFFFFFFFF00
003FC07F8000
003FC0FF8000
007FC0FF8000
007F80FF0000
007F80FF0000
007F80FF0000
007F80FF0000
3FFFFFFFFC00
7FFFFFFFFC00
7FFFFFFFFC00
7FFFFFFFFC00
7FFFFFFFFC00
7FFFFFFFFC00
7FFFFFFFF800
FFFFFFFFF800
01FE03FC0000
01FE03FC0000
01FE03FC0000
01FE07FC0000
03FE07FC0000
03FC07F80000
03FC07F80000
ENDCHAR
STARTCHAR 0024
ENCODING 36
SWIDTH 705 0
DWIDTH 47 0
BBX 43 56 2 -6
BITMAP
0000FFE00000
0000FFE00000
0000FFE00000
0000FFE00000
0000FFE00000
0000FFE00000
0001FFFFFFE0
0007FFFFFFE0
001FFFFFFFE0
003FFFFFFFE0
007FFFFFFFE0
00FFFFFFFFE0
01FFFFFFFFE0
03FFFFFFFFE0
03FFFFFFFFE0
03FFFFFFFFE0
07FFFFFFFFE0
07FFFFFFFFE0
07FFFFFFFFE0
07FFFFFFFFE0
07FFFF800000
07FFFF800000
07FFFFE00000
07FFFFF00000
03FFFFF80000
03FFFFFC0000
01FFFFFF0000
00FFFFFF8000
007FFFFFC000
003FFFFFE000
001FFFFFF000
0007FFFFF800
0003FFFFF800
0001FFFFF800
00007FFFFC00
00007FFFFC00
FFFFFFFFFC00
FFFFFFFFFC00
FFFFFFFFFC00
FFFFFFFFFC00
FFFFFFFFFC00
FFFFFFFFF800
FFFFFFFFF800
FFFFFFFFF000
FFFFFFFFE000
FFFFFFFFE000
FFFFFFFFC000
FFFFFFFF0000
FFFFFFFE0000
FFFFFFF00000
0000FFE00000
0000FFE00000
0000FFE00000
0000FFE00000
0000FFE00000
0000FFE00000
ENDCHAR
STARTCHAR 0025
ENCODING 37
SWIDTH 810 0
DWIDTH 54 0
BBX 52 44 1 0
BITMAP
00FC000E000000
03FF001FC00000
0FFFC01FF00000
1FFFE01FFC0000
3FFFF03FFC0000
3FFFF03FFC0000
7FFFF83FF80000
7F87F87FF80000
FF03FC7FF80000
FE01FC7FF00000
FE01FCFFF00000
FE01FCFFE00000
FE01FCFFE00000
FF03FDFFE00000
7F87F9FFC00000
7FFFFBFFC00000
7FFFF3FFC00000
3FFFF3FF800000
1FFFE7FF800000
0FFFC7FF800000
07FF07FF000000
00FC0FFF000000
00000FFF03F000
00000FFE0FFC00
00001FFE3FFF00
00001FFE7FFF80
00001FFCFFFFC0
00003FFCFFFFC0
00003FFDFFFFE0
00003FF9FE1FE0
00007FFBFC0FF0
00007FF3F807F0
00007FF3F807F0
0000FFF3F807F0
0000FFE3F807F0
0001FFE3FC0FF0
0001FFE1FE1FE0
0001FFC1FFFFE0
0003FFC1FFFFC0
0003FFC0FFFFC0
0003FF807FFF80
0000FF803FFF00
00003F800FFC00
0000070003F000
ENDCHAR
STARTCHAR 0026
ENCODING 38
SWIDTH 690 0
DWIDTH 46 0
BBX 44 44 1 0
BITMAP
003FFFFFFFF0
01FFFFFFFFF0
03FFFFFFFFF0
07FFFFFFFFF0
0FFFFFFFFFF0
1FFFFFFFFFF0
3FFFFFFFFFF0
7FFFFFFFFFF0
7FFFFFFFFFF0
7FFFFFFFFFF0
FFFFFFFFFFF0
FFFFFFFFFFF0
FFFFFFFFFFF0
FFFE00000000
FFFE00000000
FFFE00000000
FFFFFF800000
7FFFFF800000
7FFFFF800000
7FFFFF800000
3FFFFF800000
1FFFFF800000
3FFFFF800000
3FFFFF83FFF0
7FFFFF83FFF0
7FFFFF83FFF0
FFFFFF83FFF0
FFFFFF83FFF0
FFFE0003FFF0
FFFE0003FFF0
FFFE0003FFF0
FFFFFFFFFFF0
FFFFFFFFFFF0
FFFFFFFFFFF0
7FFFFFFFFFF0
7FFFFFFFFFF0
7FFFFFFFFFF0
3FFFFFFFFFF0
1FFFFFFFFFF0
0FFFFFFFFFF0
07FFFFFFFFF0
03FFFFFFFFF0
01FFFFFFFFF0
003FFFFFFFF0
ENDCHAR
STARTCHAR 0027
ENCODING 39
SWIDTH 195 0
DWIDTH 13 0
BBX 11 16 1 27
BITMAP
1F00
3F80
7FC0
FFE0
FFE0
FFE0
FFE0
FFE0
7FE0
3FC0
1FC0
0780
0780
0700
0E00
0C00
ENDCHAR
STARTCHAR 0028
ENCODING 40
SWIDTH 285 0
DWIDTH 19 0
BBX 16 55 1 -5
BITMAP
00FF
01FF
01FE
03FE
07FE
07FC
0FFC
0FFC
0FF8
1FF8
1FF8
3FF8
3FF8
3FF0
3FF0
7FF0
7FF0
7FF0
7FF0
7FE0
FFE0
FFE0
FFE0
FFE0
FFE0
FFE0
FFE0
FFE0
FFE0
FFE0
FFE0
FFE0
FFE0
FFE0
FFE0
7FE0
7FF0
7FF0
7FF0
7FF0
3FF0
3FF0
3FF8
3FF8
1FF8
1FF8
0FF8
0FFC
0FFC
07FC
07FE
03FE
01FE
01FF
00FF
ENDCHAR
STARTCHAR 0029
ENCODING 41
SWIDTH 285 0
DWIDTH 19 0
BBX 16 55 2 -5
BITMAP
FF00
FF80
7F80
7FC0
7FC0
3FE0
3FE0
3FF0
3FF0
1FF8
1FF8
1FF8
1FFC
0FFC
0FFC
0FFE
0FFE
0FFE
0FFE
07FE
07FF
07FF
07FF
07FF
07FF
07FF
07FF
07FF
07FF
07FF
07FF
07FF
07FF
07FF
07FF
07FE
0FFE
0FFE
0FFE
0FFE
0FFC
0FFC
1FFC
1FFC
1FF8
1FF8
3FF0
3FF0
3FF0
3FE0
7FE0
7FC0
7F80
FF80
FF00
ENDCHAR
STARTCHAR 002A
ENCODING 42
SWIDTH 375 0
DWIDTH 25 0
BBX 23 22 1 21
BITMAP
00FE00
00FE00
00FE00
18FE30
3EFEF8
3FFFF8
7FFFFC
7FFFFC
FFFFFE
3FFFF8
0FFFE0
0FFFE0
3FFFF8
FFFFFE
7FFFFC
7FFFFC
3FFFF8
3EFEF8
18FE30
00FE00
00FE00
00FE00
ENDCHAR
STARTCHAR 002B
ENCODING 43
SWIDTH 360 0
DWIDTH 24 0
BBX 22 22 1 11
BITMAP
01FE00
01FE00
01FE00
01FE00
01FE00
01FE00
01FE00
FFFFFC
FFFFFC
FFFFFC
FFFFFC
FFFFFC
FFFFFC
FFFFFC
FFFFFC
01FE00
01FE00
01FE00
01FE00
01FE00
01FE00
01FE00
ENDCHAR
STARTCHAR 002C
ENCODING 44
SWIDTH 195 0
DWIDTH 13 0
BBX 11 16 1 -6
BITMAP
1F00
3F80
7FC0
FFE0
FFE0
FFE0
FFE0
FFE0
7FE0
3FC0
1FC0
0780
0780
0700
0E00
0C00
ENDCHAR
STARTCHAR 002D
ENCODING 45
SWIDTH 360 0
DWIDTH 24 0
BBX 22 8 1 18
BITMAP
FFFFFC
FFFFFC
FFFFFC
FFFFFC
FFFFFC
FFFFFC
FFFFFC
FFFFFC
ENDCHAR
STARTCHAR 002E
ENCODING 46
SWIDTH 195 0
DWIDTH 13 0
BBX 11 11 1 0
BITMAP
1F00
3F80
7FC0
FFE0
FFE0
FFE0
FFE0
FFE0
7FC0
3F80
1F00
ENDCHAR
STARTCHAR 002F
ENCODING 47
SWIDTH 435 0
DWIDTH 29 0
BBX 29 54 0 -5
BITMAP
00003C00
00003F80
00007FE0
00007FF8
00007FF0
0000FFF0
0000FFF0
0000FFE0
0001FFE0
0001FFE0
0001FFC0
0003FFC0
0003FF80
0007FF80
0007FF80
0007FF00
000FFF00
000FFF00
000FFE00
001FFE00
001FFE00
001FFC00
003FFC00
003FFC00
003FF800
007FF800
007FF000
00FFF000
00FFF000
00FFE000
01FFE000
01FFE000
01FFC000
03FFC000
03FFC000
03FF8000
07FF8000
07FF0000
0FFF0000
0FFF0000
0FFE0000
1FFE0000
1FFE0000
1FFC0000
3FFC0000
3FFC0000
3FF80000
7FF80000
7FF80000
7FF00000
FFF00000
7FE00000
0FE00000
01E00000
ENDCHAR
STARTCHAR 0030
ENCODING 48
SWIDTH 720 0
DWIDTH 48 0
BBX 46 44 1 0
BITMAP
00003FF00000
0001FFFE0000
000FFFFFC000
001FFFFFE000
007FFFFFF800
00FFFFFFFC00
01FFFFFFFE00
03FFFFFFFF00
07FFFFFFFF80
0FFFFFFFFFC0
1FFFFFFFFFE0
1FFFFFFFFFE0
3FFFFFFFFFF0
3FFFFFFFFFF0
7FFFF03FFFF8
7FFFC00FFFF8
7FFF8007FFF8
FFFF0003FFFC
FFFF0003FFFC
FFFE0001FFFC
FFFE0001FFFC
FFFE0001FFFC
FFFE0001FFFC
FFFE0001FFFC
FFFE0001FFFC
FFFE0003FFFC
FFFF0003FFFC
7FFF8007FFF8
7FFFC00FFFF8
7FFFF03FFFF8
3FFFFFFFFFF0
3FFFFFFFFFF0
1FFFFFFFFFE0
1FFFFFFFFFE0
0FFFFFFFFFC0
07FFFFFFFF80
03FFFFFFFF00
01FFFFFFFE00
00FFFFFFFC00
007FFFFFF800
001FFFFFE000
000FFFFFC000
0001FFFE0000
00003FF00000
ENDCHAR
STARTCHAR 0031
ENCODING 49
SWIDTH 345 0
DWIDTH 23 0
BBX 20 44 2 0
BITMAP
07FFF0
0FFFF0
0FFFF0
0FFFF0
1FFFF0
1FFFF0
3FFFF0
3FFFF0
7FFFF0
7FFFF0
7FFFF0
FFFFF0
FFFFF0
07FFF0
07FFF0
07FFF0
07FFF0
07FFF0
07FFF0
07FFF0
07FFF0
07FFF0
07FFF0
07FFF0
07FFF0
07FFF0
07FFF0
07FFF0
07FFF0
07FFF0
07FFF0
07FFF0
07FFF0
07FFF0
07FFF0
07FFF0
07FFF0
07FFF0
07FFF0
07FFF0
07FFF0
07FFF0
07FFF0
07FFF0
ENDCHAR
STARTCHAR 0032
ENCODING 50
SWIDTH 720 0
DWIDTH 48 0
BBX 46 44 1 0
BITMAP
3FFFFFFFF000
3FFFFFFFFC00
3FFFFFFFFF00
3FFFFFFFFF80
3FFFFFFFFFC0
3FFFFFFFFFE0
3FFFFFFFFFF0
3FFFFFFFFFF0
3FFFFFFFFFF8
3FFFFFFFFFF8
3FFFFFFFFFFC
3FFFFFFFFFFC
3FFFFFFFFFFC
00000001FFFC
00000001FFFC
00000001FFFC
003FFFFFFFFC
00FFFFFFFFFC
03FFFFFFFFF8
07FFFFFFFFF8
0FFFFFFFFFF0
1FFFFFFFFFF0
3FFFFFFFFFE0
3FFFFFFFFFC0
7FFFFFFFFF80
7FFFFFFFFF00
FFFFFFFFFC00
FFFFFFFFF000
FFFE00000000
FFFE00000000
FFFE00000000
FFFFFFFFFFFC
FFFFFFFFFFFC
FFFFFFFFFFFC
FFFFFFFFFFFC
FFFFFFFFFFFC
FFFFFFFFFFFC
FFFFFFFFFFFC
FFFFFFFFFFFC
FFFFFFFFFFFC
FFFFFFFFFFFC
FFFFFFFFFFFC
FFFFFFFFFFFC
FFFFFFFFFFFC
ENDCHAR
STARTCHAR 0033
ENCODING 51
SWIDTH 690 0
DWIDTH 46 0
BBX 44 44 1 0
BITMAP
FFFFFFFFC000
FFFFFFFFF000
FFFFFFFFFC00
FFFFFFFFFE00
FFFFFFFFFF00
FFFFFFFFFF80
FFFFFFFFFFC0
FFFFFFFFFFC0
FFFFFFFFFFE0
FFFFFFFFFFE0
FFFFFFFFFFE0
FFFFFFFFFFF0
FFFFFFFFFFF0
00000007FFF0
00000007FFF0
00000007FFF0
001FFFFFFFE0
001FFFFFFFE0
001FFFFFFFE0
001FFFFFFFC0
001FFFFFFFC0
001FFFFFFF80
001FFFFFFF80
001FFFFFFFC0
001FFFFFFFC0
001FFFFFFFE0
001FFFFFFFE0
001FFFFFFFE0
00000007FFF0
00000007FFF0
00000007FFF0
FFFFFFFFFFF0
FFFFFFFFFFF0
FFFFFFFFFFE0
FFFFFFFFFFE0
FFFFFFFFFFE0
FFFFFFFFFFC0
FFFFFFFFFFC0
FFFFFFFFFF80
FFFFFFFFFF00
FFFFFFFFFE00
FFFFFFFFFC00
FFFFFFFFF000
FFFFFFFFC000
ENDCHAR
STARTCHAR 0034
ENCODING 52
SWIDTH 735 0
DWIDTH 49 0
BBX 46 44 2 0
BITMAP
0000000FFFE0
0000000FFFE0
0000000FFFE0
0000000FFFE0
0000000FFFE0
07FFF80FFFE0
07FFF80FFFE0
07FFF80FFFE0
07FFF00FFFE0
0FFFF00FFFE0
0FFFF00FFFE0
0FFFF00FFFE0
0FFFF00FFFE0
0FFFE00FFFE0
1FFFE00FFFE0
1FFFE00FFFE0
1FFFE00FFFE0
1FFFE00FFFE0
1FFFE00FFFE0
1FFFC00FFFE0
3FFFC00FFFE0
3FFFC00FFFE0
3FFFFFFFFFFC
3FFFFFFFFFFC
3FFFFFFFFFFC
3FFFFFFFFFFC
7FFFFFFFFFFC
7FFFFFFFFFFC
7FFFFFFFFFFC
7FFFFFFFFFFC
7FFFFFFFFFFC
FFFFFFFFFFFC
FFFFFFFFFFFC
FFFFFFFFFFFC
FFFFFFFFFFFC
FFFFFFFFFFFC
0000000FFFE0
0000000FFFE0
0000000FFFE0
0000000FFFE0
0000000FFFE0
0000000FFFE0
0000000FFFE0
0000000FFFE0
ENDCHAR
STARTCHAR 0035
ENCODING 53
SWIDTH 720 0
DWIDTH 48 0
BBX 46 44 1 0
BITMAP
FFFFFFFFFFF0
FFFFFFFFFFF0
FFFFFFFFFFF0
FFFFFFFFFFF0
FFFFFFFFFFF0
FFFFFFFFFFF0
FFFFFFFFFFF0
FFFFFFFFFFF0
FFFFFFFFFFF0
FFFFFFFFFFF0
FFFFFFFFFFF0
FFFFFFFFFFF0
FFFFFFFFFFF0
FFFE00000000
FFFE00000000
FFFE00000000
FFFFFFFFF000
FFFFFFFFFC00
FFFFFFFFFF00
FFFFFFFFFF80
FFFFFFFFFFC0
FFFFFFFFFFE0
FFFFFFFFFFF0
FFFFFFFFFFF0
FFFFFFFFFFF8
FFFFFFFFFFF8
FFFFFFFFFFFC
FFFFFFFFFFFC
00000001FFFC
00000001FFFC
00000001FFFC
FFFFFFFFFFFC
FFFFFFFFFFFC
FFFFFFFFFFFC
FFFFFFFFFFF8
FFFFFFFFFFF8
FFFFFFFFFFF0
FFFFFFFFFFF0
FFFFFFFFFFE0
FFFFFFFFFFC0
FFFFFFFFFF80
FFFFFFFFFF00
FFFFFFFFFC00
FFFFFFFFF000
ENDCHAR
STARTCHAR 0036
ENCODING 54
SWIDTH 720 0
DWIDTH 48 0
BBX 46 44 1 0
BITMAP
003FFFFFFFF0
00FFFFFFFFF0
03FFFFFFFFF0
07FFFFFFFFF0
0FFFFFFFFFF0
1FFFFFFFFFF0
3FFFFFFFFFF0
3FFFFFFFFFF0
7FFFFFFFFFF0
7FFFFFFFFFF0
FFFFFFFFFFF0
FFFFFFFFFFF0
FFFFFFFFFFF0
FFFE00000000
FFFE00000000
FFFE00000000
FFFFFFFFF000
FFFFFFFFFC00
FFFFFFFFFF00
FFFFFFFFFF80
FFFFFFFFFFC0
FFFFFFFFFFE0
FFFFFFFFFFF0
FFFFFFFFFFF0
FFFFFFFFFFF8
FFFFFFFFFFF8
FFFFFFFFFFFC
FFFFFFFFFFFC
FFFE0001FFFC
FFFE0001FFFC
FFFE0001FFFC
FFFFFFFFFFFC
FFFFFFFFFFFC
FFFFFFFFFFFC
7FFFFFFFFFF8
7FFFFFFFFFF8
3FFFFFFFFFF0
3FFFFFFFFFF0
1FFFFFFFFFE0
0FFFFFFFFFC0
07FFFFFFFF80
03FFFFFFFF00
00FFFFFFFC00
003FFFFFF000
ENDCHAR
STARTCHAR 0037
ENCODING 55
SWIDTH 735 0
DWIDTH 49 0
BBX 46 44 1 0
BITMAP
FFFFFFFFFFFC
FFFFFFFFFFF8
FFFFFFFFFFF8
FFFFFFFFFFF0
FFFFFFFFFFE0
FFFFFFFFFFE0
FFFFFFFFFFC0
FFFFFFFFFF80
FFFFFFFFFF80
FFFFFFFFFF00
FFFFFFFFFE00
FFFFFFFFFE00
FFFFFFFFFC00
00000FFFF800
00000FFFF800
00001FFFF000
00003FFFE000
00003FFFE000
00007FFFC000
0000FFFFC000
0000FFFF8000
0001FFFF0000
0003FFFF0000
0003FFFE0000
0007FFFC0000
000FFFFC0000
000FFFF80000
001FFFF00000
003FFFF00000
003FFFE00000
007FFFC00000
00FFFFC00000
00FFFF800000
01FFFF000000
03FFFF000000
03FFFE000000
07FFFC000000
0FFFFC000000
0FFFF8000000
1FFFF0000000
3FFFF0000000
3FFFE0000000
7FFFC0000000
FFFFC0000000
ENDCHAR
STARTCHAR 0038
ENCODING 56
SWIDTH 720 0
DWIDTH 48 0
BBX 46 44 1 0
BITMAP
001FFFFFE000
00FFFFFFFC00
01FFFFFFFE00
07FFFFFFFF80
0FFFFFFFFFC0
1FFFFFFFFFE0
1FFFFFFFFFE0
3FFFFFFFFFF0
3FFFFFFFFFF0
7FFFFFFFFFF8
7FFFFFFFFFF8
7FFFFFFFFFF8
7FFFFFFFFFF8
7FFF0003FFF8
7FFF0003FFF8
7FFF0003FFF8
3FFFFFFFFFF0
3FFFFFFFFFF0
1FFFFFFFFFE0
1FFFFFFFFFE0
0FFFFFFFFFC0
0FFFFFFFFFC0
1FFFFFFFFFE0
1FFFFFFFFFE0
3FFFFFFFFFF0
7FFFFFFFFFF8
7FFFFFFFFFF8
7FFFFFFFFFF8
FFFE0001FFFC
FFFE0001FFFC
FFFE0001FFFC
FFFFFFFFFFFC
FFFFFFFFFFFC
FFFFFFFFFFFC
FFFFFFFFFFFC
7FFFFFFFFFF8
7FFFFFFFFFF8
3FFFFFFFFFF0
3FFFFFFFFFE0
1FFFFFFFFFE0
0FFFFFFFFFC0
03FFFFFFFF00
01FFFFFFFE00
003FFFFFF000
ENDCHAR
STARTCHAR 0039
ENCODING 57
SWIDTH 720 0
DWIDTH 48 0
BBX 46 44 1 0
BITMAP
003FFFFFF000
00FFFFFFFC00
03FFFFFFFF00
07FFFFFFFF80
0FFFFFFFFFC0
1FFFFFFFFFE0
3FFFFFFFFFF0
3FFFFFFFFFF0
7FFFFFFFFFF8
7FFFFFFFFFF8
FFFFFFFFFFFC
FFFFFFFFFFFC
FFFFFFFFFFFC
FFFE0001FFFC
FFFE0001FFFC
FFFE0001FFFC
FFFFFFFFFFFC
FFFFFFFFFFFC
7FFFFFFFFFFC
7FFFFFFFFFFC
3FFFFFFFFFFC
3FFFFFFFFFFC
1FFFFFFFFFFC
0FFFFFFFFFFC
07FFFFFFFFFC
03FFFFFFFFFC
01FFFFFFFFFC
003FFFFFFFFC
00000001FFFC
00000001FFFC
00000001FFFC
3FFFFFFFFFFC
3FFFFFFFFFFC
3FFFFFFFFFFC
3FFFFFFFFFF8
3FFFFFFFFFF8
3FFFFFFFFFF0
3FFFFFFFFFF0
3FFFFFFFFFE0
3FFFFFFFFFC0
3FFFFFFFFF80
3FFFFFFFFF00
3FFFFFFFFC00
3FFFFFFFF000
ENDCHAR
STARTCHAR 003A
ENCODING 58
SWIDTH 195 0
DWIDTH 13 0
BBX 11 33 1 0
BITMAP
1F00
3F80
7FC0
FFE0
FFE0
FFE0
FFE0
FFE0
7FC0
3F80
1F00
0000
0000
0000
0000
0000
0000
0000
0000
0000
0000
0000
1F00
3F80
7FC0
FFE0
FFE0
FFE0
FFE0
FFE0
7FC0
3F80
1F00
ENDCHAR
STARTCHAR 003B
ENCODING 59
SWIDTH 195 0
DWIDTH 13 0
BBX 11 38 1 -6
BITMAP
1F00
3F80
7FC0
FFE0
FFE0
FFE0
FFE0
FFE0
7FC0
3F80
1F00
0000
0000
0000
0000
0000
0000
0000
0000
0000
0000
0000
1F00
3F80
7FC0
FFE0
FFE0
FFE0
FFE0
FFE0
7FE0
3FC0
1FC0
0780
0780
0700
0E00
0C00
ENDCHAR
STARTCHAR 003C
ENCODING 60
SWIDTH 285 0
DWIDTH 19 0
BBX 16 28 2 8
BITMAP
07FF
0FFE
0FFE
1FFC
1FFC
1FFC
3FF8
3FF8
7FF0
7FF0
7FF0
FFE0
FFE0
FFC0
FFC0
FFE0
FFE0
7FF0
7FF0
3FF0
3FF8
3FF8
1FFC
1FFC
1FFC
0FFE
0FFE
07FF
ENDCHAR
STARTCHAR 003D
ENCODING 61
SWIDTH 435 0
DWIDTH 29 0
BBX 27 19 1 12
BITMAP
FFFFFFE0
FFFFFFE0
FFFFFFE0
FFFFFFE0
FFFFFFE0
FFFFFFE0
FFFFFFE0
FFFFFFE0
00000000
00000000
00000000
FFFFFFE0
FFFFFFE0
FFFFFFE0
FFFFFFE0
FFFFFFE0
FFFFFFE0
FFFFFFE0
FFFFFFE0
ENDCHAR
STARTCHAR 003E
ENCODING 62
SWIDTH 285 0
DWIDTH 19 0
BBX 16 28 2 8
BITMAP
FFC0
FFE0
FFE0
7FF0
7FF0
3FF0
3FF8
3FF8
1FFC
1FFC
1FFC
0FFE
0FFE
07FF
07FF
0FFE
0FFE
1FFC
1FFC
1FFC
3FF8
3FF8
7FF0
7FF0
7FF0
FFE0
FFE0
FFC0
ENDCHAR
STARTCHAR 003F
ENCODING 63
SWIDTH 600 0
DWIDTH 40 0
BBX 38 44 1 0
BITMAP
FFFFFFF000
FFFFFFFC00
FFFFFFFF00
FFFFFFFF80
FFFFFFFFC0
FFFFFFFFE0
FFFFFFFFF0
FFFFFFFFF0
FFFFFFFFF8
FFFFFFFFF8
FFFFFFFFFC
FFFFFFFFFC
FFFFFFFFFC
000001FFFC
000001FFFC
000001FFFC
003FFFFFFC
00FFFFFFFC
03FFFFFFF8
07FFFFFFF8
0FFFFFFFF0
1FFFFFFFF0
3FFFFFFFE0
3FFFFFFFC0
7FFFFFFF80
7FFFFFFF00
7FFFFFFC00
FFFFFFF000
FFF0000000
FFE0000000
FFE0000000
FFE0000000
0000000000
1F00000000
3F80000000
7FC0000000
FFE0000000
FFE0000000
FFE0000000
FFE0000000
FFE0000000
7FC0000000
3F80000000
1F00000000
ENDCHAR
STARTCHAR 0040
ENCODING 64
SWIDTH 585 0
DWIDTH 39 0
BBX 37 37 1 3
BITMAP
0003FE0000
001FFFC000
007FFFF000
00FFFFF800
03FFFFFC00
07FE03FF00
0FF0007F00
0FE0003F80
1F80000FC0
3F000007E0
3F07FF07E0
7E07FF03F0
7C07FF01F0
7C0FFF81F0
FC0FFF81F8
F80FFF80F8
F80FDF80F8
F81FDFC0F8
F81FDFC0F8
F81FCFC0F8
F83F8FC0F8
F83FFFE1F8
FC3FFFE1F8
7C3FFFE1F0
7E7FFFE3F0
7F7F07F7F0
3F7F07F7E0
3F80000FE0
1FE0003FC0
0FF0007F80
0FFE03FF80
07FFFFFF00
03FFFFFE00
00FFFFF800
007FFFF000
001FFFC000
0003FE0000
ENDCHAR
STARTCHAR 0041
ENCODING 65
SWIDTH 780 0
DWIDTH 52 0
BBX 49 44 1 0
BITMAP
000FFFFFFC0000
001FFFFFFC0000
001FFFFFFE0000
001FFFFFFE0000
001FFFFFFE0000
003FFFFFFE0000
003FFFFFFF0000
003FFFFFFF0000
003FFFFFFF0000
007FFFFFFF0000
007FFFFFFF8000
007FFFFFFF8000
007FFFFFFF8000
00FFFFFFFF8000
00FFFFFFFFC000
00FFFFFFFFC000
01FFFF7FFFC000
01FFFF3FFFC000
01FFFF3FFFE000
01FFFF3FFFE000
03FFFE3FFFE000
03FFFE1FFFF000
03FFFE1FFFF000
03FFFC1FFFF000
07FFFC0FFFF000
07FFFC0FFFF800
07FFFC0FFFF800
07FFFFFFFFF800
0FFFFFFFFFF800
0FFFFFFFFFFC00
0FFFFFFFFFFC00
0FFFFFFFFFFC00
1FFFFFFFFFFC00
1FFFFFFFFFFE00
1FFFFFFFFFFE00
1FFFFFFFFFFE00
3FFFFFFFFFFE00
3FFFFFFFFFFF00
3FFFE001FFFF00
3FFFC001FFFF00
7FFFC000FFFF00
7FFFC000FFFF80
7FFFC000FFFF80
FFFF8000FFFF80
ENDCHAR
STARTCHAR 0042
ENCODING 66
SWIDTH 720 0
DWIDTH 48 0
BBX 46 44 1 0
BITMAP
FFFFFFFF8000
FFFFFFFFE000
FFFFFFFFF800
FFFFFFFFFE00
FFFFFFFFFF00
FFFFFFFFFF80
FFFFFFFFFFC0
FFFFFFFFFFC0
FFFFFFFFFFE0
FFFFFFFFFFE0
FFFFFFFFFFE0
FFFE001FFFF0
FFFE000FFFF0
FFFE0007FFF0
FFFE0007FFF0
FFFE0007FFF0
FFFE000FFFE0
FFFE001FFFE0
FFFFFFFFFFE0
FFFFFFFFFFC0
FFFFFFFFFFC0
FFFFFFFFFF80
FFFFFFFFFFE0
FFFFFFFFFFE0
FFFFFFFFFFF0
FFFFFFFFFFF8
FFFFFFFFFFF8
FFFE000FFFF8
FFFE0007FFFC
FFFE0003FFFC
FFFE0003FFFC
FFFE0007FFFC
FFFE000FFFFC
FFFFFFFFFFFC
FFFFFFFFFFFC
FFFFFFFFFFF8
FFFFFFFFFFF8
FFFFFFFFFFF0
FFFFFFFFFFE0
FFFFFFFFFFC0
FFFFFFFFFF80
FFFFFFFFFF00
FFFFFFFFFC00
FFFFFFFFE000
ENDCHAR
STARTCHAR 0043
ENCODING 67
SWIDTH 645 0
DWIDTH 43 0
BBX 41 44 1 0
BITMAP
00003FFFFF80
0001FFFFFF80
000FFFFFFF80
001FFFFFFF80
007FFFFFFF80
00FFFFFFFF80
01FFFFFFFF80
03FFFFFFFF80
07FFFFFFFF80
0FFFFFFFFF80
1FFFFFFFFF80
1FFFFFFFFF80
3FFFFFFFFF80
3FFFFFFFFF80
7FFFF0000000
7FFFC0000000
7FFF80000000
FFFF00000000
FFFF00000000
FFFE00000000
FFFE00000000
FFFE00000000
FFFE00000000
FFFE00000000
FFFE00000000
FFFE00000000
FFFF00000000
7FFF80000000
7FFFC0000000
7FFFF0000000
3FFFFFFFFF80
3FFFFFFFFF80
1FFFFFFFFF80
1FFFFFFFFF80
0FFFFFFFFF80
07FFFFFFFF80
03FFFFFFFF80
01FFFFFFFF80
00FFFFFFFF80
007FFFFFFF80
001FFFFFFF80
000FFFFFFF80
0001FFFFFF80
00003FFFFF80
ENDCHAR
STARTCHAR 0044
ENCODING 68
SWIDTH 720 0
DWIDTH 48 0
BBX 46 44 1 0
BITMAP
FFFFFFF00000
FFFFFFFE0000
FFFFFFFFC000
FFFFFFFFE000
FFFFFFFFF800
FFFFFFFFFC00
FFFFFFFFFE00
FFFFFFFFFF00
FFFFFFFFFF80
FFFFFFFFFFC0
FFFFFFFFFFE0
FFFFFFFFFFE0
FFFFFFFFFFF0
FFFFFFFFFFF0
FFFE003FFFF8
FFFE000FFFF8
FFFE0007FFF8
FFFE0003FFFC
FFFE0003FFFC
FFFE0001FFFC
FFFE0001FFFC
FFFE0001FFFC
FFFE0001FFFC
FFFE0001FFFC
FFFE0001FFFC
FFFE0003FFFC
FFFE0003FFFC
FFFE0007FFF8
FFFE000FFFF8
FFFE003FFFF8
FFFFFFFFFFF0
FFFFFFFFFFF0
FFFFFFFFFFE0
FFFFFFFFFFE0
FFFFFFFFFFC0
FFFFFFFFFF80
FFFFFFFFFF00
FFFFFFFFFE00
FFFFFFFFFC00
FFFFFFFFF800
FFFFFFFFE000
FFFFFFFFC000
FFFFFFFE0000
FFFFFFF00000
ENDCHAR
STARTCHAR 0045
ENCODING 69
SWIDTH 690 0
DWIDTH 46 0
BBX 43 44 1 0
BITMAP
FFFFFFFFFFE0
FFFFFFFFFFE0
FFFFFFFFFFE0
FFFFFFFFFFE0
FFFFFFFFFFE0
FFFFFFFFFFE0
FFFFFFFFFFE0
FFFFFFFFFFE0
FFFFFFFFFFE0
FFFFFFFFFFE0
FFFFFFFFFFE0
FFFFFFFFFFE0
FFFFFFFFFFE0
FFFFFFFFFFE0
FFFF00000000
FFFF00000000
FFFFFFFF0000
FFFFFFFF0000
FFFFFFFF0000
FFFFFFFF0000
FFFFFFFF0000
FFFFFFFF0000
FFFFFFFF0000
FFFFFFFF0000
FFFFFFFF0000
FFFFFFFF0000
FFFFFFFF0000
FFFFFFFF0000
FFFF00000000
FFFF00000000
FFFFFFFFFFE0
FFFFFFFFFFE0
FFFFFFFFFFE0
FFFFFFFFFFE0
FFFFFFFFFFE0
FFFFFFFFFFE0
FFFFFFFFFFE0
FFFFFFFFFFE0
FFFFFFFFFFE0
FFFFFFFFFFE0
FFFFFFFFFFE0
FFFFFFFFFFE0
FFFFFFFFFFE0
FFFFFFFFFFE0
ENDCHAR
STARTCHAR 0046
ENCODING 70
SWIDTH 690 0
DWIDTH 46 0
BBX 43 44 1 0
BITMAP
FFFFFFFFFFE0
FFFFFFFFFFE0
FFFFFFFFFFE0
FFFFFFFFFFE0
FFFFFFFFFFE0
FFFFFFFFFFE0
FFFFFFFFFFE0
FFFFFFFFFFE0
FFFFFFFFFFE0
FFFFFFFFFFE0
FFFFFFFFFFE0
FFFFFFFFFFE0
FFFFFFFFFFE0
FFFFFFFFFFE0
FFFF00000000
FFFF00000000
FFFFFFFF0000
FFFFFFFF0000
FFFFFFFF0000
FFFFFFFF0000
FFFFFFFF0000
FFFFFFFF0000
FFFFFFFF0000
FFFFFFFF0000
FFFFFFFF0000
FFFFFFFF0000
FFFFFFFF0000
FFFFFFFF0000
FFFF00000000
FFFF00000000
FFFF00000000
FFFF00000000
FFFF00000000
FFFF00000000
FFFF00000000
FFFF00000000
FFFF00000000
FFFF00000000
FFFF00000000
FFFF00000000
FFFF00000000
FFFF00000000
FFFF00000000
FFFF00000000
ENDCHAR
STARTCHAR 0047
ENCODING 71
SWIDTH 720 0
DWIDTH 48 0
BBX 46 44 1 0
BITMAP
00003FF00000
0001FFFE0000
000FFFFFC000
001FFFFFE000
007FFFFFF800
00FFFFFFFC00
01FFFFFFFC00
03FFFFFFF800
07FFFFFFF000
0FFFFFFFE000
1FFFFFFFE000
1FFFFFFFC000
3FFFFFFF8000
3FFFFFFF0000
7FFFF01E0000
7FFFC00C0000
7FFF80000000
FFFF00000000
FFFF00000000
FFFE00000000
FFFE00000000
FFFE00000000
FFFE0003FFFC
FFFE0003FFFC
FFFE0003FFFC
FFFE0003FFFC
FFFF0003FFFC
7FFF8003FFFC
7FFFC003FFFC
7FFFF003FFFC
3FFFFFFFFFFC
3FFFFFFFFFFC
1FFFFFFFFFFC
1FFFFFFFFFFC
0FFFFFFFFFFC
07FFFFFFFFFC
03FFFFFFFFFC
01FFFFFFFFFC
00FFFFFFFFFC
007FFFFFFFFC
001FFFFFFFFC
000FFFFFFFFC
0001FFFFFFFC
00003FFFFFFC
ENDCHAR
STARTCHAR 0048
ENCODING 72
SWIDTH 720 0
DWIDTH 48 0
BBX 46 44 1 0
BITMAP
FFFF0003FFFC
FFFF0003FFFC
FFFF0003FFFC
FFFF0003FFFC
FFFF0003FFFC
FFFF0003FFFC
FFFF0003FFFC
FFFF0003FFFC
FFFF0003FFFC
FFFF0003FFFC
FFFF0003FFFC
FFFF0003FFFC
FFFF0003FFFC
FFFF0003FFFC
FFFF0003FFFC
FFFF0003FFFC
FFFFFFFFFFFC
FFFFFFFFFFFC
FFFFFFFFFFFC
FFFFFFFFFFFC
FFFFFFFFFFFC
FFFFFFFFFFFC
FFFFFFFFFFFC
FFFFFFFFFFFC
FFFFFFFFFFFC
FFFFFFFFFFFC
FFFFFFFFFFFC
FFFFFFFFFFFC
FFFF0003FFFC
FFFF0003FFFC
FFFF0003FFFC
FFFF0003FFFC
FFFF0003FFFC
FFFF0003FFFC
FFFF0003FFFC
FFFF0003FFFC
FFFF0003FFFC
FFFF0003FFFC
FFFF0003FFFC
FFFF0003FFFC
FFFF0003FFFC
FFFF0003FFFC
FFFF0003FFFC
FFFF0003FFFC
ENDCHAR
STARTCHAR 0049
ENCODING 73
SWIDTH 270 0
DWIDTH 18 0
BBX 16 44 1 0
BITMAP
FFFF
FFFF
FFFF
FFFF
FFFF
FFFF
FFFF
FFFF
FFFF
FFFF
FFFF
FFFF
FFFF
FFFF
FFFF
FFFF
FFFF
FFFF
FFFF
FFFF
FFFF
FFFF
FFFF
FFFF
FFFF
FFFF
FFFF
FFFF
FFFF
FFFF
FFFF
FFFF
FFFF
FFFF
FFFF
FFFF
FFFF
FFFF
FFFF
FFFF
FFFF
FFFF
FFFF
FFFF
ENDCHAR
STARTCHAR 004A
ENCODING 74
SWIDTH 435 0
DWIDTH 29 0
BBX 26 55 2 -11
BITMAP
001FFFC0
001FFFC0
001FFFC0
001FFFC0
001FFFC0
001FFFC0
001FFFC0
001FFFC0
001FFFC0
001FFFC0
001FFFC0
001FFFC0
001FFFC0
001FFFC0
001FFFC0
001FFFC0
001FFFC0
001FFFC0
001FFFC0
001FFFC0
001FFFC0
001FFFC0
001FFFC0
001FFFC0
001FFFC0
001FFFC0
001FFFC0
001FFFC0
001FFFC0
001FFFC0
001FFFC0
001FFFC0
001FFFC0
001FFFC0
001FFFC0
001FFFC0
001FFFC0
001FFFC0
003FFFC0
007FFFC0
00FFFFC0
FFFFFFC0
FFFFFFC0
FFFFFFC0
FFFFFF80
7FFFFF80
7FFFFF80
7FFFFF00
7FFFFF00
7FFFFE00
3FFFFC00
3FFFF800
3FFFE000
3FFF8000
3FF00000
ENDCHAR
STARTCHAR 004B
ENCODING 75
SWIDTH 720 0
DWIDTH 48 0
BBX 46 44 1 0
BITMAP
FFFF003FFFFC
FFFF007FFFF8
FFFF00FFFFF0
FFFF00FFFFF0
FFFF01FFFFE0
FFFF03FFFFC0
FFFF07FFFF80
FFFF07FFFF80
FFFF0FFFFF00
FFFF1FFFFE00
FFFF1FFFFE00
FFFF3FFFFC00
FFFF7FFFF800
FFFF7FFFF800
FFFFFFFFF000
FFFFFFFFE000
FFFFFFFFE000
FFFFFFFFC000
FFFFFFFF8000
FFFFFFFF0000
FFFFFFFF0000
FFFFFFFE0000
FFFFFFFC0000
FFFFFFFE0000
FFFFFFFF0000
FFFFFFFF8000
FFFFFFFFC000
FFFFFFFFC000
FFFFFFFFE000
FFFFFFFFF000
FFFFFFFFFFFC
FFFF7FFFFFFC
FFFF3FFFFFFC
FFFF1FFFFFFC
FFFF0FFFFFFC
FFFF07FFFFFC
FFFF03FFFFFC
FFFF01FFFFFC
FFFF00FFFFFC
FFFF007FFFFC
FFFF003FFFFC
FFFF001FFFFC
FFFF0007FFFC
FFFF0001FFFC
ENDCHAR
STARTCHAR 004C
ENCODING 76
SWIDTH 645 0
DWIDTH 43 0
BBX 41 44 1 0
BITMAP
FFFF00000000
FFFF00000000
FFFF00000000
FFFF00000000
FFFF00000000
FFFF00000000
FFFF00000000
FFFF00000000
FFFF00000000
FFFF00000000
FFFF00000000
FFFF00000000
FFFF00000000
FFFF00000000
FFFF00000000
FFFF00000000
FFFF00000000
FFFF00000000
FFFF00000000
FFFF00000000
FFFF00000000
FFFF00000000
FFFF00000000
FFFF00000000
FFFF00000000
FFFF00000000
FFFF00000000
FFFF00000000
FFFF00000000
FFFF00000000
FFFFFFFFFF80
FFFFFFFFFF80
FFFFFFFFFF80
FFFFFFFFFF80
FFFFFFFFFF80
FFFFFFFFFF80
FFFFFFFFFF80
FFFFFFFFFF80
FFFFFFFFFF80
FFFFFFFFFF80
FFFFFFFFFF80
FFFFFFFFFF80
FFFFFFFFFF80
FFFFFFFFFF80
ENDCHAR
STARTCHAR 004D
ENCODING 77
SWIDTH 810 0
DWIDTH 54 0
BBX 52 44 1 0
BITMAP
FFFF00000FFFF0
FFFF80001FFFF0
FFFFC0003FFFF0
FFFFE0007FFFF0
FFFFE0007FFFF0
FFFFF000FFFFF0
FFFFF801FFFFF0
FFFFF801FFFFF0
FFFFFC03FFFFF0
FFFFFE07FFFFF0
FFFFFF0FFFFFF0
FFFFFF0FFFFFF0
FFFFFF9FFFFFF0
FFFFFFFFFFFFF0
FFFFFFFFFFFFF0
FFFFFFFFFFFFF0
FFFFFFFFFFFFF0
FFFFFFFFFFFFF0
FFFFFFFFFFFFF0
FFFFFFFFFFFFF0
FFFFFFFFFFFFF0
FFFFFFFFFFFFF0
FFFFFFFFFFFFF0
FFFFFFFFFFFFF0
FFFFFFFFFFFFF0
FFFFFFFFFFFFF0
FFFFFFFFFFFFF0
FFFFFFFFFFFFF0
FFFFFFFFFFFFF0
FFFFFFFFFFFFF0
FFFFFFFFFFFFF0
FFFF7FFFEFFFF0
FFFF3FFFCFFFF0
FFFF3FFFCFFFF0
FFFF1FFF8FFFF0
FFFF0FFF0FFFF0
FFFF07FE0FFFF0
FFFF07FE0FFFF0
FFFF03FC0FFFF0
FFFF01F80FFFF0
FFFF01F80FFFF0
FFFF00F00FFFF0
FFFF00600FFFF0
FFFF00000FFFF0
ENDCHAR
STARTCHAR 004E
ENCODING 78
SWIDTH 735 0
DWIDTH 49 0
BBX 47 44 1 0
BITMAP
FE000003FFFE
FFF00003FFFE
FFFE0003FFFE
FFFFC003FFFE
FFFFF003FFFE
FFFFF803FFFE
FFFFFE03FFFE
FFFFFF03FFFE
FFFFFF83FFFE
FFFFFFC3FFFE
FFFFFFE3FFFE
FFFFFFF3FFFE
FFFFFFFBFFFE
FFFFFFFFFFFE
FFFFFFFFFFFE
FFFFFFFFFFFE
FFFFFFFFFFFE
FFFFFFFFFFFE
FFFFFFFFFFFE
FFFFFFFFFFFE
FFFFFFFFFFFE
FFFFFFFFFFFE
FFFFFFFFFFFE
FFFFFFFFFFFE
FFFFFFFFFFFE
FFFF1FFFFFFE
FFFF03FFFFFE
FFFF01FFFFFE
FFFF00FFFFFE
FFFF007FFFFE
FFFF003FFFFE
FFFF001FFFFE
FFFF001FFFFE
FFFF000FFFFE
FFFF000FFFFE
FFFF0007FFFE
FFFF0007FFFE
FFFF0007FFFE
FFFF0007FFFE
FFFF0003FFFE
FFFF0003FFFE
FFFF0003FFFE
FFFF0003FFFE
FFFF0003FFFE
ENDCHAR
STARTCHAR 004F
ENCODING 79
SWIDTH 720 0
DWIDTH 48 0
BBX 46 44 1 0
BITMAP
00003FF00000
0001FFFE0000
000FFFFFC000
001FFFFFE000
007FFFFFF800
00FFFFFFFC00
01FFFFFFFE00
03FFFFFFFF00
07FFFFFFFF80
0FFFFFFFFFC0
1FFFFFFFFFE0
1FFFFFFFFFE0
3FFFFFFFFFF0
3FFFFFFFFFF0
7FFFF03FFFF8
7FFFC00FFFF8
7FFF8007FFF8
FFFF0003FFFC
FFFF0003FFFC
FFFE0001FFFC
FFFE0001FFFC
FFFE0001FFFC
FFFE0001FFFC
FFFE0001FFFC
FFFE0001FFFC
FFFE0003FFFC
FFFF0003FFFC
7FFF8007FFF8
7FFFC00FFFF8
7FFFF03FFFF8
3FFFFFFFFFF0
3FFFFFFFFFF0
1FFFFFFFFFE0
1FFFFFFFFFE0
0FFFFFFFFFC0
07FFFFFFFF80
03FFFFFFFF00
01FFFFFFFE00
00FFFFFFFC00
007FFFFFF800
001FFFFFE000
000FFFFFC000
0001FFFE0000
00003FF00000
ENDCHAR
STARTCHAR 0050
ENCODING 80
SWIDTH 720 0
DWIDTH 48 0
BBX 46 44 1 0
BITMAP
FFFFFFFFC000
FFFFFFFFF800
FFFFFFFFFE00
FFFFFFFFFF00
FFFFFFFFFF80
FFFFFFFFFFC0
FFFFFFFFFFE0
FFFFFFFFFFF0
FFFFFFFFFFF0
FFFFFFFFFFF8
FFFFFFFFFFF8
FFFFFFFFFFF8
FFFFFFFFFFFC
FFFFFFFFFFFC
00000007FFFC
00000007FFFC
00000003FFFC
00000003FFFC
00000003FFFC
00000007FFF8
0000000FFFF8
FFFFFFFFFFF8
FFFFFFFFFFF0
FFFFFFFFFFF0
FFFFFFFFFFE0
FFFFFFFFFFC0
FFFFFFFFFF80
FFFFFFFFFF00
FFFFFFFFFE00
FFFFFFFFF800
FFFFFFFFE000
FFFF00000000
FFFF00000000
FFFF00000000
FFFF00000000
FFFF00000000
FFFF00000000
FFFF00000000
FFFF00000000
FFFF00000000
FFFF00000000
FFFF00000000
FFFF00000000
FFFF00000000
ENDCHAR
STARTCHAR 0051
ENCODING 81
SWIDTH 765 0
DWIDTH 51 0
BBX 49 44 1 0
BITMAP
00003FF0000000
0001FFFE000000
000FFFFFC00000
001FFFFFE00000
007FFFFFF80000
00FFFFFFFC0000
01FFFFFFFE0000
03FFFFFFFF0000
07FFFFFFFF8000
0FFFFFFFFFC000
1FFFFFFFFFE000
1FFFFFFFFFE000
3FFFFFFFFFF000
3FFFFFFFFFF000
7FFFF03FFFF800
7FFFC00FFFF800
7FFF8007FFF800
FFFF0003FFFC00
FFFF0003FFFC00
FFFE0001FFFC00
FFFE0001FFFC00
FFFE0001FFFC00
FFFE0001FFFC00
FFFE0001FFFC00
FFFE0001FFFC00
FFFE0003FFFC00
FFFF0003FFFC00
7FFF8007FFF800
7FFFC00FFFF800
7FFFF03FFFF800
3FFFFFFFFFFF80
3FFFFFFFFFFF80
1FFFFFFFFFFF80
1FFFFFFFFFFF80
0FFFFFFFFFFF80
07FFFFFFFFFF80
03FFFFFFFFFF80
01FFFFFFFFFF80
00FFFFFFFFFF80
007FFFFFFFFF80
001FFFFFFFFF80
000FFFFFFFFF80
0001FFFFFFFF80
00003FFFFFFF80
ENDCHAR
STARTCHAR 0052
ENCODING 82
SWIDTH 765 0
DWIDTH 51 0
BBX 49 44 1 0
BITMAP
FFFFFFFFE00000
FFFFFFFFF80000
FFFFFFFFFE0000
FFFFFFFFFF0000
FFFFFFFFFFC000
FFFFFFFFFFC000
FFFFFFFFFFE000
FFFFFFFFFFF000
FFFFFFFFFFF000
FFFFFFFFFFF800
FFFFFFFFFFF800
FFFFFFFFFFFC00
FFFFFFFFFFFC00
FFFFFFFFFFFC00
00000007FFFC00
00000003FFFC00
00000003FFFC00
00000003FFFC00
00000007FFFC00
0000000FFFF800
FFFFFFFFFFF800
FFFFFFFFFFF000
FFFFFFFFFFF000
FFFFFFFFFFE000
FFFFFFFFFFC000
FFFFFFFFFF8000
FFFFFFFFFF0000
FFFFFFFFFE0000
FFFFFFFFF80000
FFFFFFFFFC0000
FFFFFFFFFFFF80
FFFF7FFFFFFF80
FFFF3FFFFFFF80
FFFF1FFFFFFF80
FFFF0FFFFFFF80
FFFF07FFFFFF80
FFFF03FFFFFF80
FFFF01FFFFFF80
FFFF00FFFFFF80
FFFF007FFFFF80
FFFF003FFFFF80
FFFF001FFFFF80
FFFF0007FFFF80
FFFF0000FFFF80
ENDCHAR
STARTCHAR 0053
ENCODING 83
SWIDTH 705 0
DWIDTH 47 0
BBX 43 44 2 0
BITMAP
0001FFFFFFE0
0007FFFFFFE0
001FFFFFFFE0
003FFFFFFFE0
007FFFFFFFE0
00FFFFFFFFE0
01FFFFFFFFE0
03FFFFFFFFE0
03FFFFFFFFE0
03FFFFFFFFE0
07FFFFFFFFE0
07FFFFFFFFE0
07FFFFFFFFE0
07FFFFFFFFE0
07FFFF800000
07FFFF800000
07FFFFE00000
07FFFFF00000
03FFFFF80000
03FFFFFC0000
01FFFFFF0000
00FFFFFF8000
007FFFFFC000
003FFFFFE000
001FFFFFF000
0007FFFFF800
0003FFFFF800
0001FFFFF800
00007FFFFC00
00007FFFFC00
FFFFFFFFFC00
FFFFFFFFFC00
FFFFFFFFFC00
FFFFFFFFFC00
FFFFFFFFFC00
FFFFFFFFF800
FFFFFFFFF800
FFFFFFFFF000
FFFFFFFFF000
FFFFFFFFE000
FFFFFFFFC000
FFFFFFFF0000
FFFFFFFE0000
FFFFFFF00000
ENDCHAR
STARTCHAR 0054
ENCODING 84
SWIDTH 720 0
DWIDTH 48 0
BBX 46 44 1 0
BITMAP
FFFFFFFFFFFC
FFFFFFFFFFFC
FFFFFFFFFFFC
FFFFFFFFFFFC
FFFFFFFFFFFC
FFFFFFFFFFFC
FFFFFFFFFFFC
FFFFFFFFFFFC
FFFFFFFFFFFC
FFFFFFFFFFFC
FFFFFFFFFFFC
FFFFFFFFFFFC
FFFFFFFFFFFC
FFFFFFFFFFFC
0001FFFE0000
0001FFFE0000
0001FFFE0000
0001FFFE0000
0001FFFE0000
0001FFFE0000
0001FFFE0000
0001FFFE0000
0001FFFE0000
0001FFFE0000
0001FFFE0000
0001FFFE0000
0001FFFE0000
0001FFFE0000
0001FFFE0000
0001FFFE0000
0001FFFE0000
0001FFFE0000
0001FFFE0000
0001FFFE0000
0001FFFE0000
0001FFFE0000
0001FFFE0000
0001FFFE0000
0001FFFE0000
0001FFFE0000
0001FFFE0000
0001FFFE0000
0001FFFE0000
0001FFFE0000
ENDCHAR
STARTCHAR 0055
ENCODING 85
SWIDTH 720 0
DWIDTH 48 0
BBX 46 44 1 0
BITMAP
FFFE0001FFFC
FFFE0001FFFC
FFFE0001FFFC
FFFE0001FFFC
FFFE0001FFFC
FFFE0001FFFC
FFFE0001FFFC
FFFE0001FFFC
FFFE0001FFFC
FFFE0001FFFC
FFFE0001FFFC
FFFE0001FFFC
FFFE0001FFFC
FFFE0001FFFC
FFFE0001FFFC
FFFE0001FFFC
FFFE0001FFFC
FFFE0001FFFC
FFFE0001FFFC
FFFE0001FFFC
FFFE0001FFFC
FFFE0001FFFC
FFFE0001FFFC
FFFE0001FFFC
FFFE0001FFFC
FFFE0003FFFC
FFFF0003FFFC
7FFF8007FFF8
7FFFC00FFFF8
7FFFF03FFFF8
3FFFFFFFFFF0
3FFFFFFFFFF0
1FFFFFFFFFE0
1FFFFFFFFFE0
0FFFFFFFFFC0
07FFFFFFFF80
03FFFFFFFF00
01FFFFFFFE00
00FFFFFFFC00
007FFFFFF800
001FFFFFE000
000FFFFFC000
0001FFFE0000
00003FF00000
ENDCHAR
STARTCHAR 0056
ENCODING 86
SWIDTH 780 0
DWIDTH 52 0
BBX 49 44 1 0
BITMAP
FFFF8000FFFF80
7FFFC000FFFF80
7FFFC000FFFF80
7FFFC000FFFF00
3FFFC001FFFF00
3FFFE001FFFF00
3FFFE001FFFF00
3FFFE001FFFE00
1FFFE003FFFE00
1FFFF003FFFE00
1FFFF003FFFE00
1FFFF007FFFC00
0FFFF007FFFC00
0FFFF807FFFC00
0FFFF807FFFC00
0FFFF80FFFF800
07FFFC0FFFF800
07FFFC0FFFF800
07FFFC0FFFF800
07FFFC1FFFF000
03FFFE1FFFF000
03FFFE1FFFF000
03FFFE1FFFF000
03FFFE3FFFE000
01FFFF3FFFE000
01FFFF3FFFE000
01FFFF3FFFE000
00FFFF7FFFC000
00FFFFFFFFC000
00FFFFFFFFC000
00FFFFFFFF8000
007FFFFFFF8000
007FFFFFFF8000
007FFFFFFF8000
007FFFFFFF0000
003FFFFFFF0000
003FFFFFFF0000
003FFFFFFF0000
003FFFFFFE0000
001FFFFFFE0000
001FFFFFFE0000
001FFFFFFE0000
001FFFFFFC0000
000FFFFFFC0000
ENDCHAR
STARTCHAR 0057
ENCODING 87
SWIDTH 1050 0
DWIDTH 70 0
BBX 68 44 1 0
BITMAP
FFFF807FFFF01FFFF0
7FFFC0FFFFF01FFFF0
7FFFC0FFFFF03FFFE0
7FFFC0FFFFF03FFFE0
3FFFC0FFFFF83FFFE0
3FFFE1FFFFF83FFFC0
3FFFE1FFFFF87FFFC0
3FFFE1FFFFF87FFFC0
1FFFE1FFFFFC7FFFC0
1FFFF3FFFFFC7FFF80
1FFFF3FFFFFCFFFF80
1FFFF3FFFFFCFFFF80
0FFFF3FFFFFEFFFF80
0FFFFFFFFFFFFFFF00
0FFFFFFFFFFFFFFF00
0FFFFFFFFFFFFFFF00
07FFFFFFFFFFFFFF00
07FFFFFFFFFFFFFE00
07FFFFFFFFFFFFFE00
07FFFFFFFFFFFFFE00
03FFFFFFFFFFFFFE00
03FFFFFFFFFFFFFC00
03FFFFFFFFFFFFFC00
03FFFFFFFFFFFFFC00
01FFFFFFFFFFFFFC00
01FFFFFFFFFFFFF800
01FFFFFFFFFFFFF800
00FFFFFFFFFFFFF800
00FFFFFFFFFFFFF000
00FFFFFFFFFFFFF000
00FFFFFFFFFFFFF000
007FFFFFDFFFFFF000
007FFFFF9FFFFFE000
007FFFFF9FFFFFE000
007FFFFF9FFFFFE000
003FFFFF8FFFFFE000
003FFFFF0FFFFFC000
003FFFFF0FFFFFC000
003FFFFF07FFFFC000
001FFFFE07FFFFC000
001FFFFE07FFFF8000
001FFFFE07FFFF8000
001FFFFE03FFFF8000
000FFFFC03FFFF8000
ENDCHAR
STARTCHAR 0058
ENCODING 88
SWIDTH 855 0
DWIDTH 57 0
BBX 53 44 2 0
BITMAP
FFFFF0007FFFF8
7FFFF800FFFFF8
7FFFF800FFFFF0
3FFFFC01FFFFE0
1FFFFE03FFFFC0
0FFFFF07FFFFC0
0FFFFF87FFFF80
07FFFF8FFFFF00
03FFFFDFFFFE00
01FFFFFFFFFC00
00FFFFFFFFFC00
00FFFFFFFFF800
007FFFFFFFF000
003FFFFFFFE000
001FFFFFFFE000
001FFFFFFFC000
000FFFFFFF8000
0007FFFFFF0000
0003FFFFFE0000
0001FFFFFE0000
0001FFFFFC0000
0000FFFFF80000
0000FFFFF80000
0001FFFFFC0000
0001FFFFFE0000
0003FFFFFE0000
0007FFFFFF0000
000FFFFFFF8000
001FFFFFFFC000
001FFFFFFFC000
003FFFFFFFE000
007FFFFFFFF000
00FFFFFFFFF800
00FFFFFFFFFC00
01FFFFFFFFFC00
03FFFFDFFFFE00
07FFFF8FFFFF00
0FFFFF87FFFF80
0FFFFF07FFFFC0
1FFFFE03FFFFC0
3FFFFC01FFFFE0
7FFFF800FFFFF0
7FFFF800FFFFF8
FFFFF0007FFFF8
ENDCHAR
STARTCHAR 0059
ENCODING 89
SWIDTH 810 0
DWIDTH 54 0
BBX 50 44 2 0
BITMAP
FFFFC000FFFFC0
FFFFE001FFFFC0
7FFFE001FFFF80
3FFFF003FFFF00
3FFFF007FFFF00
1FFFF807FFFE00
1FFFFC0FFFFE00
0FFFFC0FFFFC00
0FFFFE1FFFFC00
07FFFE1FFFF800
03FFFF3FFFF000
03FFFF3FFFF000
01FFFFFFFFE000
01FFFFFFFFE000
00FFFFFFFFC000
007FFFFFFFC000
007FFFFFFF8000
003FFFFFFF0000
003FFFFFFF0000
001FFFFFFE0000
001FFFFFFE0000
000FFFFFFC0000
0007FFFFF80000
0007FFFFF80000
0003FFFFF00000
0003FFFFF00000
0001FFFFE00000
0001FFFFE00000
0000FFFFC00000
00007FFF800000
00007FFF800000
00007FFF800000
00007FFF800000
00007FFF800000
00007FFF800000
00007FFF800000
00007FFF800000
00007FFF800000
00007FFF800000
00007FFF800000
00007FFF800000
00007FFF800000
00007FFF800000
00007FFF800000
ENDCHAR
STARTCHAR 005A
ENCODING 90
SWIDTH 720 0
DWIDTH 48 0
BBX 46 44 1 0
BITMAP
FFFFFFFFFFFC
FFFFFFFFFFF8
FFFFFFFFFFF0
FFFFFFFFFFF0
FFFFFFFFFFE0
FFFFFFFFFFC0
FFFFFFFFFFC0
FFFFFFFFFF80
FFFFFFFFFF00
FFFFFFFFFF00
FFFFFFFFFE00
FFFFFFFFFE00
FFFFFFFFFC00
FFFFFFFFF800
00001FFFF800
00001FFFF000
00003FFFE000
00007FFFE000
00007FFFC000
0000FFFF8000
0001FFFF8000
0001FFFF0000
0003FFFE0000
0007FFFE0000
0007FFFC0000
000FFFF80000
001FFFF80000
001FFFF00000
003FFFE00000
007FFFE00000
007FFFFFFFFC
00FFFFFFFFFC
01FFFFFFFFFC
01FFFFFFFFFC
03FFFFFFFFFC
03FFFFFFFFFC
07FFFFFFFFFC
0FFFFFFFFFFC
0FFFFFFFFFFC
1FFFFFFFFFFC
3FFFFFFFFFFC
3FFFFFFFFFFC
7FFFFFFFFFFC
FFFFFFFFFFFC
ENDCHAR
STARTCHAR 005B
ENCODING 91
SWIDTH 285 0
DWIDTH 19 0
BBX 16 55 1 -5
BITMAP
FFFF
FFFF
FFFF
FFFF
FFFF
FFFF
FFFF
FFFF
FFFF
FFFF
FFFF
FFE0
FFE0
FFE0
FFE0
FFE0
FFE0
FFE0
FFE0
FFE0
FFE0
FFE0
FFE0
FFE0
FFE0
FFE0
FFE0
FFE0
FFE0
FFE0
FFE0
FFE0
FFE0
FFE0
FFE0
FFE0
FFE0
FFE0
FFE0
FFE0
FFE0
FFE0
FFE0
FFE0
FFFF
FFFF
FFFF
FFFF
FFFF
FFFF
FFFF
FFFF
FFFF
FFFF
FFFF
ENDCHAR
STARTCHAR 005C
ENCODING 92
SWIDTH 435 0
DWIDTH 29 0
BBX 29 54 0 -5
BITMAP
01E00000
0FE00000
7FE00000
FFF00000
7FF00000
7FF00000
7FF80000
3FF80000
3FFC0000
3FFC0000
1FFC0000
1FFE0000
1FFE0000
0FFE0000
0FFF0000
0FFF0000
07FF0000
07FF8000
03FF8000
03FFC000
03FFC000
01FFC000
01FFE000
01FFE000
00FFE000
00FFF000
00FFF000
007FF000
007FF800
003FF800
003FF800
003FFC00
001FFC00
001FFE00
001FFE00
000FFE00
000FFF00
000FFF00
0007FF00
0007FF80
0003FF80
0003FF80
0003FFC0
0001FFC0
0001FFE0
0001FFE0
0000FFE0
0000FFF0
0000FFF0
00007FF0
00007FF8
00007FE0
00003F80
00003C00
ENDCHAR
STARTCHAR 005D
ENCODING 93
SWIDTH 285 0
DWIDTH 19 0
BBX 16 55 2 -5
BITMAP
FFFF
FFFF
FFFF
FFFF
FFFF
FFFF
FFFF
FFFF
FFFF
FFFF
FFFF
07FF
07FF
07FF
07FF
07FF
07FF
07FF
07FF
07FF
07FF
07FF
07FF
07FF
07FF
07FF
07FF
07FF
07FF
07FF
07FF
07FF
07FF
07FF
07FF
07FF
07FF
07FF
07FF
07FF
07FF
07FF
07FF
07FF
FFFF
FFFF
FFFF
FFFF
FFFF
FFFF
FFFF
FFFF
FFFF
FFFF
FFFF
ENDCHAR
STARTCHAR 005E
ENCODING 94
SWIDTH 465 0
DWIDTH 31 0
BBX 27 19 2 25
BITMAP
003F8000
007FC000
007FC000
00FFE000
00FFE000
01FFF000
01FBF800
03F9F800
07F1FC00
07E0FC00
0FE0FE00
0FC07E00
1FC07F00
3F803F80
3F001F80
7F001FC0
7E000FC0
FE000FE0
FC0007E0
ENDCHAR
STARTCHAR 005F
ENCODING 95
SWIDTH 330 0
DWIDTH 22 0
BBX 22 8 0 0
BITMAP
FFFFFC
FFFFFC
FFFFFC
FFFFFC
FFFFFC
FFFFFC
FFFFFC
FFFFFC
ENDCHAR
STARTCHAR 0060
ENCODING 96
SWIDTH 405 0
DWIDTH 27 0
BBX 25 8 1 46
BITMAP
06000000
0FC00000
1FF80000
3FFE0000
7FFFC000
FFFFF800
007FFE00
00003F80
ENDCHAR
STARTCHAR 0061
ENCODING 97
SWIDTH 780 0
DWIDTH 52 0
BBX 49 44 1 0
BITMAP
000FFFFFFC0000
001FFFFFFC0000
001FFFFFFE0000
001FFFFFFE0000
001FFFFFFE0000
003FFFFFFE0000
003FFFFFFF0000
003FFFFFFF0000
003FFFFFFF0000
007FFFFFFF0000
007FFFFFFF8000
007FFFFFFF8000
007FFFFFFF8000
00FFFFFFFF8000
00FFFFFFFFC000
00FFFFFFFFC000
01FFFF7FFFC000
01FFFF3FFFC000
01FFFF3FFFE000
01FFFF3FFFE000
03FFFE3FFFE000
03FFFE1FFFF000
03FFFE1FFFF000
03FFFC1FFFF000
07FFFC0FFFF000
07FFFC0FFFF800
07FFFC0FFFF800
07FFFFFFFFF800
0FFFFFFFFFF800
0FFFFFFFFFFC00
0FFFFFFFFFFC00
0FFFFFFFFFFC00
1FFFFFFFFFFC00
1FFFFFFFFFFE00
1FFFFFFFFFFE00
1FFFFFFFFFFE00
3FFFFFFFFFFE00
3FFFFFFFFFFF00
3FFFE001FFFF00
3FFFC001FFFF00
7FFFC000FFFF00
7FFFC000FFFF80
7FFFC000FFFF80
FFFF8000FFFF80
ENDCHAR
STARTCHAR 0062
ENCODING 98
SWIDTH 720 0
DWIDTH 48 0
BBX 46 44 1 0
BITMAP
FFFFFFFF8000
FFFFFFFFE000
FFFFFFFFF800
FFFFFFFFFE00
FFFFFFFFFF00
FFFFFFFFFF80
FFFFFFFFFFC0
FFFFFFFFFFC0
FFFFFFFFFFE0
FFFFFFFFFFE0
FFFFFFFFFFE0
FFFE001FFFF0
FFFE000FFFF0
FFFE0007FFF0
FFFE0007FFF0
FFFE0007FFF0
FFFE000FFFE0
FFFE001FFFE0
FFFFFFFFFFE0
FFFFFFFFFFC0
FFFFFFFFFFC0
FFFFFFFFFF80
FFFFFFFFFFE0
FFFFFFFFFFE0
FFFFFFFFFFF0
FFFFFFFFFFF8
FFFFFFFFFFF8
FFFE000FFFF8
FFFE0007FFFC
FFFE0003FFFC
FFFE0003FFFC
FFFE0007FFFC
FFFE000FFFFC
FFFFFFFFFFFC
FFFFFFFFFFFC
FFFFFFFFFFF8
FFFFFFFFFFF8
FFFFFFFFFFF0
FFFFFFFFFFE0
FFFFFFFFFFC0
FFFFFFFFFF80
FFFFFFFFFF00
FFFFFFFFFC00
FFFFFFFFE000
ENDCHAR
STARTCHAR 0063
ENCODING 99
SWIDTH 645 0
DWIDTH 43 0
BBX 41 44 1 0
BITMAP
00003FFFFF80
0001FFFFFF80
000FFFFFFF80
001FFFFFFF80
007FFFFFFF80
00FFFFFFFF80
01FFFFFFFF80
03FFFFFFFF80
07FFFFFFFF80
0FFFFFFFFF80
1FFFFFFFFF80
1FFFFFFFFF80
3FFFFFFFFF80
3FFFFFFFFF80
7FFFF0000000
7FFFC0000000
7FFF80000000
FFFF00000000
FFFF00000000
FFFE00000000
FFFE00000000
FFFE00000000
FFFE00000000
FFFE00000000
FFFE00000000
FFFE00000000
FFFF00000000
7FFF80000000
7FFFC0000000
7FFFF0000000
3FFFFFFFFF80
3FFFFFFFFF80
1FFFFFFFFF80
1FFFFFFFFF80
0FFFFFFFFF80
07FFFFFFFF80
03FFFFFFFF80
01FFFFFFFF80
00FFFFFFFF80
007FFFFFFF80
001FFFFFFF80
000FFFFFFF80
0001FFFFFF80
00003FFFFF80
ENDCHAR
STARTCHAR 0064
ENCODING 100
SWIDTH 720 0
DWIDTH 48 0
BBX 46 44 1 0
BITMAP
FFFFFFF00000
FFFFFFFE0000
FFFFFFFFC000
FFFFFFFFE000
FFFFFFFFF800
FFFFFFFFFC00
FFFFFFFFFE00
FFFFFFFFFF00
FFFFFFFFFF80
FFFFFFFFFFC0
FFFFFFFFFFE0
FFFFFFFFFFE0
FFFFFFFFFFF0
FFFFFFFFFFF0
FFFE003FFFF8
FFFE000FFFF8
FFFE0007FFF8
FFFE0003FFFC
FFFE0003FFFC
FFFE0001FFFC
FFFE0001FFFC
FFFE0001FFFC
FFFE0001FFFC
FFFE0001FFFC
FFFE0001FFFC
FFFE0003FFFC
FFFE0003FFFC
FFFE0007FFF8
FFFE000FFFF8
FFFE003FFFF8
FFFFFFFFFFF0
FFFFFFFFFFF0
FFFFFFFFFFE0
FFFFFFFFFFE0
FFFFFFFFFFC0
FFFFFFFFFF80
FFFFFFFFFF00
FFFFFFFFFE00
FFFFFFFFFC00
FFFFFFFFF800
FFFFFFFFE000
FFFFFFFFC000
FFFFFFFE0000
FFFFFFF00000
ENDCHAR
STARTCHAR 0065
ENCODING 101
SWIDTH 690 0
DWIDTH 46 0
BBX 43 44 1 0
BITMAP
FFFFFFFFFFE0
FFFFFFFFFFE0
FFFFFFFFFFE0
FFFFFFFFFFE0
FFFFFFFFFFE0
FFFFFFFFFFE0
FFFFFFFFFFE0
FFFFFFFFFFE0
FFFFFFFFFFE0
FFFFFFFFFFE0
FFFFFFFFFFE0
FFFFFFFFFFE0
FFFFFFFFFFE0
FFFFFFFFFFE0
FFFF00000000
FFFF00000000
FFFFFFFF0000
FFFFFFFF0000
FFFFFFFF0000
FFFFFFFF0000
FFFFFFFF0000
FFFFFFFF0000
FFFFFFFF0000
FFFFFFFF0000
FFFFFFFF0000
FFFFFFFF0000
FFFFFFFF0000
FFFFFFFF0000
FFFF00000000
FFFF00000000
FFFFFFFFFFE0
FFFFFFFFFFE0
FFFFFFFFFFE0
FFFFFFFFFFE0
FFFFFFFFFFE0
FFFFFFFFFFE0
FFFFFFFFFFE0
FFFFFFFFFFE0
FFFFFFFFFFE0
FFFFFFFFFFE0
FFFFFFFFFFE0
FFFFFFFFFFE0
FFFFFFFFFFE0
FFFFFFFFFFE0
ENDCHAR
STARTCHAR 0066
ENCODING 102
SWIDTH 690 0
DWIDTH 46 0
BBX 43 44 1 0
BITMAP
FFFFFFFFFFE0
FFFFFFFFFFE0
FFFFFFFFFFE0
FFFFFFFFFFE0
FFFFFFFFFFE0
FFFFFFFFFFE0
FFFFFFFFFFE0
FFFFFFFFFFE0
FFFFFFFFFFE0
FFFFFFFFFFE0
FFFFFFFFFFE0
FFFFFFFFFFE0
FFFFFFFFFFE0
FFFFFFFFFFE0
FFFF00000000
FFFF00000000
FFFFFFFF0000
FFFFFFFF0000
FFFFFFFF0000
FFFFFFFF0000
FFFFFFFF0000
FFFFFFFF0000
FFFFFFFF0000
FFFFFFFF0000
FFFFFFFF0000
FFFFFFFF0000
FFFFFFFF0000
FFFFFFFF0000
FFFF00000000
FFFF00000000
FFFF00000000
FFFF00000000
FFFF00000000
FFFF00000000
FFFF00000000
FFFF00000000
FFFF00000000
FFFF00000000
FFFF00000000
FFFF00000000
FFFF00000000
FFFF00000000
FFFF00000000
FFFF00000000
ENDCHAR
STARTCHAR 0067
ENCODING 103
SWIDTH 720 0
DWIDTH 48 0
BBX 46 44 1 0
BITMAP
00003FFFFFFC
0001FFFFFFFC
000FFFFFFFFC
001FFFFFFFFC
007FFFFFFFFC
00FFFFFFFFFC
01FFFFFFFFFC
03FFFFFFFFFC
07FFFFFFFFFC
0FFFFFFFFFFC
1FFFFFFFFFFC
1FFFFFFFFFFC
3FFFFFFFFFFC
3FFFFFFFFFFC
7FFFF0000000
7FFFC0000000
7FFF80000000
FFFF00000000
FFFF00000000
FFFE00000000
FFFE00000000
FFFE00000000
FFFE0003FFFC
FFFE0003FFFC
FFFE0003FFFC
FFFE0003FFFC
FFFF0003FFFC
7FFF8003FFFC
7FFFC003FFFC
7FFFF003FFFC
3FFFFFFFFFFC
3FFFFFFFFFFC
1FFFFFFFFFFC
1FFFFFFFFFFC
0FFFFFFFFFFC
07FFFFFFFFFC
03FFFFFFFFFC
01FFFFFFFFFC
00FFFFFFFFFC
007FFFFFFFFC
001FFFFFFFFC
000FFFFFFFFC
0001FFFFFFFC
00003FFFFFFC
ENDCHAR
STARTCHAR 0068
ENCODING 104
SWIDTH 720 0
DWIDTH 48 0
BBX 46 44 1 0
BITMAP
FFFF0003FFFC
FFFF0003FFFC
FFFF0003FFFC
FFFF0003FFFC
FFFF0003FFFC
FFFF0003FFFC
FFFF0003FFFC
FFFF0003FFFC
FFFF0003FFFC
FFFF0003FFFC
FFFF0003FFFC
FFFF0003FFFC
FFFF0003FFFC
FFFF0003FFFC
FFFF0003FFFC
FFFF0003FFFC
FFFFFFFFFFFC
FFFFFFFFFFFC
FFFFFFFFFFFC
FFFFFFFFFFFC
FFFFFFFFFFFC
FFFFFFFFFFFC
FFFFFFFFFFFC
FFFFFFFFFFFC
FFFFFFFFFFFC
FFFFFFFFFFFC
FFFFFFFFFFFC
FFFFFFFFFFFC
FFFF0003FFFC
FFFF0003FFFC
FFFF0003FFFC
FFFF0003FFFC
FFFF0003FFFC
FFFF0003FFFC
FFFF0003FFFC
FFFF0003FFFC
FFFF0003FFFC
FFFF0003FFFC
FFFF0003FFFC
FFFF0003FFFC
FFFF0003FFFC
FFFF0003FFFC
FFFF0003FFFC
FFFF0003FFFC
ENDCHAR
STARTCHAR 0069
ENCODING 105
SWIDTH 270 0
DWIDTH 18 0
BBX 16 44 1 0
BITMAP
FFFF
FFFF
FFFF
FFFF
FFFF
FFFF
FFFF
FFFF
FFFF
FFFF
FFFF
FFFF
FFFF
FFFF
FFFF
FFFF
FFFF
FFFF
FFFF
FFFF
FFFF
FFFF
FFFF
FFFF
FFFF
FFFF
FFFF
FFFF
FFFF
FFFF
FFFF
FFFF
FFFF
FFFF
FFFF
FFFF
FFFF
FFFF
FFFF
FFFF
FFFF
FFFF
FFFF
FFFF
ENDCHAR
STARTCHAR 006A
ENCODING 106
SWIDTH 435 0
DWIDTH 29 0
BBX 26 55 2 -11
BITMAP
001FFFC0
001FFFC0
001FFFC0
001FFFC0
001FFFC0
001FFFC0
001FFFC0
001FFFC0
001FFFC0
001FFFC0
001FFFC0
001FFFC0
001FFFC0
001FFFC0
001FFFC0
001FFFC0
001FFFC0
001FFFC0
001FFFC0
001FFFC0
001FFFC0
001FFFC0
001FFFC0
001FFFC0
001FFFC0
001FFFC0
001FFFC0
001FFFC0
001FFFC0
001FFFC0
001FFFC0
001FFFC0
001FFFC0
001FFFC0
001FFFC0
001FFFC0
001FFFC0
001FFFC0
003FFFC0
007FFFC0
00FFFFC0
FFFFFFC0
FFFFFFC0
FFFFFFC0
FFFFFF80
7FFFFF80
7FFFFF80
7FFFFF00
7FFFFF00
7FFFFE00
3FFFFC00
3FFFF800
3FFFF000
3FFF8000
3FF00000
ENDCHAR
STARTCHAR 006B
ENCODING 107
SWIDTH 720 0
DWIDTH 48 0
BBX 46 44 1 0
BITMAP
FFFF003FFFFC
FFFF007FFFF8
FFFF00FFFFF0
FFFF00FFFFF0
FFFF01FFFFE0
FFFF03FFFFC0
FFFF07FFFF80
FFFF07FFFF80
FFFF0FFFFF00
FFFF1FFFFE00
FFFF1FFFFE00
FFFF3FFFFC00
FFFF7FFFF800
FFFF7FFFF800
FFFFFFFFF000
FFFFFFFFE000
FFFFFFFFE000
FFFFFFFFC000
FFFFFFFF8000
FFFFFFFF0000
FFFFFFFF0000
FFFFFFFE0000
FFFFFFFC0000
FFFFFFFE0000
FFFFFFFF0000
FFFFFFFF8000
FFFFFFFFC000
FFFFFFFFC000
FFFFFFFFE000
FFFFFFFFF000
FFFFFFFFFFFC
FFFF7FFFFFFC
FFFF3FFFFFFC
FFFF1FFFFFFC
FFFF0FFFFFFC
FFFF07FFFFFC
FFFF03FFFFFC
FFFF01FFFFFC
FFFF00FFFFFC
FFFF007FFFFC
FFFF003FFFFC
FFFF001FFFFC
FFFF0007FFFC
FFFF0001FFFC
ENDCHAR
STARTCHAR 006C
ENCODING 108
SWIDTH 645 0
DWIDTH 43 0
BBX 41 44 1 0
BITMAP
FFFF00000000
FFFF00000000
FFFF00000000
FFFF00000000
FFFF00000000
FFFF00000000
FFFF00000000
FFFF00000000
FFFF00000000
FFFF00000000
FFFF00000000
FFFF00000000
FFFF00000000
FFFF00000000
FFFF00000000
FFFF00000000
FFFF00000000
FFFF00000000
FFFF00000000
FFFF00000000
FFFF00000000
FFFF00000000
FFFF00000000
FFFF00000000
FFFF00000000
FFFF00000000
FFFF00000000
FFFF00000000
FFFF00000000
FFFF00000000
FFFFFFFFFF80
FFFFFFFFFF80
FFFFFFFFFF80
FFFFFFFFFF80
FFFFFFFFFF80
FFFFFFFFFF80
FFFFFFFFFF80
FFFFFFFFFF80
FFFFFFFFFF80
FFFFFFFFFF80
FFFFFFFFFF80
FFFFFFFFFF80
FFFFFFFFFF80
FFFFFFFFFF80
ENDCHAR
STARTCHAR 006D
ENCODING 109
SWIDTH 810 0
DWIDTH 54 0
BBX 52 44 1 0
BITMAP
FFFF00000FFFF0
FFFF80001FFFF0
FFFFC0003FFFF0
FFFFE0007FFFF0
FFFFE0007FFFF0
FFFFF000FFFFF0
FFFFF801FFFFF0
FFFFF801FFFFF0
FFFFFC03FFFFF0
FFFFFE07FFFFF0
FFFFFF0FFFFFF0
FFFFFF0FFFFFF0
FFFFFF9FFFFFF0
FFFFFFFFFFFFF0
FFFFFFFFFFFFF0
FFFFFFFFFFFFF0
FFFFFFFFFFFFF0
FFFFFFFFFFFFF0
FFFFFFFFFFFFF0
FFFFFFFFFFFFF0
FFFFFFFFFFFFF0
FFFFFFFFFFFFF0
FFFFFFFFFFFFF0
FFFFFFFFFFFFF0
FFFFFFFFFFFFF0
FFFFFFFFFFFFF0
FFFFFFFFFFFFF0
FFFFFFFFFFFFF0
FFFFFFFFFFFFF0
FFFFFFFFFFFFF0
FFFFFFFFFFFFF0
FFFF7FFFEFFFF0
FFFF3FFFCFFFF0
FFFF3FFFCFFFF0
FFFF1FFF8FFFF0
FFFF0FFF0FFFF0
FFFF07FE0FFFF0
FFFF07FE0FFFF0
FFFF03FC0FFFF0
FFFF01F80FFFF0
FFFF01F80FFFF0
FFFF00F00FFFF0
FFFF00600FFFF0
FFFF00000FFFF0
ENDCHAR
STARTCHAR 006E
ENCODING 110
SWIDTH 720 0
DWIDTH 48 0
BBX 46 44 1 0
BITMAP
FFFF0003FFFC
FFFF8003FFFC
FFFFC003FFFC
FFFFE003FFFC
FFFFF003FFFC
FFFFF003FFFC
FFFFF803FFFC
FFFFFC03FFFC
FFFFFE03FFFC
FFFFFF03FFFC
FFFFFF03FFFC
FFFFFF83FFFC
FFFFFFC3FFFC
FFFFFFE3FFFC
FFFFFFF3FFFC
FFFFFFF3FFFC
FFFFFFFBFFFC
FFFFFFFFFFFC
FFFFFFFFFFFC
FFFFFFFFFFFC
FFFFFFFFFFFC
FFFFFFFFFFFC
FFFFFFFFFFFC
FFFFFFFFFFFC
FFFFFFFFFFFC
FFFFFFFFFFFC
FFFFFFFFFFFC
FFFF7FFFFFFC
FFFF3FFFFFFC
FFFF3FFFFFFC
FFFF1FFFFFFC
FFFF0FFFFFFC
FFFF07FFFFFC
FFFF03FFFFFC
FFFF03FFFFFC
FFFF01FFFFFC
FFFF00FFFFFC
FFFF007FFFFC
FFFF003FFFFC
FFFF003FFFFC
FFFF001FFFFC
FFFF000FFFFC
FFFF0007FFFC
FFFF0003FFFC
ENDCHAR
STARTCHAR 006F
ENCODING 111
SWIDTH 720 0
DWIDTH 48 0
BBX 46 44 1 0
BITMAP
00003FF00000
0001FFFE0000
000FFFFFC000
001FFFFFE000
007FFFFFF800
00FFFFFFFC00
01FFFFFFFE00
03FFFFFFFF00
07FFFFFFFF80
0FFFFFFFFFC0
1FFFFFFFFFE0
1FFFFFFFFFE0
3FFFFFFFFFF0
3FFFFFFFFFF0
7FFFF03FFFF8
7FFFC00FFFF8
7FFF8007FFF8
FFFF0003FFFC
FFFF0003FFFC
FFFE0001FFFC
FFFE0001FFFC
FFFE0001FFFC
FFFE0001FFFC
FFFE0001FFFC
FFFE0001FFFC
FFFE0003FFFC
FFFF0003FFFC
7FFF8007FFF8
7FFFC00FFFF8
7FFFF03FFFF8
3FFFFFFFFFF0
3FFFFFFFFFF0
1FFFFFFFFFE0
1FFFFFFFFFE0
0FFFFFFFFFC0
07FFFFFFFF80
03FFFFFFFF00
01FFFFFFFE00
00FFFFFFFC00
007FFFFFF800
001FFFFFE000
000FFFFFC000
0001FFFE0000
00003FF00000
ENDCHAR
STARTCHAR 0070
ENCODING 112
SWIDTH 720 0
DWIDTH 48 0
BBX 46 44 1 0
BITMAP
FFFFFFFFC000
FFFFFFFFF800
FFFFFFFFFE00
FFFFFFFFFF00
FFFFFFFFFF80
FFFFFFFFFFC0
FFFFFFFFFFE0
FFFFFFFFFFF0
FFFFFFFFFFF0
FFFFFFFFFFF8
FFFFFFFFFFF8
FFFFFFFFFFF8
FFFF000FFFFC
FFFF0007FFFC
FFFF0003FFFC
FFFF0003FFFC
FFFF0003FFFC
FFFF0007FFFC
FFFF000FFFFC
FFFFFFFFFFF8
FFFFFFFFFFF8
FFFFFFFFFFF8
FFFFFFFFFFF0
FFFFFFFFFFF0
FFFFFFFFFFE0
FFFFFFFFFFC0
FFFFFFFFFF80
FFFFFFFFFF00
FFFFFFFFFE00
FFFFFFFFF800
FFFFFFFFE000
FFFF00000000
FFFF00000000
FFFF00000000
FFFF00000000
FFFF00000000
FFFF00000000
FFFF00000000
FFFF00000000
FFFF00000000
FFFF00000000
FFFF00000000
FFFF00000000
FFFF00000000
ENDCHAR
STARTCHAR 0071
ENCODING 113
SWIDTH 765 0
DWIDTH 51 0
BBX 49 44 1 0
BITMAP
00003FF0000000
0001FFFE000000
000FFFFFC00000
001FFFFFE00000
007FFFFFF80000
00FFFFFFFC0000
01FFFFFFFE0000
03FFFFFFFF0000
07FFFFFFFF8000
0FFFFFFFFFC000
1FFFFFFFFFE000
1FFFFFFFFFE000
3FFFFFFFFFF000
3FFFFFFFFFF000
7FFFF03FFFF800
7FFFC00FFFF800
7FFF8007FFF800
FFFF0003FFFC00
FFFF0003FFFC00
FFFE0001FFFC00
FFFE0001FFFC00
FFFE0001FFFC00
FFFE0001FFFC00
FFFE0001FFFC00
FFFE0001FFFC00
FFFE0003FFFC00
FFFF0003FFFC00
7FFF8007FFF800
7FFFC00FFFF800
7FFFF03FFFF800
3FFFFFFFFFFF80
3FFFFFFFFFFF80
1FFFFFFFFFFF80
1FFFFFFFFFFF80
0FFFFFFFFFFF80
07FFFFFFFFFF80
03FFFFFFFFFF80
01FFFFFFFFFF80
00FFFFFFFFFF80
007FFFFFFFFF80
001FFFFFFFFF80
000FFFFFFFFF80
0001FFFFFFFF80
00003FFFFFFF80
ENDCHAR
STARTCHAR 0072
ENCODING 114
SWIDTH 765 0
DWIDTH 51 0
BBX 49 44 1 0
BITMAP
FFFFFFFFE00000
FFFFFFFFF80000
FFFFFFFFFE0000
FFFFFFFFFF0000
FFFFFFFFFF8000
FFFFFFFFFFC000
FFFFFFFFFFE000
FFFFFFFFFFF000
FFFFFFFFFFF000
FFFFFFFFFFF800
FFFFFFFFFFF800
FFFFFFFFFFFC00
FFFF000FFFFC00
FFFF0007FFFC00
FFFF0003FFFC00
FFFF0003FFFC00
FFFF0003FFFC00
FFFF0007FFFC00
FFFF000FFFFC00
FFFFFFFFFFF800
FFFFFFFFFFF800
FFFFFFFFFFF000
FFFFFFFFFFF000
FFFFFFFFFFE000
FFFFFFFFFFC000
FFFFFFFFFFC000
FFFFFFFFFF0000
FFFFFFFFFE0000
FFFFFFFFF80000
FFFFFFFFFC0000
FFFFFFFFFFFF80
FFFF7FFFFFFF80
FFFF3FFFFFFF80
FFFF1FFFFFFF80
FFFF0FFFFFFF80
FFFF07FFFFFF80
FFFF03FFFFFF80
FFFF01FFFFFF80
FFFF00FFFFFF80
FFFF007FFFFF80
FFFF003FFFFF80
FFFF001FFFFF80
FFFF0007FFFF80
FFFF0000FFFF80
ENDCHAR
STARTCHAR 0073
ENCODING 115
SWIDTH 705 0
DWIDTH 47 0
BBX 43 44 2 0
BITMAP
0001FFFFFFE0
0007FFFFFFE0
001FFFFFFFE0
003FFFFFFFE0
007FFFFFFFE0
00FFFFFFFFE0
01FFFFFFFFE0
03FFFFFFFFE0
03FFFFFFFFE0
03FFFFFFFFE0
07FFFFFFFFE0
07FFFFFFFFE0
07FFFFFFFFE0
07FFFFFFFFE0
07FFFF800000
07FFFF800000
07FFFFE00000
07FFFFF00000
03FFFFF80000
03FFFFFC0000
01FFFFFF0000
00FFFFFF8000
007FFFFFC000
003FFFFFE000
001FFFFFF000
0007FFFFF800
0003FFFFF800
0001FFFFF800
00007FFFFC00
00007FFFFC00
FFFFFFFFFC00
FFFFFFFFFC00
FFFFFFFFFC00
FFFFFFFFFC00
FFFFFFFFFC00
FFFFFFFFF800
FFFFFFFFF800
FFFFFFFFF000
FFFFFFFFF000
FFFFFFFFE000
FFFFFFFFC000
FFFFFFFF0000
FFFFFFFE0000
FFFFFFF00000
ENDCHAR
STARTCHAR 0074
ENCODING 116
SWIDTH 720 0
DWIDTH 48 0
BBX 46 44 1 0
BITMAP
FFFFFFFFFFFC
FFFFFFFFFFFC
FFFFFFFFFFFC
FFFFFFFFFFFC
FFFFFFFFFFFC
FFFFFFFFFFFC
FFFFFFFFFFFC
FFFFFFFFFFFC
FFFFFFFFFFFC
FFFFFFFFFFFC
FFFFFFFFFFFC
FFFFFFFFFFFC
FFFFFFFFFFFC
FFFFFFFFFFFC
0001FFFE0000
0001FFFE0000
0001FFFE0000
0001FFFE0000
0001FFFE0000
0001FFFE0000
0001FFFE0000
0001FFFE0000
0001FFFE0000
0001FFFE0000
0001FFFE0000
0001FFFE0000
0001FFFE0000
0001FFFE0000
0001FFFE0000
0001FFFE0000
0001FFFE0000
0001FFFE0000
0001FFFE0000
0001FFFE0000
0001FFFE0000
0001FFFE0000
0001FFFE0000
0001FFFE0000
0001FFFE0000
0001FFFE0000
0001FFFE0000
0001FFFE0000
0001FFFE0000
0001FFFE0000
ENDCHAR
STARTCHAR 0075
ENCODING 117
SWIDTH 720 0
DWIDTH 48 0
BBX 46 44 1 0
BITMAP
FFFE0001FFFC
FFFE0001FFFC
FFFE0001FFFC
FFFE0001FFFC
FFFE0001FFFC
FFFE0001FFFC
FFFE0001FFFC
FFFE0001FFFC
FFFE0001FFFC
FFFE0001FFFC
FFFE0001FFFC
FFFE0001FFFC
FFFE0001FFFC
FFFE0001FFFC
FFFE0001FFFC
FFFE0001FFFC
FFFE0001FFFC
FFFE0001FFFC
FFFE0001FFFC
FFFE0001FFFC
FFFE0001FFFC
FFFE0001FFFC
FFFE0001FFFC
FFFE0001FFFC
FFFE0001FFFC
FFFE0003FFFC
FFFF0003FFFC
7FFF8007FFF8
7FFFC00FFFF8
7FFFF03FFFF8
3FFFFFFFFFF0
3FFFFFFFFFF0
1FFFFFFFFFE0
1FFFFFFFFFE0
0FFFFFFFFFC0
07FFFFFFFF80
03FFFFFFFF00
01FFFFFFFE00
00FFFFFFFC00
007FFFFFF800
001FFFFFE000
000FFFFFC000
0001FFFE0000
00003FF00000
ENDCHAR
STARTCHAR 0076
ENCODING 118
SWIDTH 780 0
DWIDTH 52 0
BBX 49 44 1 0
BITMAP
FFFF8000FFFF80
7FFFC000FFFF80
7FFFC000FFFF80
7FFFC000FFFF00
3FFFC001FFFF00
3FFFE001FFFF00
3FFFE001FFFF00
3FFFE001FFFE00
1FFFE003FFFE00
1FFFF003FFFE00
1FFFF003FFFE00
1FFFF007FFFC00
0FFFF007FFFC00
0FFFF807FFFC00
0FFFF807FFFC00
0FFFF80FFFF800
07FFFC0FFFF800
07FFFC0FFFF800
07FFFC0FFFF800
07FFFC1FFFF000
03FFFE1FFFF000
03FFFE1FFFF000
03FFFE1FFFF000
03FFFE3FFFE000
01FFFF3FFFE000
01FFFF3FFFE000
01FFFF3FFFE000
00FFFF7FFFC000
00FFFFFFFFC000
00FFFFFFFFC000
00FFFFFFFF8000
007FFFFFFF8000
007FFFFFFF8000
007FFFFFFF8000
007FFFFFFF0000
003FFFFFFF0000
003FFFFFFF0000
003FFFFFFF0000
003FFFFFFE0000
001FFFFFFE0000
001FFFFFFE0000
001FFFFFFE0000
001FFFFFFC0000
000FFFFFFC0000
ENDCHAR
STARTCHAR 0077
ENCODING 119
SWIDTH 1050 0
DWIDTH 70 0
BBX 68 44 1 0
BITMAP
FFFF807FFFF01FFFF0
7FFFC0FFFFF01FFFF0
7FFFC0FFFFF03FFFE0
7FFFC0FFFFF03FFFE0
3FFFC0FFFFF83FFFE0
3FFFE1FFFFF83FFFC0
3FFFE1FFFFF87FFFC0
3FFFE1FFFFF87FFFC0
1FFFE1FFFFFC7FFFC0
1FFFF3FFFFFC7FFF80
1FFFF3FFFFFCFFFF80
1FFFF3FFFFFCFFFF80
0FFFF3FFFFFEFFFF80
0FFFFFFFFFFFFFFF00
0FFFFFFFFFFFFFFF00
0FFFFFFFFFFFFFFF00
07FFFFFFFFFFFFFF00
07FFFFFFFFFFFFFE00
07FFFFFFFFFFFFFE00
07FFFFFFFFFFFFFE00
03FFFFFFFFFFFFFE00
03FFFFFFFFFFFFFC00
03FFFFFFFFFFFFFC00
03FFFFFFFFFFFFFC00
01FFFFFFFFFFFFFC00
01FFFFFFFFFFFFF800
01FFFFFFFFFFFFF800
00FFFFFFFFFFFFF800
00FFFFFFFFFFFFF000
00FFFFFFFFFFFFF000
00FFFFFFFFFFFFF000
007FFFFFDFFFFFF000
007FFFFF9FFFFFE000
007FFFFF9FFFFFE000
007FFFFF9FFFFFE000
003FFFFF8FFFFFE000
003FFFFF0FFFFFC000
003FFFFF0FFFFFC000
003FFFFF07FFFFC000
001FFFFE07FFFFC000
001FFFFE07FFFF8000
001FFFFE07FFFF8000
001FFFFE03FFFF8000
000FFFFC03FFFF8000
ENDCHAR
STARTCHAR 0078
ENCODING 120
SWIDTH 855 0
DWIDTH 57 0
BBX 53 44 2 0
BITMAP
FFFFF0007FFFF8
7FFFF800FFFFF8
7FFFF800FFFFF0
3FFFFC01FFFFE0
1FFFFE03FFFFC0
0FFFFF07FFFFC0
0FFFFF87FFFF80
07FFFF8FFFFF00
03FFFFDFFFFE00
01FFFFFFFFFC00
00FFFFFFFFFC00
00FFFFFFFFF800
007FFFFFFFF000
003FFFFFFFE000
001FFFFFFFE000
001FFFFFFFC000
000FFFFFFF8000
0007FFFFFF0000
0003FFFFFE0000
0001FFFFFE0000
0001FFFFFC0000
0000FFFFF80000
0000FFFFF80000
0001FFFFFC0000
0001FFFFFE0000
0003FFFFFE0000
0007FFFFFF0000
000FFFFFFF8000
001FFFFFFFC000
001FFFFFFFC000
003FFFFFFFE000
007FFFFFFFF000
00FFFFFFFFF800
00FFFFFFFFFC00
01FFFFFFFFFC00
03FFFFDFFFFE00
07FFFF8FFFFF00
0FFFFF87FFFF80
0FFFFF07FFFFC0
1FFFFE03FFFFC0
3FFFFC01FFFFE0
7FFFF800FFFFF0
7FFFF800FFFFF8
FFFFF0007FFFF8
ENDCHAR
STARTCHAR 0079
ENCODING 121
SWIDTH 810 0
DWIDTH 54 0
BBX 50 44 2 0
BITMAP
FFFFC000FFFFC0
FFFFE001FFFFC0
7FFFE001FFFF80
3FFFF003FFFF00
3FFFF007FFFF00
1FFFF807FFFE00
1FFFFC0FFFFE00
0FFFFC0FFFFC00
0FFFFE1FFFFC00
07FFFE1FFFF800
03FFFF3FFFF000
03FFFF3FFFF000
01FFFFFFFFE000
01FFFFFFFFE000
00FFFFFFFFC000
007FFFFFFFC000
007FFFFFFF8000
003FFFFFFF0000
003FFFFFFF0000
001FFFFFFE0000
001FFFFFFE0000
000FFFFFFC0000
0007FFFFF80000
0007FFFFF80000
0003FFFFF00000
0003FFFFF00000
0001FFFFE00000
0001FFFFE00000
0000FFFFC00000
00007FFF800000
00007FFF800000
00007FFF800000
00007FFF800000
00007FFF800000
00007FFF800000
00007FFF800000
00007FFF800000
00007FFF800000
00007FFF800000
00007FFF800000
00007FFF800000
00007FFF800000
00007FFF800000
00007FFF800000
ENDCHAR
STARTCHAR 007A
ENCODING 122
SWIDTH 720 0
DWIDTH 48 0
BBX 46 44 1 0
BITMAP
FFFFFFFFFFFC
FFFFFFFFFFF8
FFFFFFFFFFF0
FFFFFFFFFFF0
FFFFFFFFFFE0
FFFFFFFFFFC0
FFFFFFFFFFC0
FFFFFFFFFF80
FFFFFFFFFF00
FFFFFFFFFF00
FFFFFFFFFE00
FFFFFFFFFE00
FFFFFFFFFC00
FFFFFFFFF800
00001FFFF800
00001FFFF000
00003FFFE000
00007FFFE000
00007FFFC000
0000FFFF8000
0001FFFF8000
0001FFFF0000
0003FFFE0000
0007FFFE0000
0007FFFC0000
000FFFF80000
001FFFF80000
001FFFF00000
003FFFE00000
007FFFE00000
007FFFFFFFFC
00FFFFFFFFFC
01FFFFFFFFFC
01FFFFFFFFFC
03FFFFFFFFFC
03FFFFFFFFFC
07FFFFFFFFFC
0FFFFFFFFFFC
0FFFFFFFFFFC
1FFFFFFFFFFC
3FFFFFFFFFFC
3FFFFFFFFFFC
7FFFFFFFFFFC
FFFFFFFFFFFC
ENDCHAR
STARTCHAR 007B
ENCODING 123
SWIDTH 360 0
DWIDTH 24 0
BBX 21 55 1 -5
BITMAP
0007F8
001FF8
007FF8
00FFF8
01FFF8
01FFF8
03FFF8
03FFF8
07FFF8
07FFF8
07FFF8
07FF00
07FF00
07FF00
07FF00
07FF00
07FF00
07FF00
07FF00
07FF00
07FF00
07FF00
0FFF00
1FFF00
3FFE00
FFFE00
FFFC00
FFE000
FFFC00
FFFE00
3FFE00
1FFF00
0FFF00
07FF00
07FF00
07FF00
07FF00
07FF00
07FF00
07FF00
07FF00
07FF00
07FF00
07FF00
07FFF8
07FFF8
07FFF8
03FFF8
03FFF8
03FFF8
01FFF8
00FFF8
007FF8
003FF8
0007F8
ENDCHAR
STARTCHAR 007C
ENCODING 124
SWIDTH 225 0
DWIDTH 15 0
BBX 11 55 1 -5
BITMAP
FFE0
FFE0
FFE0
FFE0
FFE0
FFE0
FFE0
FFE0
FFE0
FFE0
FFE0
FFE0
FFE0
FFE0
FFE0
FFE0
FFE0
FFE0
FFE0
FFE0
FFE0
FFE0
FFE0
FFE0
FFE0
FFE0
FFE0
FFE0
FFE0
FFE0
FFE0
FFE0
FFE0
FFE0
FFE0
FFE0
FFE0
FFE0
FFE0
FFE0
FFE0
FFE0
FFE0
FFE0
FFE0
FFE0
FFE0
FFE0
FFE0
FFE0
FFE0
FFE0
FFE0
FFE0
FFE0
ENDCHAR
STARTCHAR 007D
ENCODING 125
SWIDTH 360 0
DWIDTH 24 0
BBX 21 55 2 -5
BITMAP
FF0000
FFC000
FFF000
FFF800
FFFC00
FFFC00
FFFE00
FFFE00
FFFF00
FFFF00
FFFF00
07FF00
07FF00
07FF00
07FF00
07FF00
07FF00
07FF00
07FF00
07FF00
07FF00
07FF00
07FF80
07FFC0
03FFE0
03FFF8
01FFF8
003FF8
01FFF8
03FFF8
07FFE0
07FFC0
07FF80
07FF00
07FF00
07FF00
07FF00
07FF00
07FF00
07FF00
07FF00
07FF00
07FF00
07FF00
FFFF00
FFFF00
FFFF00
FFFE00
FFFE00
FFFC00
FFFC00
FFF800
FFF000
FFC000
FF0000
ENDCHAR
STARTCHAR 007E
ENCODING 126
SWIDTH 360 0
DWIDTH 24 0
BBX 22 8 1 47
BITMAP
1F0004
7FE00C
FFFC1C
FFFFFC
FFFFFC
E0FFFC
C01FF8
8003E0
ENDCHAR
STARTCHAR 00A0
ENCODING 160
SWIDTH 375 0
DWIDTH 25 0
BBX 0 0 0 0
BITMAP
ENDCHAR
STARTCHAR 00A1
ENCODING 161
SWIDTH 195 0
DWIDTH 13 0
BBX 11 44 1 0
BITMAP
1F00
3F80
7FC0
FFE0
FFE0
FFE0
FFE0
FFE0
7FC0
3F80
1F00
0000
0000
0000
FFC0
FFC0
FFC0
FFC0
FFC0
FFC0
FFC0
FFC0
FFC0
FFC0
FFC0
FFC0
FFC0
FFC0
FFC0
FFC0
FFC0
FFC0
FFC0
FFC0
FFC0
FFC0
FFC0
FFC0
FFC0
FFC0
FFC0
FFC0
FFC0
FFC0
ENDCHAR
STARTCHAR 00A2
ENCODING 162
SWIDTH 645 0
DWIDTH 43 0
BBX 41 56 1 -6
BITMAP
00007FF00000
00007FF00000
00007FF00000
00007FF00000
00007FF00000
00007FF00000
00007FFFFF80
0001FFFFFF80
000FFFFFFF80
001FFFFFFF80
007FFFFFFF80
00FFFFFFFF80
01FFFFFFFF80
03FFFFFFFF80
07FFFFFFFF80
0FFFFFFFFF80
1FFFFFFFFF80
1FFFFFFFFF80
3FFFFFFFFF80
3FFFFFFFFF80
7FFFF0000000
7FFFC0000000
7FFF80000000
FFFF00000000
FFFF00000000
FFFE00000000
FFFE00000000
FFFE00000000
FFFE00000000
FFFE00000000
FFFE00000000
FFFE00000000
FFFF00000000
7FFF80000000
7FFFC0000000
7FFFF0000000
3FFFFFFFFF80
3FFFFFFFFF80
1FFFFFFFFF80
1FFFFFFFFF80
0FFFFFFFFF80
07FFFFFFFF80
03FFFFFFFF80
01FFFFFFFF80
00FFFFFFFF80
007FFFFFFF80
001FFFFFFF80
000FFFFFFF80
0001FFFFFF80
00007FFFFF80
00007FF00000
00007FF00000
00007FF00000
00007FF00000
00007FF00000
00007FF00000
ENDCHAR
STARTCHAR 00A5
ENCODING 165
SWIDTH 810 0
DWIDTH 54 0
BBX 50 44 2 0
BITMAP
FFFFC000FFFFC0
FFFFE001FFFFC0
7FFFE001FFFF80
7FFFF003FFFF80
3FFFF003FFFF00
3FFFF807FFFF00
1FFFF807FFFE00
0FFFFC0FFFFC00
0FFFFC1FFFFC00
07FFFE1FFFF800
07FFFF3FFFF800
03FFFF3FFFF000
03FFFFFFFFF000
01FFFFFFFFE000
00FFFFFFFFE000
00FFFFFFFFC000
007FFFFFFF8000
3FFFFFFFFFFF00
3FFFFFFFFFFF00
3FFFFFFFFFFF00
3FFFFFFFFFFF00
3FFFFFFFFFFF00
3FFFFFFFFFFF00
3FFFFFFFFFFF00
3FFFFFFFFFFF00
0003FFFFF00000
0001FFFFE00000
0001FFFFE00000
3FFFFFFFFFFF00
3FFFFFFFFFFF00
3FFFFFFFFFFF00
3FFFFFFFFFFF00
3FFFFFFFFFFF00
3FFFFFFFFFFF00
3FFFFFFFFFFF00
3FFFFFFFFFFF00
00007FFF800000
00007FFF800000
00007FFF800000
00007FFF800000
00007FFF800000
00007FFF800000
00007FFF800000
00007FFF800000
ENDCHAR
STARTCHAR 00A8
ENCODING 168
SWIDTH 360 0
DWIDTH 24 0
BBX 22 8 1 47
BITMAP
3C00F0
7E01F8
FF03FC
FF03FC
FF03FC
FF03FC
7E01F8
3C00F0
ENDCHAR
STARTCHAR 00A9
ENCODING 169
SWIDTH 585 0
DWIDTH 39 0
BBX 37 37 1 3
BITMAP
0003FE0000
001FFFC000
007FFFF000
00FFFFF800
03FFFFFC00
07FE03FF00
0FF0007F00
0FE0003F80
1F80000FC0
3F000007E0
3F03FF07E0
7E0FFF03F0
7C1FFF01F0
7C3FFF01F0
FC7FFF01F8
F8FF0000F8
F8FC0000F8
F8FC0000F8
F8FC0000F8
F8FC0000F8
F8FF0000F8
F87FFF01F8
FC3FFF01F8
7C1FFF01F0
7E0FFF03F0
7F03FF07F0
3F000007E0
3F80000FE0
1FE0003FC0
0FF0007F80
0FFE03FF80
07FFFFFF00
03FFFFFE00
00FFFFF800
007FFFF000
001FFFC000
0003FE0000
ENDCHAR
STARTCHAR 00AD
ENCODING 173
SWIDTH 360 0
DWIDTH 24 0
BBX 22 8 1 18
BITMAP
FFFFFC
FFFFFC
FFFFFC
FFFFFC
FFFFFC
FFFFFC
FFFFFC
FFFFFC
ENDCHAR
STARTCHAR 00AE
ENCODING 174
SWIDTH 585 0
DWIDTH 39 0
BBX 37 37 1 3
BITMAP
0003FE0000
001FFFC000
007FFFF000
00FFFFF800
03FFFFFC00
07FE03FF00
0FF0007F00
0FE0003F80
1F80000FC0
3F000007E0
3F7FFE07E0
7E7FFF83F0
7C7FFFC1F0
7C7FFFE1F0
FC7FFFE1F8
F87E07E0F8
F87E0FE0F8
F87FFFE0F8
F87FFFC0F8
F87FFF80F8
F87FFF00F8
F87FFFE1F8
FC7EFFE1F8
7C7E3FE1F0
7E7E1FE3F0
7F7E0FE7F0
3F000007E0
3F80000FE0
1FE0003FC0
0FF0007F80
0FFE03FF80
07FFFFFF00
03FFFFFE00
00FFFFF800
007FFFF000
001FFFC000
0003FE0000
ENDCHAR
STARTCHAR 00B0
ENCODING 176
SWIDTH 210 0
DWIDTH 14 0
BBX 12 12 1 32
BITMAP
0F00
3FC0
7FE0
70E0
E070
E070
E070
E070
70E0
7FE0
3FC0
0F00
ENDCHAR
STARTCHAR 00B1
ENCODING 177
SWIDTH 360 0
DWIDTH 24 0
BBX 22 33 1 0
BITMAP
01FE00
01FE00
01FE00
01FE00
01FE00
01FE00
01FE00
FFFFFC
FFFFFC
FFFFFC
FFFFFC
FFFFFC
FFFFFC
FFFFFC
FFFFFC
01FE00
01FE00
01FE00
01FE00
01FE00
01FE00
01FE00
000000
000000
000000
FFFFFC
FFFFFC
FFFFFC
FFFFFC
FFFFFC
FFFFFC
FFFFFC
FFFFFC
ENDCHAR
STARTCHAR 00B4
ENCODING 180
SWIDTH 405 0
DWIDTH 27 0
BBX 25 8 1 46
BITMAP
00003000
0001F800
000FFC00
003FFE00
01FFFF00
0FFFFF80
3FFF0000
FE000000
ENDCHAR
STARTCHAR 00B6
ENCODING 182
SWIDTH 735 0
DWIDTH 49 0
BBX 46 44 2 0
BITMAP
001FFFFFFFFC
007FFFFFFFFC
01FFFFFFFFFC
03FFFFFFFFFC
07FFFFFFFFFC
0FFFFFFFFFFC
1FFFFFFFFFFC
3FFFFFFFFFFC
7FFFFFFFFFFC
7FFFFFFFFFFC
7FFFFFFFFFFC
FFFFFFFFFFFC
FFFFFFC1FFC0
FFFFFFC1FFC0
FFFFFFC1FFC0
FFFFFFC1FFC0
FFFFFFC1FFC0
FFFFFFC1FFC0
FFFFFFC1FFC0
FFFFFFC1FFC0
7FFFFFC1FFC0
7FFFFFC1FFC0
3FFFFFC1FFC0
3FFFFFC1FFC0
1FFFFFC1FFC0
0FFFFFC1FFC0
07FFFFC1FFC0
03FFFFC1FFC0
01FFFFC1FFC0
007FFFC1FFC0
0007FFC1FFC0
0001FFC1FFC0
0001FFC1FFC0
0001FFC1FFC0
0001FFC1FFC0
0001FFC1FFC0
0001FFC1FFC0
0001FFC1FFC0
0001FFC1FFC0
0001FFC1FFC0
0001FFC1FFC0
0001FFC1FFC0
0001FFC1FFC0
0001FFC1FFC0
ENDCHAR
STARTCHAR 00BC
ENCODING 188
SWIDTH 735 0
DWIDTH 49 0
BBX 47 46 1 -1
BITMAP
000004000000
1FE007000000
3FE007E00000
3FE00FFC0000
7FE00FFE0000
7FE00FFE0000
FFE01FFE0000
1FE01FFC0000
1FE01FFC0000
1FE03FFC0000
1FE03FF80000
1FE03FF80000
1FE07FF80000
1FE07FF00000
1FE0FFF00000
1FE0FFF00000
1FE0FFE00000
1FE1FFE00000
1FE1FFC00000
1FE1FFC00000
1FE3FFC00000
1FE3FF800000
1FE3FF800000
0007FF800000
0007FF0007F8
000FFF0007F8
000FFF3F87F8
000FFE3F87F8
001FFE7F87F8
001FFE7F87F8
001FFC7F87F8
003FFC7F87F8
003FFC7F07F8
003FF87F07F8
007FF8FFFFFE
007FF8FFFFFE
007FF0FFFFFE
00FFF0FFFFFE
00FFF0FFFFFE
01FFE0FFFFFE
01FFE1FFFFFE
01FFE00007F8
007FC00007F8
001FC00007F8
0003C00007F8
0000800007F8
ENDCHAR
STARTCHAR 00BD
ENCODING 189
SWIDTH 765 0
DWIDTH 51 0
BBX 49 44 1 0
BITMAP
1FE00700000000
3FE007E0000000
3FE00FFC000000
7FE00FFE000000
7FE00FFE000000
FFE01FFE000000
1FE01FFC000000
1FE01FFC000000
1FE03FFC000000
1FE03FF8000000
1FE03FF8000000
1FE07FF8000000
1FE07FF0000000
1FE07FF0000000
1FE0FFF0000000
1FE0FFE0000000
1FE1FFE0000000
1FE1FFC0000000
1FE1FFC0000000
1FE3FFC0000000
1FE3FF80000000
1FE3FF80000000
0007FF8FFFF800
0007FF0FFFFC00
0007FF0FFFFE00
000FFF0FFFFF00
000FFE0FFFFF80
000FFE0FFFFF80
001FFE00003F80
001FFC00003F80
003FFC03FFFF80
003FFC07FFFF80
003FF80FFFFF00
007FF81FFFFE00
007FF83FFFFC00
007FF03FFFF800
00FFF03F800000
00FFE03F800000
00FFE03FFFFF80
01FFE03FFFFF80
01FFC03FFFFF80
00FFC03FFFFF80
001FC03FFFFF80
0003803FFFFF80
ENDCHAR
STARTCHAR 00BE
ENCODING 190
SWIDTH 885 0
DWIDTH 59 0
BBX 56 44 2 0
BITMAP
FFFF8007800000
FFFFC007E00000
FFFFE007FC0000
FFFFF00FFF0000
FFFFF80FFE0000
FFFFF81FFE0000
0003F81FFE0000
0003F81FFC0000
07FFF83FFC0000
07FFF83FF80000
07FFF03FF80000
07FFF07FF80000
07FFF07FF00000
07FFF87FF00000
0003F8FFF00000
0003F8FFE00000
FFFFF8FFE00000
FFFFF9FFE00000
FFFFF1FFC00000
FFFFE1FFC00000
FFFFC3FFC00000
FFFF83FF800000
000003FF8003FC
000007FF0003FC
000007FF0003FC
00000FFF1FC3FC
00000FFE3FC3FC
00000FFE3FC3FC
00001FFE3FC3FC
00001FFC3FC3FC
00001FFC3FC3FC
00003FFC7F83FC
00003FF87F83FC
00003FF87FFFFF
00007FF87FFFFF
00007FF07FFFFF
00007FF07FFFFF
0000FFF0FFFFFF
0000FFE0FFFFFF
0000FFE0FFFFFF
0001FFC00003FC
00007FC00003FC
00001FC00003FC
000003800003FC
ENDCHAR
STARTCHAR 00BF
ENCODING 191
SWIDTH 600 0
DWIDTH 40 0
BBX 38 44 1 0
BITMAP
00000003E0
00000007F0
0000000FF8
0000001FFC
0000001FFC
0000001FFC
0000001FFC
0000001FFC
0000000FF8
00000007F0
00000003E0
0000000000
0000001FFC
0000001FFC
0000001FFC
0000003FFC
003FFFFFFC
00FFFFFFF8
03FFFFFFF8
07FFFFFFF8
0FFFFFFFF0
1FFFFFFFF0
3FFFFFFFE0
3FFFFFFFC0
7FFFFFFF80
7FFFFFFF00
FFFFFFFC00
FFFFFFF000
FFFE000000
FFFE000000
FFFE000000
FFFFFFFFFC
FFFFFFFFFC
FFFFFFFFFC
7FFFFFFFFC
7FFFFFFFFC
3FFFFFFFFC
3FFFFFFFFC
1FFFFFFFFC
0FFFFFFFFC
07FFFFFFFC
03FFFFFFFC
00FFFFFFFC
003FFFFFFC
ENDCHAR
STARTCHAR 00C0
ENCODING 192
SWIDTH 780 0
DWIDTH 52 0
BBX 49 55 2 0
BITMAP
00180000000000
003F0000000000
007FE000000000
00FFF800000000
01FFFF00000000
03FFFFE0000000
0001FFF8000000
000000FE000000
00000000000000
00000000000000
00000000000000
001FFFFFF80000
001FFFFFFC0000
003FFFFFFC0000
003FFFFFFC0000
003FFFFFFC0000
003FFFFFFE0000
007FFFFFFE0000
007FFFFFFE0000
007FFFFFFE0000
007FFFFFFF0000
00FFFFFFFF0000
00FFFFFFFF0000
00FFFFFFFF8000
00FFFFFFFF8000
01FFFFFFFF8000
01FFFFFFFF8000
01FFFF7FFFC000
01FFFE7FFFC000
03FFFE7FFFC000
03FFFE3FFFC000
03FFFE3FFFE000
03FFFC3FFFE000
07FFFC3FFFE000
07FFFC1FFFE000
07FFFC1FFFF000
0FFFF81FFFF000
0FFFF81FFFF000
0FFFFFFFFFF000
0FFFFFFFFFF800
1FFFFFFFFFF800
1FFFFFFFFFF800
1FFFFFFFFFF800
1FFFFFFFFFFC00
3FFFFFFFFFFC00
3FFFFFFFFFFC00
3FFFFFFFFFFC00
3FFFFFFFFFFE00
7FFFFFFFFFFE00
7FFFC001FFFE00
7FFFC001FFFF00
7FFF8001FFFF00
FFFF8001FFFF00
FFFF8001FFFF00
FFFF8000FFFF80
ENDCHAR
STARTCHAR 00C1
ENCODING 193
SWIDTH 780 0
DWIDTH 52 0
BBX 49 55 1 0
BITMAP
000000000C0000
000000007E0000
00000003FF0000
0000000FFF8000
0000007FFFC000
000003FFFFE000
00000FFFC00000
00003F80000000
00000000000000
00000000000000
00000000000000
000FFFFFFC0000
001FFFFFFC0000
001FFFFFFE0000
001FFFFFFE0000
001FFFFFFE0000
003FFFFFFE0000
003FFFFFFF0000
003FFFFFFF0000
003FFFFFFF0000
007FFFFFFF0000
007FFFFFFF8000
007FFFFFFF8000
00FFFFFFFF8000
00FFFFFFFF8000
00FFFFFFFFC000
00FFFFFFFFC000
01FFFF7FFFC000
01FFFF3FFFC000
01FFFF3FFFE000
01FFFE3FFFE000
03FFFE3FFFE000
03FFFE1FFFE000
03FFFE1FFFF000
03FFFC1FFFF000
07FFFC1FFFF000
07FFFC0FFFF000
07FFFC0FFFF800
07FFFFFFFFF800
0FFFFFFFFFF800
0FFFFFFFFFFC00
0FFFFFFFFFFC00
0FFFFFFFFFFC00
1FFFFFFFFFFC00
1FFFFFFFFFFE00
1FFFFFFFFFFE00
3FFFFFFFFFFE00
3FFFFFFFFFFE00
3FFFFFFFFFFF00
3FFFC001FFFF00
7FFFC001FFFF00
7FFFC000FFFF00
7FFFC000FFFF80
7FFFC000FFFF80
FFFF8000FFFF80
ENDCHAR
STARTCHAR 00C2
ENCODING 194
SWIDTH 780 0
DWIDTH 52 0
BBX 49 56 1 0
BITMAP
00000FFC000000
00001FFE000000
00007FFF000000
0000FFFFC00000
0001FF3FE00000
0007FC1FF00000
000FF807FC0000
001FF003FE0000
003FC001FF0000
00000000000000
00000000000000
00000000000000
000FFFFFFC0000
001FFFFFFC0000
001FFFFFFE0000
001FFFFFFE0000
001FFFFFFE0000
003FFFFFFE0000
003FFFFFFF0000
003FFFFFFF0000
003FFFFFFF0000
007FFFFFFF0000
007FFFFFFF8000
007FFFFFFF8000
007FFFFFFF8000
00FFFFFFFF8000
00FFFFFFFFC000
00FFFFFFFFC000
01FFFF7FFFC000
01FFFF3FFFC000
01FFFF3FFFE000
01FFFF3FFFE000
03FFFE3FFFE000
03FFFE1FFFF000
03FFFE1FFFF000
03FFFC1FFFF000
07FFFC0FFFF000
07FFFC0FFFF800
07FFFC0FFFF800
07FFFFFFFFF800
0FFFFFFFFFF800
0FFFFFFFFFFC00
0FFFFFFFFFFC00
0FFFFFFFFFFC00
1FFFFFFFFFFC00
1FFFFFFFFFFE00
1FFFFFFFFFFE00
1FFFFFFFFFFE00
3FFFFFFFFFFE00
3FFFFFFFFFFF00
3FFFE001FFFF00
3FFFC001FFFF00
7FFFC000FFFF00
7FFFC000FFFF80
7FFFC000FFFF80
FFFF8000FFFF80
ENDCHAR
STARTCHAR 00C3
ENCODING 195
SWIDTH 780 0
DWIDTH 52 0
BBX 48 54 2 0
BITMAP
0001FC002000
0007FFC0E000
0007FFFFE000
0007FFFFE000
0007FFFFE000
000703FFE000
0004003F0000
000000000000
000000000000
000000000000
001FFFFFF800
003FFFFFFC00
003FFFFFFC00
003FFFFFFC00
003FFFFFFC00
007FFFFFFE00
007FFFFFFE00
007FFFFFFE00
007FFFFFFE00
00FFFFFFFF00
00FFFFFFFF00
00FFFFFFFF00
00FFFFFFFF00
01FFFFFFFF80
01FFFFFFFF80
01FFFFFFFF80
01FFFE7FFF80
03FFFE7FFFC0
03FFFE7FFFC0
03FFFE7FFFC0
07FFFC3FFFE0
07FFFC3FFFE0
07FFFC3FFFE0
07FFFC3FFFE0
0FFFF81FFFF0
0FFFF81FFFF0
0FFFF81FFFF0
0FFFFFFFFFF0
1FFFFFFFFFF8
1FFFFFFFFFF8
1FFFFFFFFFF8
1FFFFFFFFFF8
3FFFFFFFFFFC
3FFFFFFFFFFC
3FFFFFFFFFFC
3FFFFFFFFFFC
7FFFFFFFFFFE
7FFFFFFFFFFE
7FFFC003FFFE
7FFF8001FFFE
FFFF8001FFFF
FFFF8001FFFF
FFFF8001FFFF
FFFF0000FFFF
ENDCHAR
STARTCHAR 00C4
ENCODING 196
SWIDTH 780 0
DWIDTH 52 0
BBX 48 55 2 0
BITMAP
0001E0078000
0003F00FC000
0007F81FE000
0007F81FE000
0007F81FE000
0007F81FE000
0003F00FC000
0001E0078000
000000000000
000000000000
000000000000
001FFFFFF800
003FFFFFFC00
003FFFFFFC00
003FFFFFFC00
003FFFFFFC00
007FFFFFFE00
007FFFFFFE00
007FFFFFFE00
007FFFFFFE00
00FFFFFFFF00
00FFFFFFFF00
00FFFFFFFF00
00FFFFFFFF00
01FFFFFFFF80
01FFFFFFFF80
01FFFFFFFF80
01FFFE7FFF80
03FFFE7FFFC0
03FFFE7FFFC0
03FFFE7FFFC0
07FFFC3FFFE0
07FFFC3FFFE0
07FFFC3FFFE0
07FFF81FFFE0
0FFFF81FFFF0
0FFFF81FFFF0
0FFFF81FFFF0
0FFFFFFFFFF0
1FFFFFFFFFF8
1FFFFFFFFFF8
1FFFFFFFFFF8
1FFFFFFFFFF8
3FFFFFFFFFFC
3FFFFFFFFFFC
3FFFFFFFFFFC
3FFFFFFFFFFC
7FFFFFFFFFFE
7FFFFFFFFFFE
7FFF8001FFFE
7FFF8001FFFE
FFFF8001FFFF
FFFF8001FFFF
FFFF8001FFFF
FFFF0000FFFF
ENDCHAR
STARTCHAR 00C5
ENCODING 197
SWIDTH 780 0
DWIDTH 52 0
BBX 48 55 2 0
BITMAP
000003C00000
000007E00000
00000E700000
00000C300000
00000C300000
00000E700000
000007E00000
000003C00000
000000000000
000000000000
000000000000
001FFFFFF800
001FFFFFFC00
003FFFFFFC00
003FFFFFFC00
003FFFFFFC00
003FFFFFFE00
007FFFFFFE00
007FFFFFFE00
007FFFFFFE00
007FFFFFFF00
00FFFFFFFF00
00FFFFFFFF00
00FFFFFFFF00
01FFFFFFFF80
01FFFFFFFF80
01FFFFFFFF80
01FFFF7FFF80
03FFFE7FFFC0
03FFFE7FFFC0
03FFFE7FFFC0
03FFFC3FFFC0
07FFFC3FFFE0
07FFFC3FFFE0
07FFFC3FFFE0
07FFF81FFFE0
0FFFF81FFFF0
0FFFF81FFFF0
0FFFFFFFFFF0
0FFFFFFFFFF8
1FFFFFFFFFF8
1FFFFFFFFFF8
1FFFFFFFFFF8
1FFFFFFFFFFC
3FFFFFFFFFFC
3FFFFFFFFFFC
3FFFFFFFFFFC
3FFFFFFFFFFE
7FFFFFFFFFFE
7FFFC003FFFE
7FFFC001FFFE
FFFF8001FFFF
FFFF8001FFFF
FFFF8001FFFF
FFFF8000FFFF
ENDCHAR
STARTCHAR 00C6
ENCODING 198
SWIDTH 1170 0
DWIDTH 78 0
BBX 76 44 1 0
BITMAP
000003FFFFFFFFFFFFF0
000003FFFFFFFFFFFFF0
000007FFFFFFFFFFFFF0
000007FFFFFFFFFFFFF0
00000FFFFFFFFFFFFFF0
00000FFFFFFFFFFFFFF0
00001FFFFFFFFFFFFFF0
00001FFFFFFFFFFFFFF0
00003FFFFFFFFFFFFFF0
00003FFFFFFFFFFFFFF0
00007FFFFFFFFFFFFFF0
00007FFFFFFFFFFFFFF0
0000FFFFFFFFFFFFFFF0
0000FFFFFFFFFFFFFFF0
0001FFFFFFFF00000000
0001FFFFFFFF00000000
0003FFFEFFFFFFFF0000
0007FFFEFFFFFFFF0000
0007FFFCFFFFFFFF0000
000FFFFCFFFFFFFF0000
000FFFF8FFFFFFFF0000
001FFFF8FFFFFFFF0000
001FFFF0FFFFFFFF0000
003FFFF0FFFFFFFF0000
003FFFE0FFFFFFFF0000
007FFFC0FFFFFFFF0000
007FFFC0FFFFFFFF0000
00FFFF80FFFFFFFF0000
00FFFF80FFFF00000000
01FFFFFFFFFF00000000
01FFFFFFFFFFFFFFFFF0
03FFFFFFFFFFFFFFFFF0
03FFFFFFFFFFFFFFFFF0
07FFFFFFFFFFFFFFFFF0
07FFFFFFFFFFFFFFFFF0
0FFFFFFFFFFFFFFFFFF0
0FFFFFFFFFFFFFFFFFF0
1FFFFFFFFFFFFFFFFFF0
1FFFFFFFFFFFFFFFFFF0
3FFFE000FFFFFFFFFFF0
3FFFE000FFFFFFFFFFF0
7FFFC000FFFFFFFFFFF0
7FFFC000FFFFFFFFFFF0
FFFF8000FFFFFFFFFFF0
ENDCHAR
STARTCHAR 00C8
ENCODING 200
SWIDTH 690 0
DWIDTH 46 0
BBX 43 55 1 0
BITMAP
006000000000
00F800000000
01FF00000000
03FFE0000000
07FFFC000000
0FFFFF000000
0007FFE00000
000003F80000
000000000000
000000000000
000000000000
FFFFFFFFFFE0
FFFFFFFFFFE0
FFFFFFFFFFE0
FFFFFFFFFFE0
FFFFFFFFFFE0
FFFFFFFFFFE0
FFFFFFFFFFE0
FFFFFFFFFFE0
FFFFFFFFFFE0
FFFFFFFFFFE0
FFFFFFFFFFE0
FFFFFFFFFFE0
FFFFFFFFFFE0
FFFFFFFFFFE0
FFFF00000000
FFFF00000000
FFFFFFFF0000
FFFFFFFF0000
FFFFFFFF0000
FFFFFFFF0000
FFFFFFFF0000
FFFFFFFF0000
FFFFFFFF0000
FFFFFFFF0000
FFFFFFFF0000
FFFFFFFF0000
FFFFFFFF0000
FFFFFFFF0000
FFFF00000000
FFFF00000000
FFFFFFFFFFE0
FFFFFFFFFFE0
FFFFFFFFFFE0
FFFFFFFFFFE0
FFFFFFFFFFE0
FFFFFFFFFFE0
FFFFFFFFFFE0
FFFFFFFFFFE0
FFFFFFFFFFE0
FFFFFFFFFFE0
FFFFFFFFFFE0
FFFFFFFFFFE0
FFFFFFFFFFE0
FFFFFFFFFFE0
ENDCHAR
STARTCHAR 00C9
ENCODING 201
SWIDTH 690 0
DWIDTH 46 0
BBX 43 55 1 0
BITMAP
00000000C000
00000003E000
0000001FF000
0000007FF800
000003FFFC00
00001FFFFE00
00007FFC0000
0001FC000000
000000000000
000000000000
000000000000
FFFFFFFFFFE0
FFFFFFFFFFE0
FFFFFFFFFFE0
FFFFFFFFFFE0
FFFFFFFFFFE0
FFFFFFFFFFE0
FFFFFFFFFFE0
FFFFFFFFFFE0
FFFFFFFFFFE0
FFFFFFFFFFE0
FFFFFFFFFFE0
FFFFFFFFFFE0
FFFFFFFFFFE0
FFFFFFFFFFE0
FFFF00000000
FFFF00000000
FFFFFFFF0000
FFFFFFFF0000
FFFFFFFF0000
FFFFFFFF0000
FFFFFFFF0000
FFFFFFFF0000
FFFFFFFF0000
FFFFFFFF0000
FFFFFFFF0000
FFFFFFFF0000
FFFFFFFF0000
FFFFFFFF0000
FFFF00000000
FFFF00000000
FFFFFFFFFFE0
FFFFFFFFFFE0
FFFFFFFFFFE0
FFFFFFFFFFE0
FFFFFFFFFFE0
FFFFFFFFFFE0
FFFFFFFFFFE0
FFFFFFFFFFE0
FFFFFFFFFFE0
FFFFFFFFFFE0
FFFFFFFFFFE0
FFFFFFFFFFE0
FFFFFFFFFFE0
FFFFFFFFFFE0
ENDCHAR
STARTCHAR 00CA
ENCODING 202
SWIDTH 690 0
DWIDTH 46 0
BBX 43 55 1 0
BITMAP
0000FFE00000
0003FFF00000
0007FFFC0000
000FFBFE0000
003FE0FF8000
007FC07FC000
00FF003FE000
03FE000FF800
000000000000
000000000000
000000000000
FFFFFFFFFFE0
FFFFFFFFFFE0
FFFFFFFFFFE0
FFFFFFFFFFE0
FFFFFFFFFFE0
FFFFFFFFFFE0
FFFFFFFFFFE0
FFFFFFFFFFE0
FFFFFFFFFFE0
FFFFFFFFFFE0
FFFFFFFFFFE0
FFFFFFFFFFE0
FFFFFFFFFFE0
FFFFFFFFFFE0
FFFF00000000
FFFF00000000
FFFFFFFF0000
FFFFFFFF0000
FFFFFFFF0000
FFFFFFFF0000
FFFFFFFF0000
FFFFFFFF0000
FFFFFFFF0000
FFFFFFFF0000
FFFFFFFF0000
FFFFFFFF0000
FFFFFFFF0000
FFFFFFFF0000
FFFF00000000
FFFF00000000
FFFFFFFFFFE0
FFFFFFFFFFE0
FFFFFFFFFFE0
FFFFFFFFFFE0
FFFFFFFFFFE0
FFFFFFFFFFE0
FFFFFFFFFFE0
FFFFFFFFFFE0
FFFFFFFFFFE0
FFFFFFFFFFE0
FFFFFFFFFFE0
FFFFFFFFFFE0
FFFFFFFFFFE0
FFFFFFFFFFE0
ENDCHAR
STARTCHAR 00CB
ENCODING 203
SWIDTH 690 0
DWIDTH 46 0
BBX 43 55 1 0
BITMAP
0007801E0000
000FC03F0000
001FE07F8000
001FE07F8000
001FE07F8000
001FE07F8000
000FC03F0000
0007801E0000
000000000000
000000000000
000000000000
FFFFFFFFFFE0
FFFFFFFFFFE0
FFFFFFFFFFE0
FFFFFFFFFFE0
FFFFFFFFFFE0
FFFFFFFFFFE0
FFFFFFFFFFE0
FFFFFFFFFFE0
FFFFFFFFFFE0
FFFFFFFFFFE0
FFFFFFFFFFE0
FFFFFFFFFFE0
FFFFFFFFFFE0
FFFFFFFFFFE0
FFFF00000000
FFFF00000000
FFFFFFFF8000
FFFFFFFF8000
FFFFFFFF8000
FFFFFFFF8000
FFFFFFFF8000
FFFFFFFF8000
FFFFFFFF8000
FFFFFFFF8000
FFFFFFFF8000
FFFFFFFF8000
FFFFFFFF8000
FFFFFFFF8000
FFFF00000000
FFFF00000000
FFFFFFFFFFE0
FFFFFFFFFFE0
FFFFFFFFFFE0
FFFFFFFFFFE0
FFFFFFFFFFE0
FFFFFFFFFFE0
FFFFFFFFFFE0
FFFFFFFFFFE0
FFFFFFFFFFE0
FFFFFFFFFFE0
FFFFFFFFFFE0
FFFFFFFFFFE0
FFFFFFFFFFE0
FFFFFFFFFFE0
ENDCHAR
STARTCHAR 00CC
ENCODING 204
SWIDTH 270 0
DWIDTH 18 0
BBX 26 55 -9 0
BITMAP
06000000
0FC00000
1FF80000
3FFE0000
7FFFC000
FFFFF800
007FFE00
00003F80
00000000
00000000
00000000
003FFFC0
003FFFC0
003FFFC0
003FFFC0
003FFFC0
003FFFC0
003FFFC0
003FFFC0
003FFFC0
003FFFC0
003FFFC0
003FFFC0
003FFFC0
003FFFC0
003FFFC0
003FFFC0
003FFFC0
003FFFC0
003FFFC0
003FFFC0
003FFFC0
003FFFC0
003FFFC0
003FFFC0
003FFFC0
003FFFC0
003FFFC0
003FFFC0
003FFFC0
003FFFC0
003FFFC0
003FFFC0
003FFFC0
003FFFC0
003FFFC0
003FFFC0
003FFFC0
003FFFC0
003FFFC0
003FFFC0
003FFFC0
003FFFC0
003FFFC0
003FFFC0
ENDCHAR
STARTCHAR 00CD
ENCODING 205
SWIDTH 270 0
DWIDTH 18 0
BBX 26 55 1 0
BITMAP
00001800
0000FC00
0007FE00
001FFF00
00FFFF80
07FFFFC0
1FFF8000
7F000000
00000000
00000000
00000000
FFFF0000
FFFF0000
FFFF0000
FFFF0000
FFFF0000
FFFF0000
FFFF0000
FFFF0000
FFFF0000
FFFF0000
FFFF0000
FFFF0000
FFFF0000
FFFF0000
FFFF0000
FFFF0000
FFFF0000
FFFF0000
FFFF0000
FFFF0000
FFFF0000
FFFF0000
FFFF0000
FFFF0000
FFFF0000
FFFF0000
FFFF0000
FFFF0000
FFFF0000
FFFF0000
FFFF0000
FFFF0000
FFFF0000
FFFF0000
FFFF0000
FFFF0000
FFFF0000
FFFF0000
FFFF0000
FFFF0000
FFFF0000
FFFF0000
FFFF0000
FFFF0000
ENDCHAR
STARTCHAR 00CE
ENCODING 206
SWIDTH 270 0
DWIDTH 18 0
BBX 30 55 -6 0
BITMAP
007FF800
00FFFC00
01FFFE00
07FCFF80
0FF87FC0
1FE01FE0
7FC00FF8
FF8007FC
00000000
00000000
00000000
01FFFE00
01FFFE00
01FFFE00
01FFFE00
01FFFE00
01FFFE00
01FFFE00
01FFFE00
01FFFE00
01FFFE00
01FFFE00
01FFFE00
01FFFE00
01FFFE00
01FFFE00
01FFFE00
01FFFE00
01FFFE00
01FFFE00
01FFFE00
01FFFE00
01FFFE00
01FFFE00
01FFFE00
01FFFE00
01FFFE00
01FFFE00
01FFFE00
01FFFE00
01FFFE00
01FFFE00
01FFFE00
01FFFE00
01FFFE00
01FFFE00
01FFFE00
01FFFE00
01FFFE00
01FFFE00
01FFFE00
01FFFE00
01FFFE00
01FFFE00
01FFFE00
ENDCHAR
STARTCHAR 00CF
ENCODING 207
SWIDTH 300 0
DWIDTH 20 0
BBX 22 55 -1 0
BITMAP
3C00F0
7E01F8
FF03FC
FF03FC
FF03FC
FF03FC
7E01F8
3C00F0
000000
000000
000000
1FFFE0
1FFFE0
1FFFE0
1FFFE0
1FFFE0
1FFFE0
1FFFE0
1FFFE0
1FFFE0
1FFFE0
1FFFE0
1FFFE0
1FFFE0
1FFFE0
1FFFE0
1FFFE0
1FFFE0
1FFFE0
1FFFE0
1FFFE0
1FFFE0
1FFFE0
1FFFE0
1FFFE0
1FFFE0
1FFFE0
1FFFE0
1FFFE0
1FFFE0
1FFFE0
1FFFE0
1FFFE0
1FFFE0
1FFFE0
1FFFE0
1FFFE0
1FFFE0
1FFFE0
1FFFE0
1FFFE0
1FFFE0
1FFFE0
1FFFE0
1FFFE0
ENDCHAR
STARTCHAR 00D1
ENCODING 209
SWIDTH 735 0
DWIDTH 49 0
BBX 47 54 1 0
BITMAP
0003F8004000
000FFF81C000
000FFFFFC000
000FFFFFC000
000FFFFFC000
000E07FFC000
0008007E0000
000000000000
000000000000
000000000000
FE000003FFFE
FFF00003FFFE
FFFE0003FFFE
FFFF8003FFFE
FFFFE003FFFE
FFFFF803FFFE
FFFFFE03FFFE
FFFFFF03FFFE
FFFFFF83FFFE
FFFFFFC3FFFE
FFFFFFE3FFFE
FFFFFFF3FFFE
FFFFFFFBFFFE
FFFFFFFFFFFE
FFFFFFFFFFFE
FFFFFFFFFFFE
FFFFFFFFFFFE
FFFFFFFFFFFE
FFFFFFFFFFFE
FFFFFFFFFFFE
FFFFFFFFFFFE
FFFFFFFFFFFE
FFFFFFFFFFFE
FFFFFFFFFFFE
FFFFFFFFFFFE
FFFF7FFFFFFE
FFFF07FFFFFE
FFFF01FFFFFE
FFFF00FFFFFE
FFFF007FFFFE
FFFF003FFFFE
FFFF003FFFFE
FFFF001FFFFE
FFFF000FFFFE
FFFF000FFFFE
FFFF0007FFFE
FFFF0007FFFE
FFFF0007FFFE
FFFF0007FFFE
FFFF0003FFFE
FFFF0003FFFE
FFFF0003FFFE
FFFF0003FFFE
FFFF0003FFFE
ENDCHAR
STARTCHAR 00D2
ENCODING 210
SWIDTH 720 0
DWIDTH 48 0
BBX 46 55 1 0
BITMAP
003000000000
007E00000000
00FFC0000000
01FFF0000000
03FFFE000000
07FFFFC00000
0003FFF00000
000001FC0000
000000000000
000000000000
000000000000
00003FF00000
0001FFFE0000
000FFFFFC000
001FFFFFE000
007FFFFFF800
00FFFFFFFC00
01FFFFFFFE00
03FFFFFFFF00
07FFFFFFFF80
0FFFFFFFFFC0
1FFFFFFFFFE0
1FFFFFFFFFE0
3FFFFFFFFFF0
3FFFFFFFFFF0
7FFFF03FFFF8
7FFFC00FFFF8
7FFF8007FFF8
FFFF0003FFFC
FFFF0003FFFC
FFFE0001FFFC
FFFE0001FFFC
FFFE0001FFFC
FFFE0001FFFC
FFFE0001FFFC
FFFE0001FFFC
FFFE0003FFFC
FFFF0003FFFC
7FFF8007FFF8
7FFFC00FFFF8
7FFFF03FFFF8
3FFFFFFFFFF0
3FFFFFFFFFF0
1FFFFFFFFFE0
1FFFFFFFFFE0
0FFFFFFFFFC0
07FFFFFFFF80
03FFFFFFFF00
01FFFFFFFE00
00FFFFFFFC00
007FFFFFF800
001FFFFFE000
000FFFFFC000
0001FFFE0000
00003FF00000
ENDCHAR
STARTCHAR 00D3
ENCODING 211
SWIDTH 720 0
DWIDTH 48 0
BBX 46 55 1 0
BITMAP
000000003000
00000001F800
0000000FFC00
0000003FFE00
000001FFFF00
00000FFFFF80
00003FFF0000
0000FE000000
000000000000
000000000000
000000000000
00003FF00000
0001FFFE0000
000FFFFFC000
001FFFFFE000
007FFFFFF800
00FFFFFFFC00
01FFFFFFFE00
03FFFFFFFF00
07FFFFFFFF80
0FFFFFFFFFC0
1FFFFFFFFFE0
1FFFFFFFFFE0
3FFFFFFFFFF0
3FFFFFFFFFF0
7FFFF03FFFF8
7FFFC00FFFF8
7FFF8007FFF8
FFFF0003FFFC
FFFF0003FFFC
FFFE0001FFFC
FFFE0001FFFC
FFFE0001FFFC
FFFE0001FFFC
FFFE0001FFFC
FFFE0001FFFC
FFFE0003FFFC
FFFF0003FFFC
7FFF8007FFF8
7FFFC00FFFF8
7FFFF03FFFF8
3FFFFFFFFFF0
3FFFFFFFFFF0
1FFFFFFFFFE0
1FFFFFFFFFE0
0FFFFFFFFFC0
07FFFFFFFF80
03FFFFFFFF00
01FFFFFFFE00
00FFFFFFFC00
007FFFFFF800
001FFFFFE000
000FFFFFC000
0001FFFE0000
00003FF00000
ENDCHAR
STARTCHAR 00D4
ENCODING 212
SWIDTH 720 0
DWIDTH 48 0
BBX 46 55 1 0
BITMAP
00007FF80000
0000FFFC0000
0001FFFE0000
0007FCFF8000
000FF87FC000
001FE01FE000
007FC00FF800
00FF8007FC00
000000000000
000000000000
000000000000
00003FF00000
0001FFFE0000
000FFFFFC000
001FFFFFE000
007FFFFFF800
00FFFFFFFC00
01FFFFFFFE00
03FFFFFFFF00
07FFFFFFFF80
0FFFFFFFFFC0
1FFFFFFFFFE0
1FFFFFFFFFE0
3FFFFFFFFFF0
3FFFFFFFFFF0
7FFFF03FFFF8
7FFFC00FFFF8
7FFF8007FFF8
FFFF0003FFFC
FFFF0003FFFC
FFFE0001FFFC
FFFE0001FFFC
FFFE0001FFFC
FFFE0001FFFC
FFFE0001FFFC
FFFE0001FFFC
FFFE0003FFFC
FFFF0003FFFC
7FFF8007FFF8
7FFFC00FFFF8
7FFFF03FFFF8
3FFFFFFFFFF0
3FFFFFFFFFF0
1FFFFFFFFFE0
1FFFFFFFFFE0
0FFFFFFFFFC0
07FFFFFFFF80
03FFFFFFFF00
01FFFFFFFE00
00FFFFFFFC00
007FFFFFF800
001FFFFFE000
000FFFFFC000
0001FFFE0000
00003FF00000
ENDCHAR
STARTCHAR 00D5
ENCODING 213
SWIDTH 720 0
DWIDTH 48 0
BBX 46 54 1 0
BITMAP
0003F8004000
000FFF81C000
000FFFFFC000
000FFFFFC000
000FFFFFC000
000E07FFC000
0008007E0000
000000000000
000000000000
000000000000
00003FF00000
0001FFFE0000
000FFFFFC000
001FFFFFE000
007FFFFFF800
00FFFFFFFC00
01FFFFFFFE00
03FFFFFFFF00
07FFFFFFFF80
0FFFFFFFFFC0
1FFFFFFFFFE0
1FFFFFFFFFE0
3FFFFFFFFFF0
3FFFFFFFFFF0
7FFFF03FFFF8
7FFFC00FFFF8
7FFF8007FFF8
FFFF0003FFFC
FFFF0003FFFC
FFFE0001FFFC
FFFE0001FFFC
FFFE0001FFFC
FFFE0001FFFC
FFFE0001FFFC
FFFE0001FFFC
FFFE0003FFFC
FFFF0003FFFC
7FFF8007FFF8
7FFFC00FFFF8
7FFFF03FFFF8
3FFFFFFFFFF0
3FFFFFFFFFF0
1FFFFFFFFFE0
1FFFFFFFFFE0
0FFFFFFFFFC0
07FFFFFFFF80
03FFFFFFFF00
01FFFFFFFE00
00FFFFFFFC00
007FFFFFF800
001FFFFFE000
000FFFFFC000
0001FFFE0000
00003FF00000
ENDCHAR
STARTCHAR 00D6
ENCODING 214
SWIDTH 720 0
DWIDTH 48 0
BBX 46 55 1 0
BITMAP
0003C00F0000
0007E01F8000
000FF03FC000
000FF03FC000
000FF03FC000
000FF03FC000
0007E01F8000
0003C00F0000
000000000000
000000000000
000000000000
00003FF00000
0001FFFE0000
000FFFFFC000
001FFFFFE000
007FFFFFF800
00FFFFFFFC00
01FFFFFFFE00
03FFFFFFFF00
07FFFFFFFF80
0FFFFFFFFFC0
1FFFFFFFFFE0
1FFFFFFFFFE0
3FFFFFFFFFF0
3FFFFFFFFFF0
7FFFF03FFFF8
7FFFC00FFFF8
7FFF8007FFF8
FFFF0003FFFC
FFFF0003FFFC
FFFE0001FFFC
FFFE0001FFFC
FFFE0001FFFC
FFFE0001FFFC
FFFE0001FFFC
FFFE0001FFFC
FFFE0003FFFC
FFFF0003FFFC
7FFF8007FFF8
7FFFC00FFFF8
7FFFF03FFFF8
3FFFFFFFFFF0
3FFFFFFFFFF0
1FFFFFFFFFE0
1FFFFFFFFFE0
0FFFFFFFFFC0
07FFFFFFFF80
03FFFFFFFF00
01FFFFFFFE00
00FFFFFFFC00
007FFFFFF800
001FFFFFE000
000FFFFFC000
0001FFFE0000
00003FF00000
ENDCHAR
STARTCHAR 00D7
ENCODING 215
SWIDTH 360 0
DWIDTH 24 0
BBX 20 20 2 12
BITMAP
0C0300
1E0780
3F0FC0
7F9FE0
FFFFF0
FFFFF0
7FFFE0
3FFFC0
1FFF80
0FFF00
0FFF00
1FFF80
3FFFC0
7FFFE0
FFFFF0
FFFFF0
7F9FE0
3F0FC0
1E0780
0C0300
ENDCHAR
STARTCHAR 00D8
ENCODING 216
SWIDTH 720 0
DWIDTH 48 0
BBX 52 52 -2 -4
BITMAP
00000000000600
00000000000F00
00000000001F80
00000000003FC0
000007FE007FE0
00003FFFC0FFF0
0001FFFFF1FFE0
0003FFFFFFFFC0
000FFFFFFFFF80
001FFFFFFFFF00
003FFFFFFFFE00
007FFFFFFFFC00
00FFFFFFFFF800
01FFFFFFFFF800
03FFFFFFFFFC00
03FFFFFFFFFC00
07FFFFFFFFFE00
07FFFFFFFFFE00
0FFFFE0FFFFF00
0FFFF81FFFFF00
0FFFF03FFFFF00
1FFFE07FFFFF00
1FFFE0FFFFFF80
1FFFC1FFFFFF80
1FFFC3FFBFFF80
1FFFC7FF3FFF80
1FFFCFFE3FFF80
1FFFDFFC3FFF80
1FFFFFF83FFF80
1FFFFFF07FFF80
1FFFFFE07FFF80
0FFFFFC0FFFF00
0FFFFF81FFFF00
0FFFFF07FFFF00
07FFFFFFFFFE00
07FFFFFFFFFE00
03FFFFFFFFFC00
03FFFFFFFFFC00
01FFFFFFFFF800
01FFFFFFFFF000
03FFFFFFFFE000
07FFFFFFFFC000
0FFFFFFFFF8000
1FFFFFFFFF0000
3FFFFFFFFC0000
7FF8FFFFF80000
FFF03FFFC00000
7FE007FE000000
3FC00000000000
1F800000000000
0F000000000000
06000000000000
ENDCHAR
STARTCHAR 00D9
ENCODING 217
SWIDTH 720 0
DWIDTH 48 0
BBX 46 55 1 0
BITMAP
003000000000
007E00000000
00FFC0000000
01FFF0000000
03FFFE000000
07FFFFC00000
0003FFF00000
000001FC0000
000000000000
000000000000
000000000000
FFFE0001FFFC
FFFE0001FFFC
FFFE0001FFFC
FFFE0001FFFC
FFFE0001FFFC
FFFE0001FFFC
FFFE0001FFFC
FFFE0001FFFC
FFFE0001FFFC
FFFE0001FFFC
FFFE0001FFFC
FFFE0001FFFC
FFFE0001FFFC
FFFE0001FFFC
FFFE0001FFFC
FFFE0001FFFC
FFFE0001FFFC
FFFE0001FFFC
FFFE0001FFFC
FFFE0001FFFC
FFFE0001FFFC
FFFE0001FFFC
FFFE0001FFFC
FFFE0001FFFC
FFFE0001FFFC
FFFE0003FFFC
FFFF0003FFFC
7FFF8007FFF8
7FFFC00FFFF8
7FFFF03FFFF8
3FFFFFFFFFF0
3FFFFFFFFFF0
1FFFFFFFFFE0
1FFFFFFFFFE0
0FFFFFFFFFC0
07FFFFFFFF80
03FFFFFFFF00
01FFFFFFFE00
00FFFFFFFC00
007FFFFFF800
001FFFFFE000
000FFFFFC000
0001FFFE0000
00003FF00000
ENDCHAR
STARTCHAR 00DA
ENCODING 218
SWIDTH 720 0
DWIDTH 48 0
BBX 46 55 1 0
BITMAP
000000003000
00000001F800
0000000FFC00
0000003FFE00
000001FFFF00
00000FFFFF80
00003FFF0000
0000FE000000
000000000000
000000000000
000000000000
FFFE0001FFFC
FFFE0001FFFC
FFFE0001FFFC
FFFE0001FFFC
FFFE0001FFFC
FFFE0001FFFC
FFFE0001FFFC
FFFE0001FFFC
FFFE0001FFFC
FFFE0001FFFC
FFFE0001FFFC
FFFE0001FFFC
FFFE0001FFFC
FFFE0001FFFC
FFFE0001FFFC
FFFE0001FFFC
FFFE0001FFFC
FFFE0001FFFC
FFFE0001FFFC
FFFE0001FFFC
FFFE0001FFFC
FFFE0001FFFC
FFFE0001FFFC
FFFE0001FFFC
FFFE0001FFFC
FFFE0003FFFC
FFFF0003FFFC
7FFF8007FFF8
7FFFC00FFFF8
7FFFF03FFFF8
3FFFFFFFFFF0
3FFFFFFFFFF0
1FFFFFFFFFE0
1FFFFFFFFFE0
0FFFFFFFFFC0
07FFFFFFFF80
03FFFFFFFF00
01FFFFFFFE00
00FFFFFFFC00
007FFFFFF800
001FFFFFE000
000FFFFFC000
0001FFFE0000
00003FF00000
ENDCHAR
STARTCHAR 00DB
ENCODING 219
SWIDTH 720 0
DWIDTH 48 0
BBX 46 55 1 0
BITMAP
00007FF80000
0000FFFC0000
0001FFFE0000
0007FCFF8000
000FF87FC000
001FE01FE000
007FC00FF800
00FF8007FC00
000000000000
000000000000
000000000000
FFFE0001FFFC
FFFE0001FFFC
FFFE0001FFFC
FFFE0001FFFC
FFFE0001FFFC
FFFE0001FFFC
FFFE0001FFFC
FFFE0001FFFC
FFFE0001FFFC
FFFE0001FFFC
FFFE0001FFFC
FFFE0001FFFC
FFFE0001FFFC
FFFE0001FFFC
FFFE0001FFFC
FFFE0001FFFC
FFFE0001FFFC
FFFE0001FFFC
FFFE0001FFFC
FFFE0001FFFC
FFFE0001FFFC
FFFE0001FFFC
FFFE0001FFFC
FFFE0001FFFC
FFFE0001FFFC
FFFE0003FFFC
FFFF0003FFFC
7FFF8007FFF8
7FFFC00FFFF8
7FFFF03FFFF8
3FFFFFFFFFF0
3FFFFFFFFFF0
1FFFFFFFFFE0
1FFFFFFFFFE0
0FFFFFFFFFC0
07FFFFFFFF80
03FFFFFFFF00
01FFFFFFFE00
00FFFFFFFC00
007FFFFFF800
001FFFFFE000
000FFFFFC000
0001FFFE0000
00003FF00000
ENDCHAR
STARTCHAR 00DC
ENCODING 220
SWIDTH 720 0
DWIDTH 48 0
BBX 46 55 1 0
BITMAP
0003C00F0000
0007E01F8000
000FF03FC000
000FF03FC000
000FF03FC000
000FF03FC000
0007E01F8000
0003C00F0000
000000000000
000000000000
000000000000
FFFE0001FFFC
FFFE0001FFFC
FFFE0001FFFC
FFFE0001FFFC
FFFE0001FFFC
FFFE0001FFFC
FFFE0001FFFC
FFFE0001FFFC
FFFE0001FFFC
FFFE0001FFFC
FFFE0001FFFC
FFFE0001FFFC
FFFE0001FFFC
FFFE0001FFFC
FFFE0001FFFC
FFFE0001FFFC
FFFE0001FFFC
FFFE0001FFFC
FFFE0001FFFC
FFFE0001FFFC
FFFE0001FFFC
FFFE0001FFFC
FFFE0001FFFC
FFFE0001FFFC
FFFE0001FFFC
FFFE0003FFFC
FFFF0003FFFC
7FFF8007FFF8
7FFFC00FFFF8
7FFFF03FFFF8
3FFFFFFFFFF0
3FFFFFFFFFF0
1FFFFFFFFFE0
1FFFFFFFFFE0
0FFFFFFFFFC0
07FFFFFFFF80
03FFFFFFFF00
01FFFFFFFE00
00FFFFFFFC00
007FFFFFF800
001FFFFFE000
000FFFFFC000
0001FFFE0000
00003FF00000
ENDCHAR
STARTCHAR 00DD
ENCODING 221
SWIDTH 810 0
DWIDTH 54 0
BBX 50 55 2 0
BITMAP
000000000C0000
000000007E0000
00000003FF0000
0000000FFF8000
0000007FFFC000
000003FFFFE000
00000FFFC00000
00003F80000000
00000000000000
00000000000000
00000000000000
FFFFC000FFFFC0
FFFFE001FFFFC0
7FFFE001FFFF80
3FFFF003FFFF00
3FFFF007FFFF00
1FFFF807FFFE00
1FFFF80FFFFE00
0FFFFC0FFFFC00
0FFFFC1FFFFC00
07FFFE1FFFF800
03FFFE3FFFF000
03FFFF3FFFF000
01FFFFFFFFE000
01FFFFFFFFE000
00FFFFFFFFC000
007FFFFFFFC000
007FFFFFFF8000
003FFFFFFF0000
003FFFFFFF0000
001FFFFFFE0000
001FFFFFFE0000
000FFFFFFC0000
0007FFFFF80000
0007FFFFF80000
0003FFFFF00000
0003FFFFF00000
0001FFFFE00000
0001FFFFE00000
0000FFFFC00000
00007FFF800000
00007FFF800000
00007FFF800000
00007FFF800000
00007FFF800000
00007FFF800000
00007FFF800000
00007FFF800000
00007FFF800000
00007FFF800000
00007FFF800000
00007FFF800000
00007FFF800000
00007FFF800000
00007FFF800000
ENDCHAR
STARTCHAR 00E0
ENCODING 224
SWIDTH 780 0
DWIDTH 52 0
BBX 49 55 2 0
BITMAP
00180000000000
003F0000000000
007FE000000000
00FFF800000000
01FFFF00000000
03FFFFE0000000
0001FFF8000000
000000FE000000
00000000000000
00000000000000
00000000000000
001FFFFFF80000
001FFFFFFC0000
003FFFFFFC0000
003FFFFFFC0000
003FFFFFFC0000
003FFFFFFE0000
007FFFFFFE0000
007FFFFFFE0000
007FFFFFFE0000
007FFFFFFF0000
00FFFFFFFF0000
00FFFFFFFF0000
00FFFFFFFF8000
00FFFFFFFF8000
01FFFFFFFF8000
01FFFFFFFF8000
01FFFF7FFFC000
01FFFE7FFFC000
03FFFE7FFFC000
03FFFE3FFFC000
03FFFE3FFFE000
03FFFC3FFFE000
07FFFC3FFFE000
07FFFC1FFFE000
07FFFC1FFFF000
0FFFF81FFFF000
0FFFF81FFFF000
0FFFFFFFFFF000
0FFFFFFFFFF800
1FFFFFFFFFF800
1FFFFFFFFFF800
1FFFFFFFFFF800
1FFFFFFFFFFC00
3FFFFFFFFFFC00
3FFFFFFFFFFC00
3FFFFFFFFFFC00
3FFFFFFFFFFE00
7FFFFFFFFFFE00
7FFFC001FFFE00
7FFFC001FFFF00
7FFF8001FFFF00
FFFF8001FFFF00
FFFF8001FFFF00
FFFF8000FFFF80
ENDCHAR
STARTCHAR 00E1
ENCODING 225
SWIDTH 780 0
DWIDTH 52 0
BBX 49 55 1 0
BITMAP
000000000C0000
000000007E0000
00000003FF0000
0000000FFF8000
0000007FFFC000
000003FFFFE000
00000FFFC00000
00003F80000000
00000000000000
00000000000000
00000000000000
000FFFFFFC0000
001FFFFFFC0000
001FFFFFFE0000
001FFFFFFE0000
001FFFFFFE0000
003FFFFFFE0000
003FFFFFFF0000
003FFFFFFF0000
003FFFFFFF0000
007FFFFFFF0000
007FFFFFFF8000
007FFFFFFF8000
00FFFFFFFF8000
00FFFFFFFF8000
00FFFFFFFFC000
00FFFFFFFFC000
01FFFF7FFFC000
01FFFF3FFFC000
01FFFF3FFFE000
01FFFE3FFFE000
03FFFE3FFFE000
03FFFE1FFFE000
03FFFE1FFFF000
03FFFC1FFFF000
07FFFC1FFFF000
07FFFC0FFFF000
07FFFC0FFFF800
07FFFFFFFFF800
0FFFFFFFFFF800
0FFFFFFFFFFC00
0FFFFFFFFFFC00
0FFFFFFFFFFC00
1FFFFFFFFFFC00
1FFFFFFFFFFE00
1FFFFFFFFFFE00
3FFFFFFFFFFE00
3FFFFFFFFFFE00
3FFFFFFFFFFF00
3FFFC001FFFF00
7FFFC001FFFF00
7FFFC000FFFF00
7FFFC000FFFF80
7FFFC000FFFF80
FFFF8000FFFF80
ENDCHAR
STARTCHAR 00E2
ENCODING 226
SWIDTH 780 0
DWIDTH 52 0
BBX 49 56 1 0
BITMAP
00000FFC000000
00001FFE000000
00007FFF000000
0000FFFFC00000
0001FF3FE00000
0007FC1FF00000
000FF807FC0000
001FF003FE0000
003FC001FF0000
00000000000000
00000000000000
00000000000000
000FFFFFFC0000
001FFFFFFC0000
001FFFFFFE0000
001FFFFFFE0000
001FFFFFFE0000
003FFFFFFE0000
003FFFFFFF0000
003FFFFFFF0000
003FFFFFFF0000
007FFFFFFF0000
007FFFFFFF8000
007FFFFFFF8000
007FFFFFFF8000
00FFFFFFFF8000
00FFFFFFFFC000
00FFFFFFFFC000
01FFFF7FFFC000
01FFFF3FFFC000
01FFFF3FFFE000
01FFFF3FFFE000
03FFFE3FFFE000
03FFFE1FFFF000
03FFFE1FFFF000
03FFFC1FFFF000
07FFFC0FFFF000
07FFFC0FFFF800
07FFFC0FFFF800
07FFFFFFFFF800
0FFFFFFFFFF800
0FFFFFFFFFFC00
0FFFFFFFFFFC00
0FFFFFFFFFFC00
1FFFFFFFFFFC00
1FFFFFFFFFFE00
1FFFFFFFFFFE00
1FFFFFFFFFFE00
3FFFFFFFFFFE00
3FFFFFFFFFFF00
3FFFE001FFFF00
3FFFC001FFFF00
7FFFC000FFFF00
7FFFC000FFFF80
7FFFC000FFFF80
FFFF8000FFFF80
ENDCHAR
STARTCHAR 00E3
ENCODING 227
SWIDTH 780 0
DWIDTH 52 0
BBX 48 54 2 0
BITMAP
0001FC002000
0007FFC0E000
0007FFFFE000
0007FFFFE000
0007FFFFE000
000703FFE000
0004003F0000
000000000000
000000000000
000000000000
001FFFFFF800
003FFFFFFC00
003FFFFFFC00
003FFFFFFC00
003FFFFFFC00
007FFFFFFE00
007FFFFFFE00
007FFFFFFE00
007FFFFFFE00
00FFFFFFFF00
00FFFFFFFF00
00FFFFFFFF00
00FFFFFFFF00
01FFFFFFFF80
01FFFFFFFF80
01FFFFFFFF80
01FFFE7FFF80
03FFFE7FFFC0
03FFFE7FFFC0
03FFFE7FFFC0
07FFFC3FFFE0
07FFFC3FFFE0
07FFFC3FFFE0
07FFFC3FFFE0
0FFFF81FFFF0
0FFFF81FFFF0
0FFFF81FFFF0
0FFFFFFFFFF0
1FFFFFFFFFF8
1FFFFFFFFFF8
1FFFFFFFFFF8
1FFFFFFFFFF8
3FFFFFFFFFFC
3FFFFFFFFFFC
3FFFFFFFFFFC
3FFFFFFFFFFC
7FFFFFFFFFFE
7FFFFFFFFFFE
7FFFC003FFFE
7FFF8001FFFE
FFFF8001FFFF
FFFF8001FFFF
FFFF8001FFFF
FFFF0000FFFF
ENDCHAR
STARTCHAR 00E4
ENCODING 228
SWIDTH 780 0
DWIDTH 52 0
BBX 48 55 2 0
BITMAP
0001E0078000
0003F00FC000
0007F81FE000
0007F81FE000
0007F81FE000
0007F81FE000
0003F00FC000
0001E0078000
000000000000
000000000000
000000000000
001FFFFFF800
003FFFFFFC00
003FFFFFFC00
003FFFFFFC00
003FFFFFFC00
007FFFFFFE00
007FFFFFFE00
007FFFFFFE00
007FFFFFFE00
00FFFFFFFF00
00FFFFFFFF00
00FFFFFFFF00
00FFFFFFFF00
01FFFFFFFF80
01FFFFFFFF80
01FFFFFFFF80
01FFFE7FFF80
03FFFE7FFFC0
03FFFE7FFFC0
03FFFE7FFFC0
07FFFC3FFFE0
07FFFC3FFFE0
07FFFC3FFFE0
07FFF81FFFE0
0FFFF81FFFF0
0FFFF81FFFF0
0FFFF81FFFF0
0FFFFFFFFFF0
1FFFFFFFFFF8
1FFFFFFFFFF8
1FFFFFFFFFF8
1FFFFFFFFFF8
3FFFFFFFFFFC
3FFFFFFFFFFC
3FFFFFFFFFFC
3FFFFFFFFFFC
7FFFFFFFFFFE
7FFFFFFFFFFE
7FFF8001FFFE
7FFF8001FFFE
FFFF8001FFFF
FFFF8001FFFF
FFFF8001FFFF
FFFF0000FFFF
ENDCHAR
STARTCHAR 00E5
ENCODING 229
SWIDTH 780 0
DWIDTH 52 0
BBX 48 55 2 0
BITMAP
000003C00000
000007E00000
00000E700000
00000C300000
00000C300000
00000E700000
000007E00000
000003C00000
000000000000
000000000000
000000000000
001FFFFFF800
001FFFFFFC00
003FFFFFFC00
003FFFFFFC00
003FFFFFFC00
003FFFFFFE00
007FFFFFFE00
007FFFFFFE00
007FFFFFFE00
007FFFFFFF00
00FFFFFFFF00
00FFFFFFFF00
00FFFFFFFF00
01FFFFFFFF80
01FFFFFFFF80
01FFFFFFFF80
01FFFF7FFF80
03FFFE7FFFC0
03FFFE7FFFC0
03FFFE7FFFC0
03FFFC3FFFC0
07FFFC3FFFE0
07FFFC3FFFE0
07FFFC3FFFE0
07FFF81FFFE0
0FFFF81FFFF0
0FFFF81FFFF0
0FFFFFFFFFF0
0FFFFFFFFFF8
1FFFFFFFFFF8
1FFFFFFFFFF8
1FFFFFFFFFF8
1FFFFFFFFFFC
3FFFFFFFFFFC
3FFFFFFFFFFC
3FFFFFFFFFFC
3FFFFFFFFFFE
7FFFFFFFFFFE
7FFFC003FFFE
7FFFC001FFFE
FFFF8001FFFF
FFFF8001FFFF
FFFF8001FFFF
FFFF8000FFFF
ENDCHAR
STARTCHAR 00E6
ENCODING 230
SWIDTH 1170 0
DWIDTH 78 0
BBX 76 44 1 0
BITMAP
000003FFFFFFFFFFFFF0
000003FFFFFFFFFFFFF0
000007FFFFFFFFFFFFF0
000007FFFFFFFFFFFFF0
00000FFFFFFFFFFFFFF0
00000FFFFFFFFFFFFFF0
00001FFFFFFFFFFFFFF0
00001FFFFFFFFFFFFFF0
00003FFFFFFFFFFFFFF0
00003FFFFFFFFFFFFFF0
00007FFFFFFFFFFFFFF0
00007FFFFFFFFFFFFFF0
0000FFFFFFFFFFFFFFF0
0000FFFFFFFFFFFFFFF0
0001FFFFFFFF00000000
0001FFFFFFFF00000000
0003FFFEFFFFFFFF0000
0007FFFEFFFFFFFF0000
0007FFFCFFFFFFFF0000
000FFFFCFFFFFFFF0000
000FFFF8FFFFFFFF0000
001FFFF8FFFFFFFF0000
001FFFF0FFFFFFFF0000
003FFFF0FFFFFFFF0000
003FFFE0FFFFFFFF0000
007FFFC0FFFFFFFF0000
007FFFC0FFFFFFFF0000
00FFFF80FFFFFFFF0000
00FFFF80FFFF00000000
01FFFFFFFFFF00000000
01FFFFFFFFFFFFFFFFF0
03FFFFFFFFFFFFFFFFF0
03FFFFFFFFFFFFFFFFF0
07FFFFFFFFFFFFFFFFF0
07FFFFFFFFFFFFFFFFF0
0FFFFFFFFFFFFFFFFFF0
0FFFFFFFFFFFFFFFFFF0
1FFFFFFFFFFFFFFFFFF0
1FFFFFFFFFFFFFFFFFF0
3FFFE000FFFFFFFFFFF0
3FFFE000FFFFFFFFFFF0
7FFFC000FFFFFFFFFFF0
7FFFC000FFFFFFFFFFF0
FFFF8000FFFFFFFFFFF0
ENDCHAR
STARTCHAR 00E8
ENCODING 232
SWIDTH 690 0
DWIDTH 46 0
BBX 43 55 1 0
BITMAP
006000000000
00F800000000
01FF00000000
03FFE0000000
07FFFC000000
0FFFFF000000
0007FFE00000
000003F80000
000000000000
000000000000
000000000000
FFFFFFFFFFE0
FFFFFFFFFFE0
FFFFFFFFFFE0
FFFFFFFFFFE0
FFFFFFFFFFE0
FFFFFFFFFFE0
FFFFFFFFFFE0
FFFFFFFFFFE0
FFFFFFFFFFE0
FFFFFFFFFFE0
FFFFFFFFFFE0
FFFFFFFFFFE0
FFFFFFFFFFE0
FFFFFFFFFFE0
FFFF00000000
FFFF00000000
FFFFFFFF0000
FFFFFFFF0000
FFFFFFFF0000
FFFFFFFF0000
FFFFFFFF0000
FFFFFFFF0000
FFFFFFFF0000
FFFFFFFF0000
FFFFFFFF0000
FFFFFFFF0000
FFFFFFFF0000
FFFFFFFF0000
FFFF00000000
FFFF00000000
FFFFFFFFFFE0
FFFFFFFFFFE0
FFFFFFFFFFE0
FFFFFFFFFFE0
FFFFFFFFFFE0
FFFFFFFFFFE0
FFFFFFFFFFE0
FFFFFFFFFFE0
FFFFFFFFFFE0
FFFFFFFFFFE0
FFFFFFFFFFE0
FFFFFFFFFFE0
FFFFFFFFFFE0
FFFFFFFFFFE0
ENDCHAR
STARTCHAR 00E9
ENCODING 233
SWIDTH 690 0
DWIDTH 46 0
BBX 43 55 1 0
BITMAP
00000000C000
00000003E000
0000001FF000
0000007FF800
000003FFFC00
00001FFFFE00
00007FFC0000
0001FC000000
000000000000
000000000000
000000000000
FFFFFFFFFFE0
FFFFFFFFFFE0
FFFFFFFFFFE0
FFFFFFFFFFE0
FFFFFFFFFFE0
FFFFFFFFFFE0
FFFFFFFFFFE0
FFFFFFFFFFE0
FFFFFFFFFFE0
FFFFFFFFFFE0
FFFFFFFFFFE0
FFFFFFFFFFE0
FFFFFFFFFFE0
FFFFFFFFFFE0
FFFF00000000
FFFF00000000
FFFFFFFF0000
FFFFFFFF0000
FFFFFFFF0000
FFFFFFFF0000
FFFFFFFF0000
FFFFFFFF0000
FFFFFFFF0000
FFFFFFFF0000
FFFFFFFF0000
FFFFFFFF0000
FFFFFFFF0000
FFFFFFFF0000
FFFF00000000
FFFF00000000
FFFFFFFFFFE0
FFFFFFFFFFE0
FFFFFFFFFFE0
FFFFFFFFFFE0
FFFFFFFFFFE0
FFFFFFFFFFE0
FFFFFFFFFFE0
FFFFFFFFFFE0
FFFFFFFFFFE0
FFFFFFFFFFE0
FFFFFFFFFFE0
FFFFFFFFFFE0
FFFFFFFFFFE0
FFFFFFFFFFE0
ENDCHAR
STARTCHAR 00EA
ENCODING 234
SWIDTH 690 0
DWIDTH 46 0
BBX 43 55 1 0
BITMAP
0000FFE00000
0003FFF00000
0007FFFC0000
000FFBFE0000
003FE0FF8000
007FC07FC000
00FF003FE000
03FE000FF800
000000000000
000000000000
000000000000
FFFFFFFFFFE0
FFFFFFFFFFE0
FFFFFFFFFFE0
FFFFFFFFFFE0
FFFFFFFFFFE0
FFFFFFFFFFE0
FFFFFFFFFFE0
FFFFFFFFFFE0
FFFFFFFFFFE0
FFFFFFFFFFE0
FFFFFFFFFFE0
FFFFFFFFFFE0
FFFFFFFFFFE0
FFFFFFFFFFE0
FFFF00000000
FFFF00000000
FFFFFFFF0000
FFFFFFFF0000
FFFFFFFF0000
FFFFFFFF0000
FFFFFFFF0000
FFFFFFFF0000
FFFFFFFF0000
FFFFFFFF0000
FFFFFFFF0000
FFFFFFFF0000
FFFFFFFF0000
FFFFFFFF0000
FFFF00000000
FFFF00000000
FFFFFFFFFFE0
FFFFFFFFFFE0
FFFFFFFFFFE0
FFFFFFFFFFE0
FFFFFFFFFFE0
FFFFFFFFFFE0
FFFFFFFFFFE0
FFFFFFFFFFE0
FFFFFFFFFFE0
FFFFFFFFFFE0
FFFFFFFFFFE0
FFFFFFFFFFE0
FFFFFFFFFFE0
FFFFFFFFFFE0
ENDCHAR
STARTCHAR 00EB
ENCODING 235
SWIDTH 690 0
DWIDTH 46 0
BBX 43 55 1 0
BITMAP
0007801E0000
000FC03F0000
001FE07F8000
001FE07F8000
001FE07F8000
001FE07F8000
000FC03F0000
0007801E0000
000000000000
000000000000
000000000000
FFFFFFFFFFE0
FFFFFFFFFFE0
FFFFFFFFFFE0
FFFFFFFFFFE0
FFFFFFFFFFE0
FFFFFFFFFFE0
FFFFFFFFFFE0
FFFFFFFFFFE0
FFFFFFFFFFE0
FFFFFFFFFFE0
FFFFFFFFFFE0
FFFFFFFFFFE0
FFFFFFFFFFE0
FFFFFFFFFFE0
FFFF00000000
FFFF00000000
FFFFFFFF8000
FFFFFFFF8000
FFFFFFFF8000
FFFFFFFF8000
FFFFFFFF8000
FFFFFFFF8000
FFFFFFFF8000
FFFFFFFF8000
FFFFFFFF8000
FFFFFFFF8000
FFFFFFFF8000
FFFFFFFF8000
FFFF00000000
FFFF00000000
FFFFFFFFFFE0
FFFFFFFFFFE0
FFFFFFFFFFE0
FFFFFFFFFFE0
FFFFFFFFFFE0
FFFFFFFFFFE0
FFFFFFFFFFE0
FFFFFFFFFFE0
FFFFFFFFFFE0
FFFFFFFFFFE0
FFFFFFFFFFE0
FFFFFFFFFFE0
FFFFFFFFFFE0
FFFFFFFFFFE0
ENDCHAR
STARTCHAR 00EC
ENCODING 236
SWIDTH 270 0
DWIDTH 18 0
BBX 26 55 -9 0
BITMAP
06000000
0FC00000
1FF80000
3FFE0000
7FFFC000
FFFFF800
007FFE00
00003F80
00000000
00000000
00000000
003FFFC0
003FFFC0
003FFFC0
003FFFC0
003FFFC0
003FFFC0
003FFFC0
003FFFC0
003FFFC0
003FFFC0
003FFFC0
003FFFC0
003FFFC0
003FFFC0
003FFFC0
003FFFC0
003FFFC0
003FFFC0
003FFFC0
003FFFC0
003FFFC0
003FFFC0
003FFFC0
003FFFC0
003FFFC0
003FFFC0
003FFFC0
003FFFC0
003FFFC0
003FFFC0
003FFFC0
003FFFC0
003FFFC0
003FFFC0
003FFFC0
003FFFC0
003FFFC0
003FFFC0
003FFFC0
003FFFC0
003FFFC0
003FFFC0
003FFFC0
003FFFC0
ENDCHAR
STARTCHAR 00ED
ENCODING 237
SWIDTH 270 0
DWIDTH 18 0
BBX 26 55 1 0
BITMAP
00001800
0000FC00
0007FE00
001FFF00
00FFFF80
07FFFFC0
1FFF8000
7F000000
00000000
00000000
00000000
FFFF0000
FFFF0000
FFFF0000
FFFF0000
FFFF0000
FFFF0000
FFFF0000
FFFF0000
FFFF0000
FFFF0000
FFFF0000
FFFF0000
FFFF0000
FFFF0000
FFFF0000
FFFF0000
FFFF0000
FFFF0000
FFFF0000
FFFF0000
FFFF0000
FFFF0000
FFFF0000
FFFF0000
FFFF0000
FFFF0000
FFFF0000
FFFF0000
FFFF0000
FFFF0000
FFFF0000
FFFF0000
FFFF0000
FFFF0000
FFFF0000
FFFF0000
FFFF0000
FFFF0000
FFFF0000
FFFF0000
FFFF0000
FFFF0000
FFFF0000
FFFF0000
ENDCHAR
STARTCHAR 00EE
ENCODING 238
SWIDTH 270 0
DWIDTH 18 0
BBX 30 55 -6 0
BITMAP
007FF800
00FFFC00
01FFFE00
07FCFF80
0FF87FC0
1FE01FE0
7FC00FF8
FF8007FC
00000000
00000000
00000000
01FFFE00
01FFFE00
01FFFE00
01FFFE00
01FFFE00
01FFFE00
01FFFE00
01FFFE00
01FFFE00
01FFFE00
01FFFE00
01FFFE00
01FFFE00
01FFFE00
01FFFE00
01FFFE00
01FFFE00
01FFFE00
01FFFE00
01FFFE00
01FFFE00
01FFFE00
01FFFE00
01FFFE00
01FFFE00
01FFFE00
01FFFE00
01FFFE00
01FFFE00
01FFFE00
01FFFE00
01FFFE00
01FFFE00
01FFFE00
01FFFE00
01FFFE00
01FFFE00
01FFFE00
01FFFE00
01FFFE00
01FFFE00
01FFFE00
01FFFE00
01FFFE00
ENDCHAR
STARTCHAR 00EF
ENCODING 239
SWIDTH 300 0
DWIDTH 20 0
BBX 22 55 -1 0
BITMAP
3C00F0
7E01F8
FF03FC
FF03FC
FF03FC
FF03FC
7E01F8
3C00F0
000000
000000
000000
1FFFE0
1FFFE0
1FFFE0
1FFFE0
1FFFE0
1FFFE0
1FFFE0
1FFFE0
1FFFE0
1FFFE0
1FFFE0
1FFFE0
1FFFE0
1FFFE0
1FFFE0
1FFFE0
1FFFE0
1FFFE0
1FFFE0
1FFFE0
1FFFE0
1FFFE0
1FFFE0
1FFFE0
1FFFE0
1FFFE0
1FFFE0
1FFFE0
1FFFE0
1FFFE0
1FFFE0
1FFFE0
1FFFE0
1FFFE0
1FFFE0
1FFFE0
1FFFE0
1FFFE0
1FFFE0
1FFFE0
1FFFE0
1FFFE0
1FFFE0
1FFFE0
ENDCHAR
STARTCHAR 00F1
ENCODING 241
SWIDTH 720 0
DWIDTH 48 0
BBX 46 54 1 0
BITMAP
0003F8004000
000FFF81C000
000FFFFFC000
000FFFFFC000
000FFFFFC000
000E07FFC000
0008007E0000
000000000000
000000000000
000000000000
FFFF0003FFFC
FFFF8003FFFC
FFFFC003FFFC
FFFFE003FFFC
FFFFF003FFFC
FFFFF003FFFC
FFFFF803FFFC
FFFFFC03FFFC
FFFFFE03FFFC
FFFFFF03FFFC
FFFFFF03FFFC
FFFFFF83FFFC
FFFFFFC3FFFC
FFFFFFE3FFFC
FFFFFFF3FFFC
FFFFFFF3FFFC
FFFFFFFBFFFC
FFFFFFFFFFFC
FFFFFFFFFFFC
FFFFFFFFFFFC
FFFFFFFFFFFC
FFFFFFFFFFFC
FFFFFFFFFFFC
FFFFFFFFFFFC
FFFFFFFFFFFC
FFFFFFFFFFFC
FFFFFFFFFFFC
FFFF7FFFFFFC
FFFF3FFFFFFC
FFFF3FFFFFFC
FFFF1FFFFFFC
FFFF0FFFFFFC
FFFF07FFFFFC
FFFF03FFFFFC
FFFF03FFFFFC
FFFF01FFFFFC
FFFF00FFFFFC
FFFF007FFFFC
FFFF003FFFFC
FFFF003FFFFC
FFFF001FFFFC
FFFF000FFFFC
FFFF0007FFFC
FFFF0003FFFC
ENDCHAR
STARTCHAR 00F2
ENCODING 242
SWIDTH 720 0
DWIDTH 48 0
BBX 46 55 1 0
BITMAP
003000000000
007E00000000
00FFC0000000
01FFF0000000
03FFFE000000
07FFFFC00000
0003FFF00000
000001FC0000
000000000000
000000000000
000000000000
00003FF00000
0001FFFE0000
000FFFFFC000
001FFFFFE000
007FFFFFF800
00FFFFFFFC00
01FFFFFFFE00
03FFFFFFFF00
07FFFFFFFF80
0FFFFFFFFFC0
1FFFFFFFFFE0
1FFFFFFFFFE0
3FFFFFFFFFF0
3FFFFFFFFFF0
7FFFF03FFFF8
7FFFC00FFFF8
7FFF8007FFF8
FFFF0003FFFC
FFFF0003FFFC
FFFE0001FFFC
FFFE0001FFFC
FFFE0001FFFC
FFFE0001FFFC
FFFE0001FFFC
FFFE0001FFFC
FFFE0003FFFC
FFFF0003FFFC
7FFF8007FFF8
7FFFC00FFFF8
7FFFF03FFFF8
3FFFFFFFFFF0
3FFFFFFFFFF0
1FFFFFFFFFE0
1FFFFFFFFFE0
0FFFFFFFFFC0
07FFFFFFFF80
03FFFFFFFF00
01FFFFFFFE00
00FFFFFFFC00
007FFFFFF800
001FFFFFE000
000FFFFFC000
0001FFFE0000
00003FF00000
ENDCHAR
STARTCHAR 00F3
ENCODING 243
SWIDTH 720 0
DWIDTH 48 0
BBX 46 55 1 0
BITMAP
000000003000
00000001F800
0000000FFC00
0000003FFE00
000001FFFF00
00000FFFFF80
00003FFF0000
0000FE000000
000000000000
000000000000
000000000000
00003FF00000
0001FFFE0000
000FFFFFC000
001FFFFFE000
007FFFFFF800
00FFFFFFFC00
01FFFFFFFE00
03FFFFFFFF00
07FFFFFFFF80
0FFFFFFFFFC0
1FFFFFFFFFE0
1FFFFFFFFFE0
3FFFFFFFFFF0
3FFFFFFFFFF0
7FFFF03FFFF8
7FFFC00FFFF8
7FFF8007FFF8
FFFF0003FFFC
FFFF0003FFFC
FFFE0001FFFC
FFFE0001FFFC
FFFE0001FFFC
FFFE0001FFFC
FFFE0001FFFC
FFFE0001FFFC
FFFE0003FFFC
FFFF0003FFFC
7FFF8007FFF8
7FFFC00FFFF8
7FFFF03FFFF8
3FFFFFFFFFF0
3FFFFFFFFFF0
1FFFFFFFFFE0
1FFFFFFFFFE0
0FFFFFFFFFC0
07FFFFFFFF80
03FFFFFFFF00
01FFFFFFFE00
00FFFFFFFC00
007FFFFFF800
001FFFFFE000
000FFFFFC000
0001FFFE0000
00003FF00000
ENDCHAR
STARTCHAR 00F4
ENCODING 244
SWIDTH 720 0
DWIDTH 48 0
BBX 46 55 1 0
BITMAP
00007FF80000
0000FFFC0000
0001FFFE0000
0007FCFF8000
000FF87FC000
001FE01FE000
007FC00FF800
00FF8007FC00
000000000000
000000000000
000000000000
00003FF00000
0001FFFE0000
000FFFFFC000
001FFFFFE000
007FFFFFF800
00FFFFFFFC00
01FFFFFFFE00
03FFFFFFFF00
07FFFFFFFF80
0FFFFFFFFFC0
1FFFFFFFFFE0
1FFFFFFFFFE0
3FFFFFFFFFF0
3FFFFFFFFFF0
7FFFF03FFFF8
7FFFC00FFFF8
7FFF8007FFF8
FFFF0003FFFC
FFFF0003FFFC
FFFE0001FFFC
FFFE0001FFFC
FFFE0001FFFC
FFFE0001FFFC
FFFE0001FFFC
FFFE0001FFFC
FFFE0003FFFC
FFFF0003FFFC
7FFF8007FFF8
7FFFC00FFFF8
7FFFF03FFFF8
3FFFFFFFFFF0
3FFFFFFFFFF0
1FFFFFFFFFE0
1FFFFFFFFFE0
0FFFFFFFFFC0
07FFFFFFFF80
03FFFFFFFF00
01FFFFFFFE00
00FFFFFFFC00
007FFFFFF800
001FFFFFE000
000FFFFFC000
0001FFFE0000
00003FF00000
ENDCHAR
STARTCHAR 00F5
ENCODING 245
SWIDTH 720 0
DWIDTH 48 0
BBX 46 54 1 0
BITMAP
0003F8004000
000FFF81C000
000FFFFFC000
000FFFFFC000
000FFFFFC000
000E07FFC000
0008007E0000
000000000000
000000000000
000000000000
00003FF00000
0001FFFE0000
000FFFFFC000
001FFFFFE000
007FFFFFF800
00FFFFFFFC00
01FFFFFFFE00
03FFFFFFFF00
07FFFFFFFF80
0FFFFFFFFFC0
1FFFFFFFFFE0
1FFFFFFFFFE0
3FFFFFFFFFF0
3FFFFFFFFFF0
7FFFF03FFFF8
7FFFC00FFFF8
7FFF8007FFF8
FFFF0003FFFC
FFFF0003FFFC
FFFE0001FFFC
FFFE0001FFFC
FFFE0001FFFC
FFFE0001FFFC
FFFE0001FFFC
FFFE0001FFFC
FFFE0003FFFC
FFFF0003FFFC
7FFF8007FFF8
7FFFC00FFFF8
7FFFF03FFFF8
3FFFFFFFFFF0
3FFFFFFFFFF0
1FFFFFFFFFE0
1FFFFFFFFFE0
0FFFFFFFFFC0
07FFFFFFFF80
03FFFFFFFF00
01FFFFFFFE00
00FFFFFFFC00
007FFFFFF800
001FFFFFE000
000FFFFFC000
0001FFFE0000
00003FF00000
ENDCHAR
STARTCHAR 00F6
ENCODING 246
SWIDTH 720 0
DWIDTH 48 0
BBX 46 55 1 0
BITMAP
0003C00F0000
0007E01F8000
000FF03FC000
000FF03FC000
000FF03FC000
000FF03FC000
0007E01F8000
0003C00F0000
000000000000
000000000000
000000000000
00003FF00000
0001FFFE0000
000FFFFFC000
001FFFFFE000
007FFFFFF800
00FFFFFFFC00
01FFFFFFFE00
03FFFFFFFF00
07FFFFFFFF80
0FFFFFFFFFC0
1FFFFFFFFFE0
1FFFFFFFFFE0
3FFFFFFFFFF0
3FFFFFFFFFF0
7FFFF03FFFF8
7FFFC00FFFF8
7FFF8007FFF8
FFFF0003FFFC
FFFF0003FFFC
FFFE0001FFFC
FFFE0001FFFC
FFFE0001FFFC
FFFE0001FFFC
FFFE0001FFFC
FFFE0001FFFC
FFFE0003FFFC
FFFF0003FFFC
7FFF8007FFF8
7FFFC00FFFF8
7FFFF03FFFF8
3FFFFFFFFFF0
3FFFFFFFFFF0
1FFFFFFFFFE0
1FFFFFFFFFE0
0FFFFFFFFFC0
07FFFFFFFF80
03FFFFFFFF00
01FFFFFFFE00
00FFFFFFFC00
007FFFFFF800
001FFFFFE000
000FFFFFC000
0001FFFE0000
00003FF00000
ENDCHAR
STARTCHAR 00F7
ENCODING 247
SWIDTH 360 0
DWIDTH 24 0
BBX 22 27 1 9
BITMAP
007800
00FC00
01FE00
01FE00
01FE00
01FE00
00FC00
007800
000000
000000
FFFFFC
FFFFFC
FFFFFC
FFFFFC
FFFFFC
FFFFFC
FFFFFC
FFFFFC
000000
007800
00FC00
01FE00
01FE00
01FE00
01FE00
00FC00
007800
ENDCHAR
STARTCHAR 00F8
ENCODING 248
SWIDTH 720 0
DWIDTH 48 0
BBX 52 52 -2 -4
BITMAP
00000000000600
00000000000F00
00000000001F80
00000000003FC0
000007FE007FE0
00003FFFC0FFF0
0001FFFFF1FFE0
0003FFFFFFFFC0
000FFFFFFFFF80
001FFFFFFFFF00
003FFFFFFFFE00
007FFFFFFFFC00
00FFFFFFFFF800
01FFFFFFFFF800
03FFFFFFFFFC00
03FFFFFFFFFC00
07FFFFFFFFFE00
07FFFFFFFFFE00
0FFFFE0FFFFF00
0FFFF81FFFFF00
0FFFF03FFFFF00
1FFFE07FFFFF00
1FFFE0FFFFFF80
1FFFC1FFFFFF80
1FFFC3FFBFFF80
1FFFC7FF3FFF80
1FFFCFFE3FFF80
1FFFDFFC3FFF80
1FFFFFF83FFF80
1FFFFFF07FFF80
1FFFFFE07FFF80
0FFFFFC0FFFF00
0FFFFF81FFFF00
0FFFFF07FFFF00
07FFFFFFFFFE00
07FFFFFFFFFE00
03FFFFFFFFFC00
03FFFFFFFFFC00
01FFFFFFFFF800
01FFFFFFFFF000
03FFFFFFFFE000
07FFFFFFFFC000
0FFFFFFFFF8000
1FFFFFFFFF0000
3FFFFFFFFC0000
7FF8FFFFF80000
FFF03FFFC00000
7FE007FE000000
3FC00000000000
1F800000000000
0F000000000000
06000000000000
ENDCHAR
STARTCHAR 00F9
ENCODING 249
SWIDTH 720 0
DWIDTH 48 0
BBX 46 55 1 0
BITMAP
003000000000
007E00000000
00FFC0000000
01FFF0000000
03FFFE000000
07FFFFC00000
0003FFF00000
000001FC0000
000000000000
000000000000
000000000000
FFFE0001FFFC
FFFE0001FFFC
FFFE0001FFFC
FFFE0001FFFC
FFFE0001FFFC
FFFE0001FFFC
FFFE0001FFFC
FFFE0001FFFC
FFFE0001FFFC
FFFE0001FFFC
FFFE0001FFFC
FFFE0001FFFC
FFFE0001FFFC
FFFE0001FFFC
FFFE0001FFFC
FFFE0001FFFC
FFFE0001FFFC
FFFE0001FFFC
FFFE0001FFFC
FFFE0001FFFC
FFFE0001FFFC
FFFE0001FFFC
FFFE0001FFFC
FFFE0001FFFC
FFFE0001FFFC
FFFE0003FFFC
FFFF0003FFFC
7FFF8007FFF8
7FFFC00FFFF8
7FFFF03FFFF8
3FFFFFFFFFF0
3FFFFFFFFFF0
1FFFFFFFFFE0
1FFFFFFFFFE0
0FFFFFFFFFC0
07FFFFFFFF80
03FFFFFFFF00
01FFFFFFFE00
00FFFFFFFC00
007FFFFFF800
001FFFFFE000
000FFFFFC000
0001FFFE0000
00003FF00000
ENDCHAR
STARTCHAR 00FA
ENCODING 250
SWIDTH 720 0
DWIDTH 48 0
BBX 46 55 1 0
BITMAP
000000003000
00000001F800
0000000FFC00
0000003FFE00
000001FFFF00
00000FFFFF80
00003FFF0000
0000FE000000
000000000000
000000000000
000000000000
FFFE0001FFFC
FFFE0001FFFC
FFFE0001FFFC
FFFE0001FFFC
FFFE0001FFFC
FFFE0001FFFC
FFFE0001FFFC
FFFE0001FFFC
FFFE0001FFFC
FFFE0001FFFC
FFFE0001FFFC
FFFE0001FFFC
FFFE0001FFFC
FFFE0001FFFC
FFFE0001FFFC
FFFE0001FFFC
FFFE0001FFFC
FFFE0001FFFC
FFFE0001FFFC
FFFE0001FFFC
FFFE0001FFFC
FFFE0001FFFC
FFFE0001FFFC
FFFE0001FFFC
FFFE0001FFFC
FFFE0003FFFC
FFFF0003FFFC
7FFF8007FFF8
7FFFC00FFFF8
7FFFF03FFFF8
3FFFFFFFFFF0
3FFFFFFFFFF0
1FFFFFFFFFE0
1FFFFFFFFFE0
0FFFFFFFFFC0
07FFFFFFFF80
03FFFFFFFF00
01FFFFFFFE00
00FFFFFFFC00
007FFFFFF800
001FFFFFE000
000FFFFFC000
0001FFFE0000
00003FF00000
ENDCHAR
STARTCHAR 00FB
ENCODING 251
SWIDTH 720 0
DWIDTH 48 0
BBX 46 55 1 0
BITMAP
00007FF80000
0000FFFC0000
0001FFFE0000
0007FCFF8000
000FF87FC000
001FE01FE000
007FC00FF800
00FF8007FC00
000000000000
000000000000
000000000000
FFFE0001FFFC
FFFE0001FFFC
FFFE0001FFFC
FFFE0001FFFC
FFFE0001FFFC
FFFE0001FFFC
FFFE0001FFFC
FFFE0001FFFC
FFFE0001FFFC
FFFE0001FFFC
FFFE0001FFFC
FFFE0001FFFC
FFFE0001FFFC
FFFE0001FFFC
FFFE0001FFFC
FFFE0001FFFC
FFFE0001FFFC
FFFE0001FFFC
FFFE0001FFFC
FFFE0001FFFC
FFFE0001FFFC
FFFE0001FFFC
FFFE0001FFFC
FFFE0001FFFC
FFFE0001FFFC
FFFE0003FFFC
FFFF0003FFFC
7FFF8007FFF8
7FFFC00FFFF8
7FFFF03FFFF8
3FFFFFFFFFF0
3FFFFFFFFFF0
1FFFFFFFFFE0
1FFFFFFFFFE0
0FFFFFFFFFC0
07FFFFFFFF80
03FFFFFFFF00
01FFFFFFFE00
00FFFFFFFC00
007FFFFFF800
001FFFFFE000
000FFFFFC000
0001FFFE0000
00003FF00000
ENDCHAR
STARTCHAR 00FC
ENCODING 252
SWIDTH 720 0
DWIDTH 48 0
BBX 46 55 1 0
BITMAP
0003C00F0000
0007E01F8000
000FF03FC000
000FF03FC000
000FF03FC000
000FF03FC000
0007E01F8000
0003C00F0000
000000000000
000000000000
000000000000
FFFE0001FFFC
FFFE0001FFFC
FFFE0001FFFC
FFFE0001FFFC
FFFE0001FFFC
FFFE0001FFFC
FFFE0001FFFC
FFFE0001FFFC
FFFE0001FFFC
FFFE0001FFFC
FFFE0001FFFC
FFFE0001FFFC
FFFE0001FFFC
FFFE0001FFFC
FFFE0001FFFC
FFFE0001FFFC
FFFE0001FFFC
FFFE0001FFFC
FFFE0001FFFC
FFFE0001FFFC
FFFE0001FFFC
FFFE0001FFFC
FFFE0001FFFC
FFFE0001FFFC
FFFE0001FFFC
FFFE0003FFFC
FFFF0003FFFC
7FFF8007FFF8
7FFFC00FFFF8
7FFFF03FFFF8
3FFFFFFFFFF0
3FFFFFFFFFF0
1FFFFFFFFFE0
1FFFFFFFFFE0
0FFFFFFFFFC0
07FFFFFFFF80
03FFFFFFFF00
01FFFFFFFE00
00FFFFFFFC00
007FFFFFF800
001FFFFFE000
000FFFFFC000
0001FFFE0000
00003FF00000
ENDCHAR
STARTCHAR 00FD
ENCODING 253
SWIDTH 810 0
DWIDTH 54 0
BBX 50 55 2 0
BITMAP
000000000C0000
000000007E0000
00000003FF0000
0000000FFF8000
0000007FFFC000
000003FFFFE000
00000FFFC00000
00003F80000000
00000000000000
00000000000000
00000000000000
FFFFC000FFFFC0
FFFFE001FFFFC0
7FFFE001FFFF80
3FFFF003FFFF00
3FFFF007FFFF00
1FFFF807FFFE00
1FFFF80FFFFE00
0FFFFC0FFFFC00
0FFFFC1FFFFC00
07FFFE1FFFF800
03FFFE3FFFF000
03FFFF3FFFF000
01FFFFFFFFE000
01FFFFFFFFE000
00FFFFFFFFC000
007FFFFFFFC000
007FFFFFFF8000
003FFFFFFF0000
003FFFFFFF0000
001FFFFFFE0000
001FFFFFFE0000
000FFFFFFC0000
0007FFFFF80000
0007FFFFF80000
0003FFFFF00000
0003FFFFF00000
0001FFFFE00000
0001FFFFE00000
0000FFFFC00000
00007FFF800000
00007FFF800000
00007FFF800000
00007FFF800000
00007FFF800000
00007FFF800000
00007FFF800000
00007FFF800000
00007FFF800000
00007FFF800000
00007FFF800000
00007FFF800000
00007FFF800000
00007FFF800000
00007FFF800000
ENDCHAR
STARTCHAR 00FF
ENCODING 255
SWIDTH 810 0
DWIDTH 54 0
BBX 50 55 2 0
BITMAP
0000F003C00000
0001F807E00000
0003FC0FF00000
0003FC0FF00000
0003FC0FF00000
0003FC0FF00000
0001F807E00000
0000F003C00000
00000000000000
00000000000000
00000000000000
FFFFC000FFFFC0
FFFFE001FFFFC0
7FFFE001FFFF80
7FFFF003FFFF80
3FFFF003FFFF00
1FFFF807FFFF00
1FFFFC0FFFFE00
0FFFFC0FFFFC00
0FFFFE1FFFFC00
07FFFE1FFFF800
07FFFF3FFFF800
03FFFF3FFFF000
01FFFFFFFFE000
01FFFFFFFFE000
00FFFFFFFFC000
00FFFFFFFFC000
007FFFFFFF8000
003FFFFFFF0000
003FFFFFFF0000
001FFFFFFE0000
001FFFFFFE0000
000FFFFFFC0000
000FFFFFFC0000
0007FFFFF80000
0003FFFFF00000
0003FFFFF00000
0001FFFFE00000
0001FFFFE00000
0000FFFFC00000
00007FFF800000
00007FFF800000
00007FFF800000
00007FFF800000
00007FFF800000
00007FFF800000
00007FFF800000
00007FFF800000
00007FFF800000
00007FFF800000
00007FFF800000
00007FFF800000
00007FFF800000
00007FFF800000
00007FFF800000
ENDCHAR
STARTCHAR 0152
ENCODING 338
SWIDTH 1170 0
DWIDTH 78 0
BBX 76 44 1 0
BITMAP
00003FF0FFFFFFFFFFF0
0001FFFFFFFFFFFFFFF0
0007FFFFFFFFFFFFFFF0
001FFFFFFFFFFFFFFFF0
007FFFFFFFFFFFFFFFF0
00FFFFFFFFFFFFFFFFF0
01FFFFFFFFFFFFFFFFF0
03FFFFFFFFFFFFFFFFF0
07FFFFFFFFFFFFFFFFF0
0FFFFFFFFFFFFFFFFFF0
1FFFFFFFFFFFFFFFFFF0
1FFFFFFFFFFFFFFFFFF0
3FFFFFFFFFFFFFFFFFF0
3FFFFFFFFFFFFFFFFFF0
7FFFF01FFFFF00000000
7FFFC007FFFF00000000
7FFF8003FFFFFFFF8000
FFFF0001FFFFFFFF8000
FFFF0001FFFFFFFF8000
FFFE0000FFFFFFFF8000
FFFE0000FFFFFFFF8000
FFFE0000FFFFFFFF8000
FFFE0000FFFFFFFF8000
FFFE0000FFFFFFFF8000
FFFE0000FFFFFFFF8000
FFFE0001FFFFFFFF8000
FFFF0001FFFFFFFF8000
7FFF8003FFFFFFFF8000
7FFFC007FFFF00000000
7FFFF01FFFFF00000000
3FFFFFFFFFFFFFFFFFF0
3FFFFFFFFFFFFFFFFFF0
1FFFFFFFFFFFFFFFFFF0
1FFFFFFFFFFFFFFFFFF0
0FFFFFFFFFFFFFFFFFF0
07FFFFFFFFFFFFFFFFF0
03FFFFFFFFFFFFFFFFF0
01FFFFFFFFFFFFFFFFF0
00FFFFFFFFFFFFFFFFF0
007FFFFFFFFFFFFFFFF0
001FFFFFFFFFFFFFFFF0
0007FFFFFFFFFFFFFFF0
0001FFFFFFFFFFFFFFF0
00003FF0FFFFFFFFFFF0
ENDCHAR
STARTCHAR 0153
ENCODING 339
SWIDTH 1170 0
DWIDTH 78 0
BBX 76 44 1 0
BITMAP
00003FF0FFFFFFFFFFF0
0001FFFFFFFFFFFFFFF0
0007FFFFFFFFFFFFFFF0
001FFFFFFFFFFFFFFFF0
007FFFFFFFFFFFFFFFF0
00FFFFFFFFFFFFFFFFF0
01FFFFFFFFFFFFFFFFF0
03FFFFFFFFFFFFFFFFF0
07FFFFFFFFFFFFFFFFF0
0FFFFFFFFFFFFFFFFFF0
1FFFFFFFFFFFFFFFFFF0
1FFFFFFFFFFFFFFFFFF0
3FFFFFFFFFFFFFFFFFF0
3FFFFFFFFFFFFFFFFFF0
7FFFF01FFFFF00000000
7FFFC007FFFF00000000
7FFF8003FFFFFFFF8000
FFFF0001FFFFFFFF8000
FFFF0001FFFFFFFF8000
FFFE0000FFFFFFFF8000
FFFE0000FFFFFFFF8000
FFFE0000FFFFFFFF8000
FFFE0000FFFFFFFF8000
FFFE0000FFFFFFFF8000
FFFE0000FFFFFFFF8000
FFFE0001FFFFFFFF8000
FFFF0001FFFFFFFF8000
7FFF8003FFFFFFFF8000
7FFFC007FFFF00000000
7FFFF01FFFFF00000000
3FFFFFFFFFFFFFFFFFF0
3FFFFFFFFFFFFFFFFFF0
1FFFFFFFFFFFFFFFFFF0
1FFFFFFFFFFFFFFFFFF0
0FFFFFFFFFFFFFFFFFF0
07FFFFFFFFFFFFFFFFF0
03FFFFFFFFFFFFFFFFF0
01FFFFFFFFFFFFFFFFF0
00FFFFFFFFFFFFFFFFF0
007FFFFFFFFFFFFFFFF0
001FFFFFFFFFFFFFFFF0
0007FFFFFFFFFFFFFFF0
0001FFFFFFFFFFFFFFF0
00003FF0FFFFFFFFFFF0
ENDCHAR
STARTCHAR 0160
ENCODING 352
SWIDTH 705 0
DWIDTH 47 0
BBX 43 55 2 0
BITMAP
03FE000FF800
00FF801FE000
007FC07FC000
003FE0FF8000
000FFBFE0000
0007FFFC0000
0003FFF80000
0000FFE00000
000000000000
000000000000
000000000000
0001FFFFFFE0
0007FFFFFFE0
001FFFFFFFE0
003FFFFFFFE0
007FFFFFFFE0
00FFFFFFFFE0
01FFFFFFFFE0
03FFFFFFFFE0
03FFFFFFFFE0
03FFFFFFFFE0
07FFFFFFFFE0
07FFFFFFFFE0
07FFFFFFFFE0
07FFFFFFFFE0
07FFFF800000
07FFFF800000
07FFFFE00000
07FFFFF00000
03FFFFF80000
03FFFFFC0000
01FFFFFF0000
00FFFFFF8000
007FFFFFC000
003FFFFFE000
001FFFFFF000
0007FFFFF800
0003FFFFF800
0001FFFFF800
00007FFFFC00
00007FFFFC00
FFFFFFFFFC00
FFFFFFFFFC00
FFFFFFFFFC00
FFFFFFFFFC00
FFFFFFFFFC00
FFFFFFFFF800
FFFFFFFFF800
FFFFFFFFF000
FFFFFFFFF000
FFFFFFFFE000
FFFFFFFFC000
FFFFFFFF0000
FFFFFFFE0000
FFFFFFF00000
ENDCHAR
STARTCHAR 0161
ENCODING 353
SWIDTH 705 0
DWIDTH 47 0
BBX 43 55 2 0
BITMAP
03FE000FF800
00FF801FE000
007FC07FC000
003FE0FF8000
000FFBFE0000
0007FFFC0000
0003FFF80000
0000FFE00000
000000000000
000000000000
000000000000
0001FFFFFFE0
0007FFFFFFE0
001FFFFFFFE0
003FFFFFFFE0
007FFFFFFFE0
00FFFFFFFFE0
01FFFFFFFFE0
03FFFFFFFFE0
03FFFFFFFFE0
03FFFFFFFFE0
07FFFFFFFFE0
07FFFFFFFFE0
07FFFFFFFFE0
07FFFFFFFFE0
07FFFF800000
07FFFF800000
07FFFFE00000
07FFFFF00000
03FFFFF80000
03FFFFFC0000
01FFFFFF0000
00FFFFFF8000
007FFFFFC000
003FFFFFE000
001FFFFFF000
0007FFFFF800
0003FFFFF800
0001FFFFF800
00007FFFFC00
00007FFFFC00
FFFFFFFFFC00
FFFFFFFFFC00
FFFFFFFFFC00
FFFFFFFFFC00
FFFFFFFFFC00
FFFFFFFFF800
FFFFFFFFF800
FFFFFFFFF000
FFFFFFFFF000
FFFFFFFFE000
FFFFFFFFC000
FFFFFFFF0000
FFFFFFFE0000
FFFFFFF00000
ENDCHAR
STARTCHAR 0178
ENCODING 376
SWIDTH 810 0
DWIDTH 54 0
BBX 50 55 2 0
BITMAP
0000F003C00000
0001F807E00000
0003FC0FF00000
0003FC0FF00000
0003FC0FF00000
0003FC0FF00000
0001F807E00000
0000F003C00000
00000000000000
00000000000000
00000000000000
FFFFC000FFFFC0
FFFFE001FFFFC0
7FFFE001FFFF80
7FFFF003FFFF80
3FFFF003FFFF00
1FFFF807FFFF00
1FFFFC0FFFFE00
0FFFFC0FFFFC00
0FFFFE1FFFFC00
07FFFE1FFFF800
07FFFF3FFFF800
03FFFF3FFFF000
01FFFFFFFFE000
01FFFFFFFFE000
00FFFFFFFFC000
00FFFFFFFFC000
007FFFFFFF8000
003FFFFFFF0000
003FFFFFFF0000
001FFFFFFE0000
001FFFFFFE0000
000FFFFFFC0000
000FFFFFFC0000
0007FFFFF80000
0003FFFFF00000
0003FFFFF00000
0001FFFFE00000
0001FFFFE00000
0000FFFFC00000
00007FFF800000
00007FFF800000
00007FFF800000
00007FFF800000
00007FFF800000
00007FFF800000
00007FFF800000
00007FFF800000
00007FFF800000
00007FFF800000
00007FFF800000
00007FFF800000
00007FFF800000
00007FFF800000
00007FFF800000
ENDCHAR
STARTCHAR 02DC
ENCODING 732
SWIDTH 360 0
DWIDTH 24 0
BBX 22 8 1 47
BITMAP
1F0004
7FE00C
FFFC1C
FFFFFC
FFFFFC
E0FFFC
C01FF8
8003E0
ENDCHAR
STARTCHAR 2010
ENCODING 8208
SWIDTH 360 0
DWIDTH 24 0
BBX 22 8 1 18
BITMAP
FFFFFC
FFFFFC
FFFFFC
FFFFFC
FFFFFC
FFFFFC
FFFFFC
FFFFFC
ENDCHAR
STARTCHAR 2018
ENCODING 8216
SWIDTH 195 0
DWIDTH 13 0
BBX 11 16 1 28
BITMAP
0600
0E00
1C00
3C00
3C00
7F00
7F80
FFC0
FFE0
FFE0
FFE0
FFE0
FFE0
7FC0
3F80
1F00
ENDCHAR
STARTCHAR 2019
ENCODING 8217
SWIDTH 195 0
DWIDTH 13 0
BBX 11 16 1 27
BITMAP
1F00
3F80
7FC0
FFE0
FFE0
FFE0
FFE0
FFE0
7FE0
3FC0
1FC0
0780
0780
0700
0E00
0C00
ENDCHAR
STARTCHAR 201A
ENCODING 8218
SWIDTH 195 0
DWIDTH 13 0
BBX 11 16 1 -6
BITMAP
1F00
3F80
7FC0
FFE0
FFE0
FFE0
FFE0
FFE0
7FE0
3FC0
1FC0
0780
0780
0700
0E00
0C00
ENDCHAR
STARTCHAR 201B
ENCODING 8219
SWIDTH 195 0
DWIDTH 13 0
BBX 11 16 1 27
BITMAP
1F00
3F80
7FC0
FFE0
FFE0
FFE0
FFE0
FFE0
FFC0
7F80
7F00
3C00
3C00
1C00
0E00
0600
ENDCHAR
STARTCHAR 201C
ENCODING 8220
SWIDTH 405 0
DWIDTH 27 0
BBX 25 16 1 28
BITMAP
06001800
0E003800
1C007000
3C00F000
3C00F000
7F01FC00
7F81FE00
FFC3FF00
FFE3FF80
FFE3FF80
FFE3FF80
FFE3FF80
FFE3FF80
7FC1FF00
3F80FE00
1F007C00
ENDCHAR
STARTCHAR 201D
ENCODING 8221
SWIDTH 405 0
DWIDTH 27 0
BBX 25 16 1 27
BITMAP
1F007C00
3F80FE00
7FC1FF00
FFE3FF80
FFE3FF80
FFE3FF80
FFE3FF80
FFE3FF80
7FE1FF80
3FC0FF00
1FC07F00
07801E00
07801E00
07001C00
0E003800
0C003000
ENDCHAR
STARTCHAR 201E
ENCODING 8222
SWIDTH 405 0
DWIDTH 27 0
BBX 25 16 1 -6
BITMAP
1F007C00
3F80FE00
7FC1FF00
FFE3FF80
FFE3FF80
FFE3FF80
FFE3FF80
FFE3FF80
7FE1FF80
3FC0FF00
1FC07F00
07801E00
07801E00
07001C00
0E003800
0C003000
ENDCHAR
STARTCHAR 2022
ENCODING 8226
SWIDTH 270 0
DWIDTH 18 0
BBX 16 17 1 14
BITMAP
07E0
1FF0
3FFC
3FFC
7FFE
FFFE
FFFF
FFFF
FFFF
FFFF
FFFF
FFFE
7FFE
3FFC
3FFC
1FF8
07E0
ENDCHAR
STARTCHAR 2026
ENCODING 8230
SWIDTH 615 0
DWIDTH 41 0
BBX 39 11 1 0
BITMAP
1F007C01F0
3F80FE03F8
7FC1FF07FC
FFE3FF8FFE
FFE3FF8FFE
FFE3FF8FFE
FFE3FF8FFE
FFE3FF8FFE
7FC1FF07FC
3F80FE03F8
1F007C01F0
ENDCHAR
STARTCHAR 2030
ENCODING 8240
SWIDTH 1155 0
DWIDTH 77 0
BBX 75 44 1 0
BITMAP
00FC000E000000000000
03FF001FC00000000000
0FFFC01FF00000000000
1FFFE01FFC0000000000
3FFFF03FFC0000000000
3FFFF03FFC0000000000
7FFFF83FF80000000000
7F87F87FF80000000000
FF03FC7FF80000000000
FE01FC7FF00000000000
FE01FCFFF00000000000
FE01FCFFE00000000000
FE01FCFFE00000000000
FF03FDFFE00000000000
7F87F9FFC00000000000
7FFFFBFFC00000000000
7FFFF3FFC00000000000
3FFFF3FF800000000000
1FFFE7FF800000000000
0FFFC7FF800000000000
07FF07FF000000000000
00FC0FFF000000000000
00000FFF03F00007E000
00000FFE0FFC001FF800
00001FFE3FFF007FFE00
00001FFE7FFF80FFFF00
00001FFCFFFFC1FFFF80
00003FFCFFFFC1FFFF80
00003FFDFFFFE3FFFFC0
00003FF9FE1FE3FC3FC0
00007FFBFC0FF7F81FE0
00007FF3F807F7F00FE0
00007FF3F807F7F00FE0
0000FFF3F807F7F00FE0
0000FFE3F807F7F00FE0
0001FFE3FC0FF7F81FE0
0001FFE1FE1FE3FC3FC0
0001FFC1FFFFE3FFFFC0
0003FFC1FFFFC3FFFF80
0003FFC0FFFFC1FFFF80
0003FF807FFF80FFFF00
0000FF803FFF007FFE00
00003F800FFC003FF800
0000070003F00007E000
ENDCHAR
STARTCHAR 2122
ENCODING 8482
SWIDTH 585 0
DWIDTH 39 0
BBX 37 16 1 22
BITMAP
FFFFFF01F8
FFFFFF83F8
FFFFFFC7F8
FFFFFFC7F8
FFFFFFEFF8
03F03FFFF8
03F03FFFF8
03F03FFFF8
03F03FFFF8
03F03FFFF8
03F03FFFF8
03F03FFFF8
03F03F7DF8
03F03F39F8
03F03F39F8
03F03F11F8
ENDCHAR
STARTCHAR 2212
ENCODING 8722
SWIDTH 360 0
DWIDTH 24 0
BBX 22 8 1 18
BITMAP
FFFFFC
FFFFFC
FFFFFC
FFFFFC
FFFFFC
FFFFFC
FFFFFC
FFFFFC
ENDCHAR
ENDFONT
